<svg xmlns="http://www.w3.org/2000/svg" width="26" height="26" viewBox="0 0 26 26">
  <g id="Group_118296" data-name="Group 118296" transform="translate(-1020 -793)">
    <circle id="Ellipse_1713" data-name="Ellipse 1713" cx="13" cy="13" r="13" transform="translate(1020 793)" fill="#ff8a24" opacity="0.1"/>
    <g id="morning" transform="translate(1025.895 798.918)">
      <g id="Group_47656" data-name="Group 47656">
        <g id="Group_47649" data-name="Group 47649">
          <g id="Group_47648" data-name="Group 47648">
            <path id="Path_64175" data-name="Path 64175" d="M38.105,108.842a4.264,4.264,0,0,0-3.692,6.4H41.8a4.264,4.264,0,0,0-3.692-6.4Zm0-.947a.473.473,0,0,0,.474-.474v-.947a.474.474,0,0,0-.947,0v.947A.473.473,0,0,0,38.105,107.895Zm-5.684,4.737h-.947a.474.474,0,1,0,0,.947h.947a.474.474,0,1,0,0-.947Zm12.316,0H43.79a.474.474,0,1,0,0,.947h.947a.474.474,0,1,0,0-.947Zm-.478-3.079a.473.473,0,0,0-.647-.173l-.82.474a.474.474,0,0,0,.474.821l.82-.474A.474.474,0,0,0,44.259,109.553Zm-3.548-.96a.474.474,0,0,0,.647-.173l.474-.82a.474.474,0,1,0-.821-.474l-.474.82A.474.474,0,0,0,40.711,108.593Zm-5.858-.173a.474.474,0,0,0,.821-.474l-.474-.82a.474.474,0,1,0-.821.474Zm-1.434,1.434-.82-.474a.474.474,0,0,0-.474.821l.82.474a.474.474,0,0,0,.474-.821Z" transform="translate(-31 -106)" fill="#ff8a24"/>
          </g>
        </g>
        <g id="Group_47655" data-name="Group 47655" transform="translate(0 4.927)">
          <g id="Group_47648-2" data-name="Group 47648">
            <path id="Path_64175-2" data-name="Path 64175" d="M38.105,112.4a4.264,4.264,0,0,1-3.692-6.4H41.8a4.264,4.264,0,0,1-3.692,6.4Zm0,.947a.473.473,0,0,1,.474.474v.947a.474.474,0,0,1-.947,0v-.947A.473.473,0,0,1,38.105,113.343Zm-5.684-4.737h-.947a.474.474,0,1,1,0-.947h.947a.474.474,0,1,1,0,.947Zm12.316,0H43.79a.474.474,0,1,1,0-.947h.947a.474.474,0,1,1,0,.947Zm-.478,3.079a.473.473,0,0,1-.647.173l-.82-.474a.474.474,0,0,1,.474-.821l.82.474A.474.474,0,0,1,44.259,111.685Zm-3.548.96a.474.474,0,0,1,.647.173l.474.82a.474.474,0,1,1-.821.474l-.474-.82A.474.474,0,0,1,40.711,112.645Zm-5.858.173a.474.474,0,1,1,.821.474l-.474.82a.474.474,0,1,1-.821-.474Zm-1.434-1.434-.82.474a.474.474,0,0,1-.474-.821l.82-.474a.474.474,0,1,1,.474.821Z" transform="translate(-31 -106)" fill="#ff8a24"/>
          </g>
        </g>
      </g>
    </g>
  </g>
</svg>
