<svg xmlns="http://www.w3.org/2000/svg" width="100" height="32.108" viewBox="0 0 100 32.108">
  <g id="Group_116612" data-name="Group 116612" transform="translate(-319 -334.495)">
    <path id="Path_54" data-name="Path 54" d="M5.46-50.358v3.792h.6V-48h.948A1.107,1.107,0,0,0,8.2-49.177a1.1,1.1,0,0,0-1.191-1.181Zm.6.532h.877a.6.6,0,0,1,.649.649.6.6,0,0,1-.649.644H6.058Zm3.828.613a1.291,1.291,0,0,0-1.359,1.349,1.293,1.293,0,0,0,1.359,1.349,1.292,1.292,0,0,0,1.354-1.349A1.289,1.289,0,0,0,9.886-49.212Zm0,.487a.777.777,0,0,1,.781.862.776.776,0,0,1-.781.857.773.773,0,0,1-.781-.857A.775.775,0,0,1,9.886-48.726Zm4.695,2.16.994-2.6h-.613l-.624,1.673L13.7-49.167h-.4l-.629,1.673-.624-1.673h-.613l.994,2.6h.451l.624-1.648.619,1.648Zm3.7-1.085v-.279a1.163,1.163,0,0,0-1.217-1.283,1.243,1.243,0,0,0-1.3,1.349,1.252,1.252,0,0,0,1.313,1.349,1.158,1.158,0,0,0,1.176-.831l-.573-.03a.578.578,0,0,1-.619.37.656.656,0,0,1-.695-.644ZM17.06-48.726a.6.6,0,0,1,.649.629H16.375A.638.638,0,0,1,17.06-48.726Zm3.174-.471a.758.758,0,0,0-.74.4v-.365h-.553v2.6h.568V-47.98a.662.662,0,0,1,.725-.664Zm2.849,1.546v-.279a1.163,1.163,0,0,0-1.217-1.283,1.243,1.243,0,0,0-1.3,1.349,1.252,1.252,0,0,0,1.313,1.349,1.158,1.158,0,0,0,1.176-.831l-.573-.03a.578.578,0,0,1-.619.37.656.656,0,0,1-.695-.644Zm-1.222-1.075a.6.6,0,0,1,.649.629H21.176A.638.638,0,0,1,21.861-48.726Zm4.365,2.16v-3.939h-.568v1.653a.991.991,0,0,0-.826-.36,1.233,1.233,0,0,0-1.252,1.349,1.236,1.236,0,0,0,1.252,1.349.968.968,0,0,0,.857-.411v.36Zm-1.3-2.16a.711.711,0,0,1,.735.791v.137a.708.708,0,0,1-.735.791.759.759,0,0,1-.766-.857A.764.764,0,0,1,24.923-48.726Zm3.321-1.632v3.792h1.612a1.05,1.05,0,0,0,1.191-1.075.882.882,0,0,0-.588-.907.8.8,0,0,0,.426-.781c0-.695-.487-1.029-1.151-1.029Zm.6.532h.821c.36,0,.608.177.608.537a.466.466,0,0,1-.522.522h-.907Zm0,1.577h.968a.55.55,0,0,1,.619.578c0,.406-.284.568-.644.568h-.943Zm3.574,2.976,1.653-3.894h-.634l-.7,1.779-.7-1.779H31.4l1.029,2.418-.639,1.475Z" transform="translate(313.54 385)" fill="#fff"/>
    <g id="Group_2" data-name="Group 2" transform="translate(319 343.816)">
      <path id="Path_1" data-name="Path 1" d="M115.49,169.694a.446.446,0,0,0,.429.432h2.714a.446.446,0,0,0,.429-.432V157.517h3.233a.431.431,0,0,0,.429-.433V154.6a.431.431,0,0,0-.429-.434H112.257a.43.43,0,0,0-.429.434v2.487a.431.431,0,0,0,.429.433h3.233v12.178Zm-92.766-7.525a8.15,8.15,0,0,0,8.169,8.206,7.724,7.724,0,0,0,5.494-2.212.459.459,0,0,0,.023-.616l-1.763-1.9a.442.442,0,0,0-.588-.023,4.739,4.739,0,0,1-3.029,1.1,4.689,4.689,0,0,1-.023-9.365,4.583,4.583,0,0,1,3.053,1.168.393.393,0,0,0,.565,0l1.763-1.852a.425.425,0,0,0-.022-.638,7.558,7.558,0,0,0-5.472-2.12,8.189,8.189,0,0,0-8.169,8.251Zm15.125,0h0a8.133,8.133,0,1,0,8.12-8.251,8.106,8.106,0,0,0-8.12,8.251Zm3.615,0a4.517,4.517,0,1,1,4.505,4.557,4.584,4.584,0,0,1-4.505-4.557ZM56.886,169.7h0a.426.426,0,0,0,.406.432H62.8a7.984,7.984,0,0,0,0-15.967H57.293a.427.427,0,0,0-.406.434v15.1Zm3.527-2.923v-9.259h2.162a4.636,4.636,0,0,1,0,9.259Zm13.1,2.919a.446.446,0,0,0,.429.432H76.66a.446.446,0,0,0,.43-.432V154.6a.447.447,0,0,0-.43-.434H73.947a.446.446,0,0,0-.429.434v15.1Zm11.518-15.531c.12-.018.246-.035.376-.051h0l.378-.043.041,0,.24-.011c.163-.008.323-.017.458-.017s.272.008.433.016l.29.013.024,0h0l.077.008c.243.026.486.052.721.086a.319.319,0,0,1,.254.2l6,15.33a.319.319,0,0,1-.181.413.328.328,0,0,1-.092.021c-.138.018-.277.034-.414.048s-.3.028-.433.037H93.2c-.129.008-.261.015-.4.02-.151.006-.273.008-.367.008-.113,0-.247,0-.406-.008s-.287-.012-.421-.021c-.314-.021-.735-.045-1.034-.1a.319.319,0,0,1-.254-.232l-3.751-10.925L82.75,169.914a.318.318,0,0,1-.25.214h0c-.118.019-.248.037-.39.052s-.292.027-.449.037-.3.016-.447.021c-.168.005-.307.008-.415.008s-.239,0-.4-.008c-.147-.005-.292-.012-.433-.021s-.3-.021-.452-.036-.3-.032-.444-.051a.318.318,0,0,1-.274-.357.313.313,0,0,1,.021-.08l5.972-15.329a.318.318,0,0,1,.25-.2Zm10.913,15.531a.447.447,0,0,0,.43.432h2.69a.431.431,0,0,0,.429-.432v-8.506h.023l8.937,9.052a.527.527,0,0,0,.294.133h.361a.427.427,0,0,0,.429-.412V154.6a.446.446,0,0,0-.429-.434H106.4a.431.431,0,0,0-.429.434v8.1h-.022l-9.028-8.783h-.566a.426.426,0,0,0-.429.411Z" transform="translate(-22.724 -153.918)" fill="#fff" fill-rule="evenodd"/>
      <path id="Path_2" data-name="Path 2" d="M243.176,202.335a1.647,1.647,0,1,1,1.647,1.647A1.648,1.648,0,0,1,243.176,202.335Z" transform="translate(-180.999 -187.497)" fill="#40c9dc" fill-rule="evenodd"/>
      <path id="Path_3" data-name="Path 3" d="M32.674,229.469l1.69-3.657a.1.1,0,0,1,.092-.06h.054a.093.093,0,0,1,.092.06l1.674,3.657a.1.1,0,0,1-.092.141h-.473a.156.156,0,0,1-.158-.109l-.266-.587H33.663l-.266.587a.163.163,0,0,1-.158.109h-.473A.1.1,0,0,1,32.674,229.469Zm2.348-1.157-.543-1.2h-.016l-.533,1.2Z" transform="translate(-32.663 -206.878)" fill="#fff"/>
      <path id="Path_4" data-name="Path 4" d="M53.239,227.911,52,226.1a.1.1,0,0,1,.087-.158h.554a.108.108,0,0,1,.087.049l.869,1.25.87-1.25a.108.108,0,0,1,.087-.049h.56a.1.1,0,0,1,.087.158l-1.255,1.809v1.734a.107.107,0,0,1-.1.1h-.5a.1.1,0,0,1-.1-.1Z" transform="translate(-46.333 -207.01)" fill="#fff"/>
      <path id="Path_5" data-name="Path 5" d="M63.366,229.469l1.69-3.657a.1.1,0,0,1,.092-.06H65.2a.092.092,0,0,1,.092.06l1.674,3.657a.1.1,0,0,1-.092.141H66.4a.156.156,0,0,1-.158-.109l-.266-.587H64.355l-.266.587a.163.163,0,0,1-.158.109h-.473A.1.1,0,0,1,63.366,229.469Zm2.347-1.157-.543-1.2h-.016l-.532,1.2Z" transform="translate(-54.381 -206.878)" fill="#fff"/>
      <path id="Path_6" data-name="Path 6" d="M78.063,229.078l.2-.337a.126.126,0,0,1,.185-.038,1.8,1.8,0,0,0,.82.337.454.454,0,0,0,.494-.419c0-.277-.234-.467-.69-.652-.511-.207-1.022-.532-1.022-1.174a1.085,1.085,0,0,1,1.223-1.043,1.914,1.914,0,0,1,1.087.364.135.135,0,0,1,.032.179l-.206.31a.143.143,0,0,1-.19.065,1.785,1.785,0,0,0-.755-.3.433.433,0,0,0-.478.381c0,.255.2.429.641.609.527.212,1.136.527,1.136,1.228a1.148,1.148,0,0,1-1.25,1.076,1.751,1.751,0,0,1-1.2-.424C78.041,229.192,78.014,229.165,78.063,229.078Z" transform="translate(-64.769 -206.878)" fill="#fff"/>
      <path id="Path_7" data-name="Path 7" d="M90.444,226.041a.107.107,0,0,1,.1-.1h.505a.1.1,0,0,1,.1.1v1.44h1.772v-1.44a.1.1,0,0,1,.1-.1h.5a.107.107,0,0,1,.1.1v3.6a.107.107,0,0,1-.1.1h-.5a.1.1,0,0,1-.1-.1v-1.5H91.156v1.5a.1.1,0,0,1-.1.1h-.505a.107.107,0,0,1-.1-.1Z" transform="translate(-73.548 -207.01)" fill="#fff"/>
      <path id="Path_8" data-name="Path 8" d="M111.295,226.59h-.832a.1.1,0,0,1-.1-.1v-.445a.1.1,0,0,1,.1-.1h2.375a.1.1,0,0,1,.1.1v.445a.1.1,0,0,1-.1.1h-.831v3.049a.107.107,0,0,1-.1.1H111.4a.107.107,0,0,1-.1-.1Z" transform="translate(-87.641 -207.01)" fill="#fff"/>
      <path id="Path_9" data-name="Path 9" d="M122.6,226.041a.1.1,0,0,1,.1-.1h2.212a.1.1,0,0,1,.1.1v.445a.1.1,0,0,1-.1.1H123.31v.891h1.342a.107.107,0,0,1,.1.1v.451a.1.1,0,0,1-.1.1H123.31v.951h1.609a.1.1,0,0,1,.1.1v.446a.1.1,0,0,1-.1.1h-2.212a.1.1,0,0,1-.1-.1Z" transform="translate(-96.304 -207.01)" fill="#fff"/>
      <path id="Path_10" data-name="Path 10" d="M135.973,225.752a1.84,1.84,0,0,1,1.315.505.1.1,0,0,1,.005.152l-.331.342a.087.087,0,0,1-.136,0,1.284,1.284,0,0,0-.837-.321,1.262,1.262,0,0,0,.005,2.521,1.3,1.3,0,0,0,.832-.31.1.1,0,0,1,.136,0l.337.348a.1.1,0,0,1-.006.147,1.864,1.864,0,0,1-1.32.527,1.956,1.956,0,1,1,0-3.913Z" transform="translate(-104.376 -206.878)" fill="#fff"/>
      <path id="Path_11" data-name="Path 11" d="M149.153,226.041a.107.107,0,0,1,.1-.1h.505a.1.1,0,0,1,.1.1v1.44h1.772v-1.44a.1.1,0,0,1,.1-.1h.5a.107.107,0,0,1,.1.1v3.6a.107.107,0,0,1-.1.1h-.5a.1.1,0,0,1-.1-.1v-1.5h-1.772v1.5a.1.1,0,0,1-.1.1h-.505a.107.107,0,0,1-.1-.1Z" transform="translate(-115.09 -207.01)" fill="#fff"/>
      <path id="Path_12" data-name="Path 12" d="M164.926,225.85a.1.1,0,0,1,.1-.1h.136l2.261,2.4h.006V225.91a.1.1,0,0,1,.1-.1h.5a.107.107,0,0,1,.1.1v3.657a.1.1,0,0,1-.1.1h-.13l-2.272-2.494h-.005v2.337a.1.1,0,0,1-.1.1h-.495a.107.107,0,0,1-.1-.1Z" transform="translate(-126.251 -206.878)" fill="#fff"/>
      <path id="Path_13" data-name="Path 13" d="M181.8,225.752a1.956,1.956,0,1,1-1.951,1.962A1.953,1.953,0,0,1,181.8,225.752Zm0,3.206a1.25,1.25,0,1,0-1.244-1.244A1.252,1.252,0,0,0,181.8,228.958Z" transform="translate(-136.808 -206.878)" fill="#fff"/>
      <path id="Path_14" data-name="Path 14" d="M197.124,226.041a.1.1,0,0,1,.1-.1h.5a.107.107,0,0,1,.1.1v3.049h1.386a.1.1,0,0,1,.1.1v.446a.1.1,0,0,1-.1.1h-1.989a.1.1,0,0,1-.1-.1Z" transform="translate(-149.034 -207.01)" fill="#fff"/>
      <path id="Path_15" data-name="Path 15" d="M208.885,225.752a1.956,1.956,0,1,1-1.951,1.962A1.953,1.953,0,0,1,208.885,225.752Zm0,3.206a1.25,1.25,0,1,0-1.244-1.244A1.253,1.253,0,0,0,208.885,228.958Z" transform="translate(-155.976 -206.878)" fill="#fff"/>
      <path id="Path_16" data-name="Path 16" d="M225.232,225.752a2.054,2.054,0,0,1,1.326.505.106.106,0,0,1,.006.152l-.337.353a.093.093,0,0,1-.141,0,1.231,1.231,0,0,0-.82-.315,1.253,1.253,0,0,0,.006,2.505,1.691,1.691,0,0,0,.647-.136v-.462h-.435a.1.1,0,0,1-.1-.1v-.429a.1.1,0,0,1,.1-.1h1.043a.1.1,0,0,1,.1.1v1.391a.1.1,0,0,1-.044.087,2.745,2.745,0,0,1-1.348.353,1.954,1.954,0,0,1,0-3.907Z" transform="translate(-167.543 -206.878)" fill="#fff"/>
      <path id="Path_17" data-name="Path 17" d="M238.926,226.041a.106.106,0,0,1,.1-.1h.506a.107.107,0,0,1,.1.1v3.6a.107.107,0,0,1-.1.1h-.506a.107.107,0,0,1-.1-.1Z" transform="translate(-178.613 -207.01)" fill="#fff"/>
      <path id="Path_18" data-name="Path 18" d="M246.227,226.041a.1.1,0,0,1,.1-.1h2.212a.1.1,0,0,1,.1.1v.445a.1.1,0,0,1-.1.1h-1.609v.891h1.342a.107.107,0,0,1,.1.1v.451a.1.1,0,0,1-.1.1h-1.342v.951h1.609a.1.1,0,0,1,.1.1v.446a.1.1,0,0,1-.1.1H246.33a.1.1,0,0,1-.1-.1Z" transform="translate(-183.779 -207.01)" fill="#fff"/>
      <path id="Path_19" data-name="Path 19" d="M257.813,229.078l.2-.337a.126.126,0,0,1,.185-.038,1.8,1.8,0,0,0,.82.337.454.454,0,0,0,.495-.419c0-.277-.234-.467-.69-.652-.511-.207-1.022-.532-1.022-1.174a1.086,1.086,0,0,1,1.223-1.043,1.914,1.914,0,0,1,1.087.364.135.135,0,0,1,.032.179l-.206.31a.143.143,0,0,1-.19.065,1.791,1.791,0,0,0-.756-.3.433.433,0,0,0-.478.381c0,.255.2.429.641.609.527.212,1.136.527,1.136,1.228a1.148,1.148,0,0,1-1.25,1.076,1.75,1.75,0,0,1-1.2-.424C257.791,229.192,257.764,229.165,257.813,229.078Z" transform="translate(-191.959 -206.878)" fill="#fff"/>
      <path id="Path_20" data-name="Path 20" d="M276.8,225.752a1.84,1.84,0,0,1,1.315.505.1.1,0,0,1,.005.152l-.331.342a.087.087,0,0,1-.136,0,1.283,1.283,0,0,0-.837-.321,1.262,1.262,0,0,0,.005,2.521,1.3,1.3,0,0,0,.831-.31.1.1,0,0,1,.136,0l.337.348a.1.1,0,0,1-.006.147,1.864,1.864,0,0,1-1.32.527,1.956,1.956,0,1,1,0-3.913Z" transform="translate(-204.024 -206.878)" fill="#fff"/>
      <path id="Path_21" data-name="Path 21" d="M290.946,225.752a1.956,1.956,0,1,1-1.951,1.962A1.953,1.953,0,0,1,290.946,225.752Zm0,3.206a1.25,1.25,0,1,0-1.245-1.244A1.252,1.252,0,0,0,290.946,228.958Z" transform="translate(-214.041 -206.878)" fill="#fff"/>
      <path id="Path_22" data-name="Path 22" d="M306.061,225.833a.092.092,0,0,1,.1-.081h.087a.1.1,0,0,1,.092.054l1.2,2.565h.016l1.2-2.565a.093.093,0,0,1,.092-.054h.087a.092.092,0,0,1,.1.081l.641,3.652a.094.094,0,0,1-.1.125h-.494a.118.118,0,0,1-.1-.081l-.32-2.06h-.016l-.951,2.136a.092.092,0,0,1-.092.06h-.1a.1.1,0,0,1-.092-.06l-.962-2.136h-.016l-.315,2.06a.1.1,0,0,1-.1.081h-.489a.1.1,0,0,1-.1-.125Z" transform="translate(-225.658 -206.878)" fill="#fff"/>
      <path id="Path_23" data-name="Path 23" d="M323.979,226.041a.1.1,0,0,1,.1-.1h1.277a1.212,1.212,0,1,1,.006,2.424h-.679v1.277a.107.107,0,0,1-.1.1h-.5a.1.1,0,0,1-.1-.1Zm1.337,1.657a.56.56,0,0,0,.56-.565.542.542,0,0,0-.56-.527h-.63V227.7Z" transform="translate(-238.796 -207.01)" fill="#fff"/>
      <path id="Path_24" data-name="Path 24" d="M334.022,229.469l1.69-3.657a.1.1,0,0,1,.092-.06h.054a.092.092,0,0,1,.092.06l1.674,3.657a.1.1,0,0,1-.092.141h-.473a.156.156,0,0,1-.157-.109l-.266-.587h-1.625l-.266.587a.164.164,0,0,1-.158.109h-.473A.1.1,0,0,1,334.022,229.469Zm2.348-1.157-.544-1.2h-.016l-.532,1.2Z" transform="translate(-245.895 -206.878)" fill="#fff"/>
      <path id="Path_25" data-name="Path 25" d="M349.544,225.85a.1.1,0,0,1,.1-.1h.136l2.261,2.4h.005V225.91a.1.1,0,0,1,.1-.1h.5a.107.107,0,0,1,.1.1v3.657a.1.1,0,0,1-.1.1h-.13l-2.272-2.494h-.005v2.337a.1.1,0,0,1-.1.1h-.495a.107.107,0,0,1-.1-.1Z" transform="translate(-256.885 -206.878)" fill="#fff"/>
      <path id="Path_26" data-name="Path 26" d="M364.842,227.911,363.6,226.1a.1.1,0,0,1,.087-.158h.555a.108.108,0,0,1,.087.049l.869,1.25.87-1.25a.108.108,0,0,1,.087-.049h.56a.1.1,0,0,1,.087.158l-1.255,1.809v1.734a.107.107,0,0,1-.1.1h-.5a.1.1,0,0,1-.1-.1Z" transform="translate(-266.822 -207.01)" fill="#fff"/>
    </g>
  </g>
</svg>
