<svg id="Component_54_1" data-name="Component 54 – 1" xmlns="http://www.w3.org/2000/svg" width="20" height="20" viewBox="0 0 20 20">
  <g id="Group_116579" data-name="Group 116579">
    <path id="Path_162148" data-name="Path 162148" d="M25.278,38.438H22.906A3.906,3.906,0,0,1,19,34.531V23.906A3.906,3.906,0,0,1,22.906,20h2.372a3.9,3.9,0,0,0-3.9,3.9V34.533A3.9,3.9,0,0,0,25.278,38.438Zm5.636-4.492a4.494,4.494,0,0,1,3.105-4.274,4.492,4.492,0,1,0,0,8.547A4.494,4.494,0,0,1,30.914,33.945Z" transform="translate(-18.258 -19.219)" fill="#ea4c89" opacity="0.2"/>
    <path id="Path_162149" data-name="Path 162149" d="M8.477,20H4.688A4.693,4.693,0,0,1,0,15.313V4.688A4.693,4.693,0,0,1,4.688,0h7.188a4.693,4.693,0,0,1,4.688,4.688V7.227a.781.781,0,0,1-1.562,0V4.688a3.129,3.129,0,0,0-3.125-3.125H4.688A3.129,3.129,0,0,0,1.563,4.688V15.313a3.129,3.129,0,0,0,3.125,3.125H8.477A.781.781,0,0,1,8.477,20ZM12.5,3.828a.781.781,0,0,0-1.562,0A1.173,1.173,0,0,1,9.766,5H6.8A1.173,1.173,0,0,1,5.625,3.828a.781.781,0,0,0-1.562,0A2.737,2.737,0,0,0,6.8,6.563H9.766A2.737,2.737,0,0,0,12.5,3.828Zm7.5,10.9A5.273,5.273,0,1,0,14.727,20,5.279,5.279,0,0,0,20,14.727Zm-1.562,0a3.711,3.711,0,1,1-3.711-3.711A3.715,3.715,0,0,1,18.438,14.727Z" fill="#ea4c89"/>
    <path id="Path_162150" data-name="Path 162150" d="M121.757,224.992H120.43a.781.781,0,0,1-.781-.781v-1.6a.781.781,0,0,1,1.563,0v.82h.546a.781.781,0,0,1,0,1.563Zm-5.781-6.211A.781.781,0,0,0,115.2,218h-4.414a.781.781,0,0,0,0,1.563H115.2A.781.781,0,0,0,115.977,218.781Zm-1.953,3.125a.781.781,0,0,0-.781-.781h-2.461a.781.781,0,0,0,0,1.563h2.461A.781.781,0,0,0,114.023,221.906Zm-.391,3.125a.781.781,0,0,0-.781-.781h-2.07a.781.781,0,0,0,0,1.563h2.07A.781.781,0,0,0,113.633,225.031Z" transform="translate(-105.703 -209.484)" fill="#ea4c89"/>
  </g>
</svg>
