<svg xmlns="http://www.w3.org/2000/svg" width="24" height="27.5" viewBox="0 0 24 27.5"><g transform="translate(-4 -2.25)"><path d="M19.5,23.75a1,1,0,0,0,1-1v-10a1,1,0,0,0-2,0v10A1,1,0,0,0,19.5,23.75Z" fill="#676767"/><path d="M12.5,23.75a1,1,0,0,0,1-1v-10a1,1,0,0,0-2,0v10A1,1,0,0,0,12.5,23.75Z" fill="#676767"/><path d="M20,4.25a1,1,0,0,0,0-2H12a1,1,0,0,0,0,2Z" fill="#676767"/><path d="M5,5.25a1,1,0,0,0,0,2H6v18.4a4.106,4.106,0,0,0,4.1,4.1H21.9a4.106,4.106,0,0,0,4.1-4.1V7.25h1a1,1,0,1,0,0-2H5Zm19,2v18.4a2.1,2.1,0,0,1-2.1,2.1H10.1A2.1,2.1,0,0,1,8,25.65V7.25Z" fill="#676767"/></g></svg>