<svg xmlns="http://www.w3.org/2000/svg" width="36.987" height="40.101" viewBox="0 0 36.987 40.101">
  <g id="Group_115898" data-name="Group 115898" transform="translate(-604.047 -4527.008)">
    <g id="Group_115897" data-name="Group 115897" transform="translate(584.166 4527.009)">
      <g id="Group_115888" data-name="Group 115888" transform="translate(19.881 -0.001)">
        <g id="Group_115887" data-name="Group 115887" transform="translate(0 0)">
          <path id="Path_161928" data-name="Path 161928" d="M56.644,30.842l-6.3-13.46a.587.587,0,0,0-1.064.5l6.3,13.46A1.21,1.21,0,0,1,55,32.945l-12.086,5.66a1.209,1.209,0,0,1-1.605-.581L39.046,33.2l5.882-14.191a2.389,2.389,0,0,0-.039-1.913l-3.217-6.949,4.17,1.319a1.208,1.208,0,0,1,.729.639l1.545,3.3a.587.587,0,1,0,1.064-.5l-1.544-3.3A2.385,2.385,0,0,0,46.2,10.344L41.167,8.753a30.836,30.836,0,0,0,2.5-4.447c.985-2.378.19-3.7-.883-4.145s-2.57-.073-3.556,2.3a27.972,27.972,0,0,0-1.089,5.16,3.322,3.322,0,0,0-.982.213l-7.609,2.907A2.393,2.393,0,0,0,28.2,12.06L20.064,31.7a2.382,2.382,0,0,0,1.289,3.113l2.38.986a.587.587,0,0,0,.45-1.085l-2.38-.987a1.207,1.207,0,0,1-.653-1.578L29.288,12.51a1.213,1.213,0,0,1,.684-.666l7.609-2.907a2.166,2.166,0,0,1,.4-.11c-.073.552-.132,1.034-.174,1.4a1.985,1.985,0,1,0,1.15.289c.044-.374.11-.926.195-1.568a2.173,2.173,0,0,1,1.188,1.112l3.486,7.531a1.21,1.21,0,0,1,.02.969L35.709,38.181a1.207,1.207,0,0,1-1.578.653l-7.268-3.012a.587.587,0,0,0-.45,1.085l7.268,3.012a2.382,2.382,0,0,0,3.113-1.289l1.642-3.962,1.8,3.855A2.382,2.382,0,0,0,43.41,39.67L55.5,34.009A2.386,2.386,0,0,0,56.644,30.842ZM38.679,12.481a.81.81,0,1,1-.028-.619A.8.8,0,0,1,38.679,12.481Zm1.48-4.335a3.393,3.393,0,0,0-.847-.385,26.919,26.919,0,0,1,1.007-4.844c.267-.643,1-2.093,2.021-1.669s.514,1.966.247,2.609A29.261,29.261,0,0,1,40.159,8.146Z" transform="translate(-19.881 0.001)" fill="#d4af37"/>
        </g>
      </g>
      <g id="Group_115890" data-name="Group 115890" transform="translate(26.378 17.998)">
        <g id="Group_115889" data-name="Group 115889">
          <path id="Path_161929" data-name="Path 161929" d="M106.873,231.611a5.4,5.4,0,0,1,7.936,4.768.588.588,0,0,0,.587.588h0a.588.588,0,0,0,.588-.587,6.626,6.626,0,0,0-1.263-3.877,6.572,6.572,0,1,0,.633,6.681.587.587,0,1,0-1.063-.5,5.422,5.422,0,0,1-6.457,2.855,5.4,5.4,0,0,1-.96-9.928Z" transform="translate(-102.833 -229.802)" fill="#d4af37"/>
        </g>
      </g>
      <g id="Group_115894" data-name="Group 115894" transform="translate(47.874 22.484)">
        <g id="Group_115893" data-name="Group 115893" transform="translate(0)">
          <path id="Path_161931" data-name="Path 161931" d="M382.164,295.4l-3.76-7.99a.587.587,0,0,0-1.063.5l3.76,7.99a.587.587,0,0,0,1.063-.5Z" transform="translate(-377.285 -287.07)" fill="#d4af37"/>
        </g>
      </g>
      <g id="Group_115896" data-name="Group 115896" transform="translate(45.248 23.888)">
        <g id="Group_115895" data-name="Group 115895">
          <path id="Path_161932" data-name="Path 161932" d="M348.627,313.332l-3.76-7.99a.587.587,0,1,0-1.063.5l3.76,7.99a.587.587,0,1,0,1.063-.5Z" transform="translate(-343.748 -305.005)" fill="#d4af37"/>
        </g>
      </g>
    </g>
    <text id="_" data-name="£" transform="translate(616 4554) rotate(19)" fill="#ea4c89" font-size="8" font-family="Axiforma-Regular, Axiforma" letter-spacing="0.01em"><tspan x="-2.284" y="0">£</tspan></text>
  </g>
</svg>
