<svg xmlns="http://www.w3.org/2000/svg" width="23.375" height="26.082" viewBox="0 0 23.375 26.082">
  <g id="Group_118291" data-name="Group 118291" transform="translate(-26.57)">
    <g id="Group_118293" data-name="Group 118293" transform="translate(26.57)">
      <g id="Group_118292" data-name="Group 118292" transform="translate(0)">
        <g id="Group_118291-2" data-name="Group 118291">
          <path id="Path_162706" data-name="Path 162706" d="M118.991,201.019A1.019,1.019,0,0,0,117.972,200H107.478a1.019,1.019,0,1,0,0,2.038h10.494A1.019,1.019,0,0,0,118.991,201.019Z" transform="translate(-102.389 -189.812)" fill="#676767"/>
          <path id="Path_162707" data-name="Path 162707" d="M107.478,280a1.019,1.019,0,0,0,0,2.038h6.373a1.019,1.019,0,0,0,0-2.038Z" transform="translate(-102.389 -265.736)" fill="#676767"/>
          <path id="Path_162708" data-name="Path 162708" d="M34.053,24.045H30.645a2.04,2.04,0,0,1-2.038-2.038V4.075a2.04,2.04,0,0,1,2.038-2.038H43.171a2.04,2.04,0,0,1,2.038,2.038v6.266a1.019,1.019,0,0,0,2.038,0V4.075A4.08,4.08,0,0,0,43.171,0H30.645A4.08,4.08,0,0,0,26.57,4.075V22.007a4.08,4.08,0,0,0,4.075,4.075h3.407a1.019,1.019,0,0,0,0-2.038Z" transform="translate(-26.57)" fill="#676767"/>
          <path id="Path_162709" data-name="Path 162709" d="M254.89,272.918a3.06,3.06,0,0,0-4.322,0l-5.594,5.581a1.019,1.019,0,0,0-.255.425l-1.218,4.01a1.019,1.019,0,0,0,1.247,1.278l4.112-1.139a1.018,1.018,0,0,0,.448-.261l5.582-5.571A3.06,3.06,0,0,0,254.89,272.918Zm-6.832,8.263-2.069.573.605-1.993,3.774-3.766,1.441,1.441Zm5.392-5.381-.2.2-1.441-1.441.2-.2a1.019,1.019,0,0,1,1.442,1.44Z" transform="translate(-232.408 -258.167)" fill="#ea4c89"/>
          <path id="Path_162710" data-name="Path 162710" d="M117.972,120H107.478a1.019,1.019,0,0,0,0,2.038h10.494a1.019,1.019,0,1,0,0-2.038Z" transform="translate(-102.389 -113.887)" fill="#676767"/>
        </g>
      </g>
    </g>
  </g>
</svg>
