<svg xmlns="http://www.w3.org/2000/svg" width="21.042" height="17.134" viewBox="0 0 21.042 17.134"><g transform="translate(-807.25 -256.75)"><path d="M4.954,5.25H20.588a2.707,2.707,0,0,1,2.7,2.7V19.679a2.707,2.707,0,0,1-2.7,2.7H4.954a2.707,2.707,0,0,1-2.7-2.7V7.954A2.707,2.707,0,0,1,4.954,5.25ZM20.588,20.884a1.206,1.206,0,0,0,1.2-1.2V7.954a1.206,1.206,0,0,0-1.2-1.2H4.954a1.206,1.206,0,0,0-1.2,1.2V19.679a1.206,1.206,0,0,0,1.2,1.2Z" transform="translate(805 251.5)" fill="#d4af37"/><path d="M12.771,16.59a.749.749,0,0,1-.43-.136L2.57,9.614a.75.75,0,1,1,.86-1.229l9.341,6.539,9.341-6.539a.75.75,0,1,1,.86,1.229L13.2,16.454A.749.749,0,0,1,12.771,16.59Z" transform="translate(805 252.5)" fill="#d4af37"/></g></svg>