<svg xmlns="http://www.w3.org/2000/svg" xmlns:xlink="http://www.w3.org/1999/xlink" width="210" height="210" viewBox="0 0 210 210">
  <defs>
    <filter id="Ellipse_1215" x="0" y="0" width="210" height="210" filterUnits="userSpaceOnUse">
      <feOffset dy="10" input="SourceAlpha"/>
      <feGaussianBlur stdDeviation="10" result="blur"/>
      <feFlood flood-color="#8a8a8a" flood-opacity="0.031"/>
      <feComposite operator="in" in2="blur"/>
      <feComposite in="SourceGraphic"/>
    </filter>
  </defs>
  <g id="Group_117899" data-name="Group 117899" transform="translate(-1004 -353)">
    <g id="Group_56326" data-name="Group 56326" transform="translate(1034 373)">
      <g id="Group_2519" data-name="Group 2519" transform="translate(0 0)">
        <g transform="matrix(1, 0, 0, 1, -30, -20)" filter="url(#Ellipse_1215)" style="mix-blend-mode: hard-light;isolation: isolate">
          <circle id="Ellipse_1215-2" data-name="Ellipse 1215" cx="75" cy="75" r="75" transform="translate(30 20)" fill="#ea4c89" opacity="0.06"/>
        </g>
        <g id="Group_116969" data-name="Group 116969" transform="translate(44 44)">
          <path id="Path_162310" data-name="Path 162310" d="M41.733,31.942A2.447,2.447,0,0,1,44.18,34.39v7.4a2.449,2.449,0,0,1-.872,1.874l-3.922,3.3a2.448,2.448,0,1,1-3.151-3.747l3.05-2.565V34.39a2.447,2.447,0,0,1,2.448-2.448Zm18.48-9.668a2.447,2.447,0,0,0-2.448,2.448v3.766A20.873,20.873,0,1,0,41.733,62.661,21.077,21.077,0,0,0,50.825,60.6c.048-.022.1-.043.142-.066l.039-.023c.329-.162.656-.33.977-.51a2.448,2.448,0,0,0-2.389-4.273,16,16,0,1,1-7.917-29.914,15.967,15.967,0,0,1,12.679,6.254H50.544a2.448,2.448,0,0,0,0,4.9h4.773a7.351,7.351,0,0,0,7.343-7.343v-4.9a2.447,2.447,0,0,0-2.448-2.448ZM58.464,50.045a2.448,2.448,0,1,0,.661,3.4,2.446,2.446,0,0,0-.661-3.4Zm4.112-7.567c-.016-.078-.035-.155-.058-.232s-.05-.152-.081-.225a2.369,2.369,0,0,0-.1-.217c-.038-.071-.078-.139-.122-.206a2.3,2.3,0,0,0-.143-.193,2.416,2.416,0,0,0-.34-.34,2.244,2.244,0,0,0-.194-.143,2.353,2.353,0,0,0-.206-.122c-.071-.038-.143-.072-.217-.1s-.15-.058-.225-.081-.156-.043-.233-.059a2.242,2.242,0,0,0-.239-.035,2.377,2.377,0,0,0-.481,0,2.224,2.224,0,0,0-.238.035,2.478,2.478,0,0,0-.458.14,2.241,2.241,0,0,0-.217.1,2.157,2.157,0,0,0-.206.122,2.044,2.044,0,0,0-.194.143,2.292,2.292,0,0,0-.179.162,2.216,2.216,0,0,0-.163.179,2.471,2.471,0,0,0-.264.4,2.369,2.369,0,0,0-.1.217c-.031.073-.057.149-.081.225s-.043.154-.059.232a2.446,2.446,0,0,0,0,.957c.016.077.036.155.059.232s.05.152.081.225a2.368,2.368,0,0,0,.1.217c.037.069.078.139.122.206a2.279,2.279,0,0,0,.142.193,2.215,2.215,0,0,0,.163.179,2.289,2.289,0,0,0,.179.162,2.225,2.225,0,0,0,.194.143,2.157,2.157,0,0,0,.206.122,2.242,2.242,0,0,0,.217.1,2.385,2.385,0,0,0,.225.081c.076.023.154.043.232.059a2.227,2.227,0,0,0,.238.035,2.259,2.259,0,0,0,.241.012,2.523,2.523,0,0,0,.479-.048c.077-.016.156-.035.233-.059s.152-.05.225-.081.145-.065.217-.1a2.352,2.352,0,0,0,.206-.122c.066-.044.132-.093.194-.143a2.416,2.416,0,0,0,.34-.34,2.294,2.294,0,0,0,.143-.193c.044-.066.084-.136.122-.206a2.368,2.368,0,0,0,.1-.217c.031-.073.057-.149.081-.225s.043-.155.058-.232a2.424,2.424,0,0,0,.036-.719A2.4,2.4,0,0,0,62.576,42.478Zm-42.5,15.287H9.79a4.9,4.9,0,0,1-4.9-4.9V14.686a4.9,4.9,0,0,1,4.9-4.9h3.06v2.448a2.448,2.448,0,1,0,4.9,0V9.791H28.76v2.448a2.448,2.448,0,1,0,4.9,0V9.791H44.792v2.448a2.448,2.448,0,1,0,4.9,0V9.791h3.182a4.9,4.9,0,0,1,4.9,4.9,2.448,2.448,0,0,0,4.9,0A9.8,9.8,0,0,0,52.869,4.9H49.687V2.448a2.448,2.448,0,1,0-4.9,0V4.9H33.655V2.448a2.448,2.448,0,1,0-4.9,0V4.9H17.745V2.448a2.448,2.448,0,1,0-4.9,0V4.9H9.79A9.8,9.8,0,0,0,0,14.686V52.87A9.8,9.8,0,0,0,9.79,62.66h10.28a2.448,2.448,0,1,0,0-4.9Zm0,0" fill="#ea4c89"/>
        </g>
      </g>
    </g>
    <g id="Ellipse_3559" data-name="Ellipse 3559" transform="translate(1121.425 389.498)" fill="none" stroke="#ea4c89" stroke-width="1.5" opacity="0.65">
      <circle cx="4.391" cy="4.391" r="4.391" stroke="none"/>
      <circle cx="4.391" cy="4.391" r="3.641" fill="none"/>
    </g>
    <g id="Ellipse_3560" data-name="Ellipse 3560" transform="translate(1163.817 458.217)" fill="#ea4c89" stroke="#ea4c89" stroke-width="1.5" opacity="0.65">
      <circle cx="2.696" cy="2.696" r="2.696" stroke="none"/>
      <circle cx="2.696" cy="2.696" r="1.946" fill="none"/>
    </g>
    <g id="close_2_" data-name="close (2)" transform="translate(1064.521 487.036) rotate(45)" opacity="0.65">
      <path id="Path_63956" data-name="Path 63956" d="M6.717,7.328a.608.608,0,0,1-.432-.179L.179,1.042A.611.611,0,1,1,1.042.179L7.149,6.285a.611.611,0,0,1-.432,1.042Zm0,0" transform="translate(0 0)" fill="#ea4c89" stroke="#ea4c89" stroke-width="1"/>
      <path id="Path_63957" data-name="Path 63957" d="M.611,7.328A.611.611,0,0,1,.179,6.285L6.285.179a.611.611,0,1,1,.863.863L1.042,7.149A.608.608,0,0,1,.611,7.328Zm0,0" fill="#ea4c89" stroke="#ea4c89" stroke-width="1"/>
    </g>
  </g>
</svg>
