<svg id="Group_115762" data-name="Group 115762" xmlns="http://www.w3.org/2000/svg" width="50" height="50" viewBox="0 0 50 50">
  <path id="Path_161756" data-name="Path 161756" d="M36.579,95.666l2.947-5.816A1.579,1.579,0,0,0,37.4,87.727l-5.775,2.959-4.584-4.61a1.577,1.577,0,0,0-2.675,1.362l1.015,6.446L19.6,96.847a1.582,1.582,0,0,0,.471,2.969l2.79.444-22,21.991A2.93,2.93,0,0,0,5,126.394L16.6,114.8a.977.977,0,1,0-1.381-1.382l-11.6,11.595a.978.978,0,0,1-1.669-.69.969.969,0,0,1,.286-.69l23.005-22.993,1.232.2.182,1.155L20.75,107.9a.977.977,0,1,0,1.38,1.382l4.9-4.9.457,2.9a1.576,1.576,0,0,0,2.964.469l2.944-5.811,6.4,1.02a1.581,1.581,0,0,0,1.365-2.677Zm-3.143,4.3a1.572,1.572,0,0,0-1.654.846l-2.542,5.016-.876-5.563a1.575,1.575,0,0,0-1.31-1.315l-5.548-.883L26.513,95.5a1.578,1.578,0,0,0,.84-1.654l-.877-5.569,3.96,3.982a1.57,1.57,0,0,0,1.835.292l4.994-2.559-2.549,5.03a1.58,1.58,0,0,0,.289,1.832l3.973,4Z" transform="translate(0 -77.251)" fill="#d4af37"/>
  <path id="Path_161757" data-name="Path 161757" d="M424.559,37.616a.977.977,0,0,0-1.381,0l-3.4,3.417a.977.977,0,0,0,1.385,1.377l3.4-3.417A.977.977,0,0,0,424.559,37.616Z" transform="translate(-378.529 -33.686)" fill="#ea4c89"/>
  <path id="Path_161758" data-name="Path 161758" d="M336.252,9.143a.976.976,0,0,0,1.117-.813l.376-2.387a.977.977,0,1,0-1.929-.3l-.376,2.387A.976.976,0,0,0,336.252,9.143Z" transform="translate(-302.67 -4.344)" fill="#ea4c89"/>
  <path id="Path_161759" data-name="Path 161759" d="M210.215,5.724a.977.977,0,1,0,1.742-.883L209.775.535a.977.977,0,1,0-1.742.883Z" transform="translate(-187.622 0)" fill="#ea4c89"/>
  <path id="Path_161760" data-name="Path 161760" d="M154.126,101.793l2.141,1.1a.977.977,0,1,0,.891-1.738l-2.141-1.1a.977.977,0,1,0-.891,1.738Z" transform="translate(-138.595 -90.187)" fill="#ea4c89"/>
  <path id="Path_161761" data-name="Path 161761" d="M382.7,318.177a.977.977,0,1,0-1.742.883l1.091,2.153a.977.977,0,1,0,1.742-.883Z" transform="translate(-343.661 -286.622)" fill="#ea4c89"/>
  <path id="Path_161762" data-name="Path 161762" d="M453.848,265.815l-4.283-2.194a.977.977,0,0,0-.891,1.738l4.283,2.194a.977.977,0,1,0,.891-1.738Z" transform="translate(-404.379 -237.78)" fill="#ea4c89"/>
  <path id="Path_161763" data-name="Path 161763" d="M462.341,154.494a.977.977,0,0,0,.963.823,1,1,0,0,0,.155-.012l2.374-.378a.977.977,0,0,0-.307-1.929l-2.374.378A.977.977,0,0,0,462.341,154.494Z" transform="translate(-417.18 -138.046)" fill="#ea4c89"/>
  <circle id="Ellipse_10000" data-name="Ellipse 10000" cx="0.977" cy="0.977" r="0.977" transform="translate(17.648 35.028) rotate(-87.822)" fill="#d4af37"/>
</svg>
