<svg xmlns="http://www.w3.org/2000/svg" width="14.344" height="16.884" viewBox="0 0 14.344 16.884"><g transform="translate(0.2 0.2)"><path d="M51.353,2.042a6.972,6.972,0,0,0-11.9,4.93c0,3.767,3.562,6.9,5.476,8.584.266.234.5.436.679.607a1.2,1.2,0,0,0,1.635,0c.183-.171.413-.373.679-.607,1.914-1.683,5.476-4.817,5.476-8.584A6.927,6.927,0,0,0,51.353,2.042ZM47.282,14.831c-.272.239-.506.446-.7.626a.233.233,0,0,1-.317,0c-.193-.181-.428-.387-.7-.626-1.8-1.583-5.148-4.529-5.148-7.859a6.006,6.006,0,0,1,12.013,0C52.429,10.3,49.081,13.249,47.282,14.831Z" transform="translate(-39.451)" fill="#d4af37"/><path d="M46.423-.2A7.172,7.172,0,0,1,53.6,6.972c0,3.858-3.606,7.03-5.544,8.734-.266.234-.494.434-.674.6a1.4,1.4,0,0,1-1.908,0c-.181-.169-.409-.37-.674-.6-1.937-1.7-5.544-4.877-5.544-8.734A7.172,7.172,0,0,1,46.423-.2Zm0,16.484a.994.994,0,0,0,.681-.267c.185-.173.415-.375.681-.609,1.892-1.664,5.41-4.759,5.41-8.436a6.772,6.772,0,0,0-13.544,0c0,3.677,3.518,6.772,5.408,8.434.267.235.5.438.683.611A.994.994,0,0,0,46.423,16.284Zm0-15.519a6.213,6.213,0,0,1,6.206,6.206c0,3.421-3.393,6.406-5.216,8.009-.27.237-.5.443-.7.622a.433.433,0,0,1-.59,0c-.191-.179-.425-.384-.7-.622-1.823-1.6-5.216-4.589-5.216-8.01A6.213,6.213,0,0,1,46.423.766Zm0,14.554a.032.032,0,0,0,.022-.008c.2-.184.432-.391.7-.63,1.775-1.562,5.08-4.469,5.08-7.709a5.806,5.806,0,0,0-11.613,0c0,3.24,3.3,6.147,5.08,7.709.273.24.509.448.7.63A.032.032,0,0,0,46.423,15.32Z" transform="translate(-39.451)" fill="#d4af37"/><g transform="translate(3.9 3.636)"><path d="M163.643,112.938a3.072,3.072,0,1,0,3.072,3.072A3.076,3.076,0,0,0,163.643,112.938Zm0,5.179a2.107,2.107,0,1,1,2.107-2.107A2.109,2.109,0,0,1,163.643,118.117Z" transform="translate(-160.57 -112.938)" fill="#d4af37"/><path d="M163.643,112.738a3.272,3.272,0,1,1-3.273,3.272A3.276,3.276,0,0,1,163.643,112.738Zm0,6.145a2.872,2.872,0,1,0-2.873-2.872A2.876,2.876,0,0,0,163.643,118.883Zm0-5.179a2.307,2.307,0,1,1-2.307,2.307A2.309,2.309,0,0,1,163.643,113.7Zm0,4.214a1.907,1.907,0,1,0-1.907-1.907A1.909,1.909,0,0,0,163.643,117.917Z" transform="translate(-160.57 -112.938)" fill="#d4af37"/></g></g></svg>