<svg xmlns="http://www.w3.org/2000/svg" xmlns:xlink="http://www.w3.org/1999/xlink" width="358" height="194" viewBox="0 0 358 194">
  <defs>
    <clipPath id="clip-path">
      <rect id="Rectangle_7221" data-name="Rectangle 7221" width="358" height="194" rx="12" transform="translate(-0.131)" fill="#08aaff"/>
    </clipPath>
  </defs>
  <g id="Mask_Group_12" data-name="Mask Group 12" transform="translate(0.131)" clip-path="url(#clip-path)">
    <g id="visa-1" transform="translate(201.312 102.067)" opacity="0.1">
      <g id="shapes" transform="translate(0 0)">
        <path id="mastercard" d="M131.818,18.471c-3.611,0-6.334-2.92-6.334-6.792s2.723-6.792,6.334-6.792a4.719,4.719,0,0,1,3.961,1.9V0h2.768V18.2h-2.768V16.572A4.394,4.394,0,0,1,131.818,18.471Zm.4-11c-2.254,0-3.828,1.731-3.828,4.21a3.844,3.844,0,1,0,7.652,0A3.9,3.9,0,0,0,132.217,7.469Zm-25.866,11c-3.611,0-6.334-2.92-6.334-6.792s2.723-6.792,6.334-6.792a4.719,4.719,0,0,1,3.961,1.9V5.162h2.768V18.2h-2.768V16.572A4.394,4.394,0,0,1,106.351,18.471Zm.4-11c-2.254,0-3.828,1.731-3.828,4.21a3.844,3.844,0,1,0,7.652,0A3.9,3.9,0,0,0,106.75,7.469Zm-12.536,11a6.4,6.4,0,0,1-6.729-6.792A6.916,6.916,0,0,1,98.7,6.384L97.382,8.7a5.2,5.2,0,0,0-3.3-1.226,3.973,3.973,0,0,0-3.828,4.21c0,2.521,1.538,4.215,3.828,4.215a5.223,5.223,0,0,0,3.3-1.226L98.7,16.979A6.428,6.428,0,0,1,94.214,18.471Zm-24.282,0c-3.866,0-6.463-2.729-6.463-6.792,0-4,2.6-6.792,6.334-6.792A5.482,5.482,0,0,1,73.851,6.51a7.188,7.188,0,0,1,1.754,5.307v1.089H66.241a3.608,3.608,0,0,0,3.824,3.121,6.155,6.155,0,0,0,3.7-1.359l1.318,2.041A7.851,7.851,0,0,1,69.932,18.471ZM69.8,7.336a3.379,3.379,0,0,0-3.433,3.121h6.6C72.712,8.476,71.559,7.336,69.8,7.336ZM58.323,18.471c-2.972,0-4.356-1.51-4.356-4.751V7.743H51.461V5.162h2.506V1.222H56.74v3.94h4.485V7.743H56.74v5.84c0,1.463.6,2.174,1.845,2.174a4.3,4.3,0,0,0,2.377-.682l.79,2.448A7.2,7.2,0,0,1,58.323,18.471Zm-14.647,0a9.059,9.059,0,0,1-5.412-1.629l1.322-2.174a7.1,7.1,0,0,0,4.223,1.359c1.762,0,2.9-.64,2.9-1.629,0-.639-.713-1.07-2.244-1.359l-1.318-.133c-2.89-.425-4.356-1.7-4.356-3.8,0-2.56,2.072-4.215,5.279-4.215a8.816,8.816,0,0,1,5.146,1.359L48.032,8.558a9.556,9.556,0,0,0-3.961-1.089c-1.486,0-2.373.559-2.373,1.5,0,.862,1.067,1.1,2.111,1.222l1.318.137c2.85.44,4.356,1.8,4.356,3.936C49.483,16.819,47.2,18.471,43.676,18.471Zm-14.647,0c-3.611,0-6.334-2.92-6.334-6.792s2.723-6.792,6.334-6.792a4.719,4.719,0,0,1,3.961,1.9V5.162h2.768V18.2H32.99V16.572A4.394,4.394,0,0,1,29.029,18.471Zm.266-11c-2.254,0-3.828,1.731-3.828,4.21a3.844,3.844,0,1,0,7.652,0A3.9,3.9,0,0,0,29.295,7.469ZM11.347,18.206h0l-2.768,0V11c0-2.222-.957-3.4-2.768-3.4-1.957,0-3.034,1.206-3.034,3.4v7.2H0V5.162H2.772V6.792a4.2,4.2,0,0,1,3.7-1.9A4.56,4.56,0,0,1,10.686,7.2a5.192,5.192,0,0,1,4.489-2.311c3.092,0,5.013,1.978,5.013,5.162V18.2l-3.034,0V11c0-2.222-.959-3.4-2.772-3.4-1.9,0-3.034,1.269-3.034,3.4v7.2Zm108.2,0h-2.772V5.162h2.772V6.792a3.722,3.722,0,0,1,3.3-1.9,8.385,8.385,0,0,1,1.845.137l-.79,2.718a7.653,7.653,0,0,0-1.717-.274c-1.7,0-2.639,1.206-2.639,3.4V18.2Zm-38.135,0H78.644V5.162h2.768V6.792a3.722,3.722,0,0,1,3.3-1.9,8.385,8.385,0,0,1,1.845.137l-.79,2.718a7.653,7.653,0,0,0-1.717-.274c-1.7,0-2.639,1.206-2.639,3.4V18.2Z" transform="translate(9.237 29.761)" fill="#fff"/>
        <rect id="middle" width="41.565" height="73.893" transform="translate(55.419 -12.83)" fill="#c3c0c0"/>
        <path id="red" d="M60.03,46.183a45.52,45.52,0,0,1,18.481-36.3A49.857,49.857,0,0,0,48.563,0C21.719,0,0,20.654,0,46.183S21.719,92.366,48.563,92.366a49.857,49.857,0,0,0,29.947-9.878A45.335,45.335,0,0,1,60.03,46.183Z" transform="translate(0 -22.067)" fill="#fff"/>
        <path id="orange" d="M78.511,46.183c0,25.529-21.719,46.183-48.563,46.183A49.857,49.857,0,0,1,0,82.488a45.143,45.143,0,0,0,18.481-36.3A45.52,45.52,0,0,0,0,9.878,49.857,49.857,0,0,1,29.947,0C56.792,0,78.511,20.782,78.511,46.183Z" transform="translate(78.511 -22.067)" fill="#e6e6e6"/>
      </g>
    </g>
  </g>
</svg>
