<svg id="Group_47652" data-name="Group 47652" xmlns="http://www.w3.org/2000/svg" width="26" height="26" viewBox="0 0 26 26">
  <circle id="Ellipse_1711" data-name="Ellipse 1711" cx="13" cy="13" r="13" fill="#ffbf10" opacity="0.1"/>
  <g id="morning" transform="translate(4.958 7.205)">
    <g id="Group_47649" data-name="Group 47649" transform="translate(0.974)">
      <g id="Group_47648" data-name="Group 47648">
        <path id="Path_64175" data-name="Path 64175" d="M38.068,108.827a4.242,4.242,0,0,0-3.673,6.362h7.346a4.242,4.242,0,0,0-3.673-6.362Zm0-.942a.471.471,0,0,0,.471-.471v-.942a.471.471,0,1,0-.942,0v.942A.471.471,0,0,0,38.068,107.885ZM32.414,112.6h-.942a.471.471,0,1,0,0,.942h.942a.471.471,0,1,0,0-.942Zm12.251,0h-.942a.471.471,0,1,0,0,.942h.942a.471.471,0,1,0,0-.942Zm-.476-3.063a.47.47,0,0,0-.644-.173l-.816.471a.471.471,0,1,0,.471.816l.816-.471A.471.471,0,0,0,44.189,109.534Zm-3.529-.955a.472.472,0,0,0,.644-.173l.471-.816a.471.471,0,1,0-.816-.471l-.471.816A.471.471,0,0,0,40.659,108.579Zm-5.827-.173a.471.471,0,0,0,.816-.471l-.471-.816a.471.471,0,1,0-.816.471Zm-1.426,1.426-.816-.471a.471.471,0,0,0-.471.816l.816.471a.471.471,0,1,0,.471-.816Z" transform="translate(-31 -106)" fill="#ffbf10"/>
      </g>
    </g>
    <g id="Group_47651" data-name="Group 47651" transform="translate(0 8.481)">
      <g id="Group_47650" data-name="Group 47650">
        <path id="Path_64176" data-name="Path 64176" d="M15.612,376H.471a.471.471,0,1,0,0,.942H15.612a.471.471,0,1,0,0-.942Z" transform="translate(0 -376)" fill="#ffbf10"/>
      </g>
    </g>
  </g>
</svg>
