<svg xmlns="http://www.w3.org/2000/svg" width="63.243" height="50.594" viewBox="0 0 63.243 50.594">
  <g id="Group_114663" data-name="Group 114663" transform="translate(0 -51.2)">
    <g id="Group_114665" data-name="Group 114665" transform="translate(0 51.2)">
      <g id="Group_114664" data-name="Group 114664">
        <g id="Group_114663-2" data-name="Group 114663">
          <path id="Path_77280" data-name="Path 77280" d="M324.661,147.9a1.055,1.055,0,0,0,1.482-.166l2.8-3.5.61,3.053a1.055,1.055,0,0,0,1.033.847,1,1,0,0,0,.208-.021,1.053,1.053,0,0,0,.826-1.24l-.852-4.261a3.163,3.163,0,1,0-3-.287l-3.277,4.1A1.053,1.053,0,0,0,324.661,147.9Zm4.875-9.256a1.054,1.054,0,1,1-1.054,1.054A1.055,1.055,0,0,1,329.536,138.641Z" transform="translate(-284.212 -125.993)" fill="#ea4c89"/>
          <path id="Path_77281" data-name="Path 77281" d="M59.027,57.524A4.2,4.2,0,0,0,56.385,65l-14.9,14.9-8.4-20.543a4.216,4.216,0,1,0-2.915,0L21.76,79.9,6.858,65a4.192,4.192,0,1,0-2.641.957c.051,0,.1-.014.148-.015L8.445,92.468a1.054,1.054,0,0,0,1.041.894H49.54a1.054,1.054,0,1,0,0-2.108H10.391L6.8,67.924,21.39,82.513a1.055,1.055,0,0,0,1.721-.347l8.51-20.8,8.51,20.8a1.055,1.055,0,0,0,1.721.347L56.441,67.924,52.715,92.148a.934.934,0,0,0,.071.5l-.072,7.034H10.54V96.524a1.054,1.054,0,0,0-2.108,0v4.216a1.054,1.054,0,0,0,1.054,1.054h44.27a1.054,1.054,0,0,0,1.054-1.044l.087-8.432a.833.833,0,0,0-.038-.253l4.019-26.123c.05,0,.1.015.148.015a4.216,4.216,0,1,0,0-8.432ZM4.216,63.849A2.108,2.108,0,1,1,6.324,61.74,2.11,2.11,0,0,1,4.216,63.849Zm25.3-8.432a2.108,2.108,0,1,1,2.108,2.108A2.111,2.111,0,0,1,29.513,55.416Zm29.513,8.432a2.108,2.108,0,1,1,2.108-2.108A2.11,2.11,0,0,1,59.027,63.849Z" transform="translate(0 -51.2)" fill="#d4af37"/>
          <path id="Path_77282" data-name="Path 77282" d="M121.394,142.605l-.853,4.261a1.054,1.054,0,0,0,.827,1.24.987.987,0,0,0,.208.021,1.053,1.053,0,0,0,1.032-.847l.611-3.053,2.8,3.5a1.054,1.054,0,1,0,1.646-1.315l-3.277-4.1a3.161,3.161,0,1,0-3,.287Zm1.235-3.964a1.054,1.054,0,1,1-1.054,1.054A1.055,1.055,0,0,1,122.629,138.641Z" transform="translate(-104.71 -125.993)" fill="#ea4c89"/>
        </g>
      </g>
    </g>
  </g>
</svg>
