<svg xmlns="http://www.w3.org/2000/svg" xmlns:xlink="http://www.w3.org/1999/xlink" width="210" height="210" viewBox="0 0 210 210">
  <defs>
    <filter id="Ellipse_1215" x="0" y="0" width="210" height="210" filterUnits="userSpaceOnUse">
      <feOffset dy="10" input="SourceAlpha"/>
      <feGaussianBlur stdDeviation="10" result="blur"/>
      <feFlood flood-color="#8a8a8a" flood-opacity="0.031"/>
      <feComposite operator="in" in2="blur"/>
      <feComposite in="SourceGraphic"/>
    </filter>
  </defs>
  <g id="ic_no_available_treatments" transform="translate(-1004 -353)">
    <g id="Group_56326" data-name="Group 56326" transform="translate(1034 373)">
      <g id="Group_2519" data-name="Group 2519" transform="translate(0 0)">
        <g transform="matrix(1, 0, 0, 1, -30, -20)" filter="url(#Ellipse_1215)" style="mix-blend-mode: hard-light;isolation: isolate">
          <circle id="Ellipse_1215-2" data-name="Ellipse 1215" cx="75" cy="75" r="75" transform="translate(30 20)" fill="#ea4c89" opacity="0.06"/>
        </g>
        <g id="Group_118374" data-name="Group 118374" transform="translate(44 44)">
          <g id="Group_118374-2" data-name="Group 118374" transform="translate(0)">
            <path id="Path_162726" data-name="Path 162726" d="M198.46,92.962a16.481,16.481,0,1,0-16.481-16.481A16.5,16.5,0,0,0,198.46,92.962Zm0-29.3a12.819,12.819,0,1,1-12.819,12.819A12.833,12.833,0,0,1,198.46,63.662Z" transform="translate(-159.763 -52.675)" fill="#ea4c89"/>
            <path id="Path_162727" data-name="Path 162727" d="M272.515,160.451a1.831,1.831,0,0,0,2.59,0l2.368-2.368,2.368,2.368a1.831,1.831,0,0,0,2.59-2.59l-2.368-2.368,2.368-2.368a1.831,1.831,0,0,0-2.59-2.59l-2.368,2.368-2.368-2.368a1.831,1.831,0,0,0-2.59,2.59l2.368,2.368-2.368,2.368A1.831,1.831,0,0,0,272.515,160.451Z" transform="translate(-238.775 -131.687)" fill="#ea4c89"/>
            <path id="Path_162728" data-name="Path 162728" d="M1.607,60.9a5.5,5.5,0,0,0,7.769,0L26.208,44.064A23.825,23.825,0,1,0,18.439,36.3L1.607,53.128a5.5,5.5,0,0,0,0,7.769ZM38.7,3.662A20.143,20.143,0,1,1,18.554,23.806,20.166,20.166,0,0,1,38.7,3.662ZM4.2,55.717,20.627,39.286a24.026,24.026,0,0,0,2.59,2.59L6.786,58.307a1.831,1.831,0,0,1-2.59-2.59Z" transform="translate(0)" fill="#ea4c89"/>
          </g>
        </g>
      </g>
    </g>
    <g id="Ellipse_3559" data-name="Ellipse 3559" transform="translate(1121.425 389.498)" fill="none" stroke="#ea4c89" stroke-width="1.5" opacity="0.65">
      <circle cx="4.391" cy="4.391" r="4.391" stroke="none"/>
      <circle cx="4.391" cy="4.391" r="3.641" fill="none"/>
    </g>
    <g id="Ellipse_3560" data-name="Ellipse 3560" transform="translate(1163.817 458.217)" fill="#ea4c89" stroke="#ea4c89" stroke-width="1.5" opacity="0.65">
      <circle cx="2.696" cy="2.696" r="2.696" stroke="none"/>
      <circle cx="2.696" cy="2.696" r="1.946" fill="none"/>
    </g>
    <g id="close_2_" data-name="close (2)" transform="translate(1064.521 487.036) rotate(45)" opacity="0.65">
      <path id="Path_63956" data-name="Path 63956" d="M6.717,7.328a.608.608,0,0,1-.432-.179L.179,1.042A.611.611,0,1,1,1.042.179L7.149,6.285a.611.611,0,0,1-.432,1.042Zm0,0" transform="translate(0 0)" fill="#ea4c89" stroke="#ea4c89" stroke-width="1"/>
      <path id="Path_63957" data-name="Path 63957" d="M.611,7.328A.611.611,0,0,1,.179,6.285L6.285.179a.611.611,0,1,1,.863.863L1.042,7.149A.608.608,0,0,1,.611,7.328Zm0,0" fill="#ea4c89" stroke="#ea4c89" stroke-width="1"/>
    </g>
  </g>
</svg>
