<svg xmlns="http://www.w3.org/2000/svg" xmlns:xlink="http://www.w3.org/1999/xlink" width="210" height="210" viewBox="0 0 210 210">
  <defs>
    <filter id="Ellipse_1215" x="0" y="0" width="210" height="210" filterUnits="userSpaceOnUse">
      <feOffset dy="10" input="SourceAlpha"/>
      <feGaussianBlur stdDeviation="10" result="blur"/>
      <feFlood flood-color="#8a8a8a" flood-opacity="0.031"/>
      <feComposite operator="in" in2="blur"/>
      <feComposite in="SourceGraphic"/>
    </filter>
  </defs>
  <g id="no_likes" transform="translate(4668 -15435)">
    <g id="Group_118377" data-name="Group 118377" transform="translate(-5672 15082)">
      <g id="Group_56326" data-name="Group 56326" transform="translate(1034 373)">
        <g id="Group_2519" data-name="Group 2519" transform="translate(0 0)">
          <g transform="matrix(1, 0, 0, 1, -30, -20)" filter="url(#Ellipse_1215)" style="mix-blend-mode: hard-light;isolation: isolate">
            <circle id="Ellipse_1215-2" data-name="Ellipse 1215" cx="75" cy="75" r="75" transform="translate(30 20)" fill="#ea4c89" opacity="0.06"/>
          </g>
        </g>
      </g>
      <g id="Ellipse_3559" data-name="Ellipse 3559" transform="translate(1121.425 389.498)" fill="none" stroke="#ea4c89" stroke-width="1.5" opacity="0.65">
        <circle cx="4.391" cy="4.391" r="4.391" stroke="none"/>
        <circle cx="4.391" cy="4.391" r="3.641" fill="none"/>
      </g>
      <g id="Ellipse_3560" data-name="Ellipse 3560" transform="translate(1163.817 458.217)" fill="#ea4c89" stroke="#ea4c89" stroke-width="1.5" opacity="0.65">
        <circle cx="2.696" cy="2.696" r="2.696" stroke="none"/>
        <circle cx="2.696" cy="2.696" r="1.946" fill="none"/>
      </g>
      <g id="close_2_" data-name="close (2)" transform="translate(1064.521 487.036) rotate(45)" opacity="0.65">
        <path id="Path_63956" data-name="Path 63956" d="M6.717,7.328a.608.608,0,0,1-.432-.179L.179,1.042A.611.611,0,1,1,1.042.179L7.149,6.285a.611.611,0,0,1-.432,1.042Zm0,0" transform="translate(0 0)" fill="#ea4c89" stroke="#ea4c89" stroke-width="1"/>
        <path id="Path_63957" data-name="Path 63957" d="M.611,7.328A.611.611,0,0,1,.179,6.285L6.285.179a.611.611,0,1,1,.863.863L1.042,7.149A.608.608,0,0,1,.611,7.328Zm0,0" fill="#ea4c89" stroke="#ea4c89" stroke-width="1"/>
      </g>
    </g>
    <g id="Group_118391" data-name="Group 118391" transform="translate(-4590 15484.217)">
      <g id="Group_118390" data-name="Group 118390" transform="translate(0 16.783)">
        <g id="Group_118389" data-name="Group 118389" transform="translate(0 0)">
          <g id="Group_118382" data-name="Group 118382" transform="translate(27.109 49.993)">
            <g id="Group_118381" data-name="Group 118381">
              <path id="Path_162741" data-name="Path 162741" d="M224.231,430.492a1.216,1.216,0,1,1,1.191-.978A1.227,1.227,0,0,1,224.231,430.492Z" transform="translate(-223.017 -428.064)" fill="#ea4c89" stroke="#ea4c89" stroke-width="1"/>
            </g>
          </g>
          <g id="Group_118384" data-name="Group 118384" transform="translate(0 20.279)">
            <g id="Group_118383" data-name="Group 118383">
              <path id="Path_162742" data-name="Path 162742" d="M21.794,221.487a1.214,1.214,0,0,1-.782-.285c-.632-.531-15.517-13.054-18.481-17.551a13.487,13.487,0,0,1-2.51-8.564A12.252,12.252,0,0,1,3.667,187a11.581,11.581,0,0,1,8.16-3.393c4.7,0,8.311,3.5,9.969,5.463,1.707-1.954,5.4-5.463,9.924-5.463A11.582,11.582,0,0,1,39.881,187a12.251,12.251,0,0,1,3.646,8.086,13.63,13.63,0,0,1-2.509,8.563c-.772,1.174-6.7,6.868-7.886,8a1.216,1.216,0,1,1-1.68-1.757c3.38-3.231,7.122-6.949,7.534-7.576a11.085,11.085,0,0,0,2.112-7.1,9.658,9.658,0,0,0-9.379-9.178c-4.885,0-8.911,5.641-8.951,5.7a1.216,1.216,0,0,1-2.007-.027c-.037-.055-3.847-5.67-8.935-5.67a9.657,9.657,0,0,0-9.379,9.178,11.207,11.207,0,0,0,2.112,7.1c2.414,3.663,14.179,13.77,17.27,16.4l1.75-1.341A1.216,1.216,0,0,1,25.06,219.3l-2.527,1.937a1.214,1.214,0,0,1-.74.251Z" transform="translate(0 -183.609)" fill="#ea4c89" stroke="#ea4c89" stroke-width="1"/>
            </g>
          </g>
          <g id="Group_118386" data-name="Group 118386" transform="translate(8.067)">
            <g id="Group_118385" data-name="Group 118385">
              <path id="Path_162743" data-name="Path 162743" d="M76.354,34.332a1.213,1.213,0,0,1-.782-.285c-.684-.574-6.719-5.668-8.016-7.636a6.548,6.548,0,0,1-1.184-4.073A5.8,5.8,0,0,1,72.1,16.783a6.22,6.22,0,0,1,4.252,2,6.279,6.279,0,0,1,4.232-2,5.8,5.8,0,0,1,5.732,5.556,6.558,6.558,0,0,1-1.183,4.072c-1.305,1.985-7.318,7.064-8,7.637a1.211,1.211,0,0,1-.782.285ZM72.1,19.214a3.414,3.414,0,0,0-3.3,3.254,4.074,4.074,0,0,0,.787,2.606c.756,1.146,4.208,4.263,6.767,6.449,2.55-2.181,5.99-5.292,6.751-6.448a4.083,4.083,0,0,0,.787-2.606,3.414,3.414,0,0,0-3.3-3.254c-1.425,0-2.858,1.58-3.247,2.134a1.216,1.216,0,0,1-2.007-.027c-.393-.584-1.746-2.107-3.23-2.107Z" transform="translate(-66.363 -16.783)" fill="#ea4c89" stroke="#ea4c89" stroke-width="1"/>
            </g>
          </g>
          <g id="Group_118388" data-name="Group 118388" transform="translate(33.258 1.37)">
            <g id="Group_118387" data-name="Group 118387">
              <path id="Path_162744" data-name="Path 162744" d="M288.1,53.375a1.213,1.213,0,0,1-.782-.285c-1.028-.864-10.1-8.52-12.016-11.426a9.321,9.321,0,0,1-1.691-5.79A8.341,8.341,0,0,1,276.1,30.37a7.906,7.906,0,0,1,5.571-2.315c2.923,0,5.213,1.963,6.442,3.313,1.26-1.343,3.587-3.313,6.4-3.313a7.906,7.906,0,0,1,5.572,2.315,8.34,8.34,0,0,1,2.482,5.5,9.206,9.206,0,0,1-1.69,5.789c-1.96,2.981-11.583,11.083-11.992,11.427A1.213,1.213,0,0,1,288.1,53.375Zm-6.435-22.889A5.8,5.8,0,0,0,276.043,36a6.747,6.747,0,0,0,1.294,4.322c1.333,2.023,7.627,7.566,10.767,10.24,3.13-2.668,9.4-8.2,10.743-10.239A6.761,6.761,0,0,0,300.14,36a5.8,5.8,0,0,0-5.626-5.518c-2.914,0-5.4,3.463-5.429,3.5a1.218,1.218,0,0,1-.992.513h-.019a1.216,1.216,0,0,1-.995-.542c-.022-.032-2.361-3.469-5.411-3.469Z" transform="translate(-273.602 -28.055)" fill="#ea4c89" stroke="#ea4c89" stroke-width="1"/>
            </g>
          </g>
        </g>
      </g>
    </g>
  </g>
</svg>
