<svg xmlns="http://www.w3.org/2000/svg" xmlns:xlink="http://www.w3.org/1999/xlink" width="210" height="210" viewBox="0 0 210 210">
  <defs>
    <filter id="Ellipse_1215" x="0" y="0" width="210" height="210" filterUnits="userSpaceOnUse">
      <feOffset dy="10" input="SourceAlpha"/>
      <feGaussianBlur stdDeviation="10" result="blur"/>
      <feFlood flood-color="#8a8a8a" flood-opacity="0.031"/>
      <feComposite operator="in" in2="blur"/>
      <feComposite in="SourceGraphic"/>
    </filter>
  </defs>
  <g id="ic_no_payment__history" data-name="ic_no_payment _history" transform="translate(4943 -15435)">
    <g id="Group_118372" data-name="Group 118372" transform="translate(-5947 15082)">
      <g id="Group_56326" data-name="Group 56326" transform="translate(1034 373)">
        <g id="Group_2519" data-name="Group 2519" transform="translate(0 0)">
          <g transform="matrix(1, 0, 0, 1, -30, -20)" filter="url(#Ellipse_1215)" style="mix-blend-mode: hard-light;isolation: isolate">
            <circle id="Ellipse_1215-2" data-name="Ellipse 1215" cx="75" cy="75" r="75" transform="translate(30 20)" fill="#ea4c89" opacity="0.06"/>
          </g>
        </g>
      </g>
      <g id="Ellipse_3559" data-name="Ellipse 3559" transform="translate(1121.425 389.498)" fill="none" stroke="#ea4c89" stroke-width="1.5" opacity="0.65">
        <circle cx="4.391" cy="4.391" r="4.391" stroke="none"/>
        <circle cx="4.391" cy="4.391" r="3.641" fill="none"/>
      </g>
      <g id="Ellipse_3560" data-name="Ellipse 3560" transform="translate(1163.817 458.217)" fill="#ea4c89" stroke="#ea4c89" stroke-width="1.5" opacity="0.65">
        <circle cx="2.696" cy="2.696" r="2.696" stroke="none"/>
        <circle cx="2.696" cy="2.696" r="1.946" fill="none"/>
      </g>
      <g id="close_2_" data-name="close (2)" transform="translate(1064.521 487.036) rotate(45)" opacity="0.65">
        <path id="Path_63956" data-name="Path 63956" d="M6.717,7.328a.608.608,0,0,1-.432-.179L.179,1.042A.611.611,0,1,1,1.042.179L7.149,6.285a.611.611,0,0,1-.432,1.042Zm0,0" transform="translate(0 0)" fill="#ea4c89" stroke="#ea4c89" stroke-width="1"/>
        <path id="Path_63957" data-name="Path 63957" d="M.611,7.328A.611.611,0,0,1,.179,6.285L6.285.179a.611.611,0,1,1,.863.863L1.042,7.149A.608.608,0,0,1,.611,7.328Zm0,0" fill="#ea4c89" stroke="#ea4c89" stroke-width="1"/>
      </g>
    </g>
    <g id="Group_118379" data-name="Group 118379" transform="translate(193.088 15.906)">
      <g id="Group_118378" data-name="Group 118378" transform="translate(-5062.405 15478.281)">
        <path id="Path_162736" data-name="Path 162736" d="M148.513,128.533a19.98,19.98,0,1,0,19.98,19.98A20,20,0,0,0,148.513,128.533Zm0,35.258a15.278,15.278,0,1,1,15.278-15.278A15.3,15.3,0,0,1,148.513,163.791Z" transform="translate(-117.196 -112.7)" fill="#ea4c89"/>
        <path id="Path_162737" data-name="Path 162737" d="M216.023,4.5l.92-.92A2.1,2.1,0,1,0,213.976.614l-4.5,4.5a2.1,2.1,0,0,0,0,2.967l4.5,4.5A2.1,2.1,0,0,0,216.943,9.6l-.906-.906A27.152,27.152,0,0,1,242.58,35.813a2.1,2.1,0,1,0,4.2,0A31.353,31.353,0,0,0,216.023,4.5Z" transform="translate(-184.143 0)" fill="#ea4c89"/>
        <path id="Path_162739" data-name="Path 162739" d="M64.935,266.338a2.1,2.1,0,1,0-2.968,2.968l.906.906A27.151,27.151,0,0,1,36.331,243.1a2.1,2.1,0,0,0-4.2,0,31.353,31.353,0,0,0,30.754,31.31l-.92.92a2.1,2.1,0,1,0,2.967,2.968l4.5-4.5a2.1,2.1,0,0,0,0-2.967Z" transform="translate(-32.134 -207.286)" fill="#ea4c89"/>
      </g>
      <path id="Path_162740" data-name="Path 162740" d="M15.309-35.369v2.229H4.21l-.479-1.486a8.007,8.007,0,0,0,1.486-2.145A6.461,6.461,0,0,0,5.7-39.42a4.545,4.545,0,0,0-.12-1.007H2.94V-42.32H4.977a9.228,9.228,0,0,1-.5-2.924,4.962,4.962,0,0,1,1.51-3.823,5.648,5.648,0,0,1,4-1.4A4.911,4.911,0,0,1,13.8-49.032a5.4,5.4,0,0,1,1.366,3.667H12.672A2.974,2.974,0,0,0,12-47.414a2.571,2.571,0,0,0-2.026-.755,2.964,2.964,0,0,0-2.133.743,2.761,2.761,0,0,0-.779,2.1,9.6,9.6,0,0,0,.551,3.008h4.65v1.894h-4.1a4.867,4.867,0,0,1,.12,1.031,5.671,5.671,0,0,1-1.606,4.027Z" transform="translate(-5040.211 15555.898)" fill="#ea4c89" stroke="#ea4c89" stroke-width="1"/>
    </g>
  </g>
</svg>
