<svg xmlns="http://www.w3.org/2000/svg" xmlns:xlink="http://www.w3.org/1999/xlink" width="210" height="210" viewBox="0 0 210 210">
  <defs>
    <filter id="Ellipse_1215" x="0" y="0" width="210" height="210" filterUnits="userSpaceOnUse">
      <feOffset dy="10" input="SourceAlpha"/>
      <feGaussianBlur stdDeviation="10" result="blur"/>
      <feFlood flood-color="#8a8a8a" flood-opacity="0.031"/>
      <feComposite operator="in" in2="blur"/>
      <feComposite in="SourceGraphic"/>
    </filter>
  </defs>
  <g id="ic_no_reviews" transform="translate(-1004 -353)">
    <g id="Group_56326" data-name="Group 56326" transform="translate(1034 373)">
      <g id="Group_2519" data-name="Group 2519" transform="translate(0 0)">
        <g transform="matrix(1, 0, 0, 1, -30, -20)" filter="url(#Ellipse_1215)" style="mix-blend-mode: hard-light;isolation: isolate">
          <circle id="Ellipse_1215-2" data-name="Ellipse 1215" cx="75" cy="75" r="75" transform="translate(30 20)" fill="#ea4c89" opacity="0.06"/>
        </g>
        <g id="Group_118373" data-name="Group 118373" transform="translate(46.842 39.69)">
          <path id="Path_162722" data-name="Path 162722" d="M349.528,73.949l-4.067-.591-1.819-3.685a1.675,1.675,0,0,0-3,0l-1.819,3.685-4.067.591a1.675,1.675,0,0,0-.928,2.856l2.943,2.868-.695,4.05a1.675,1.675,0,0,0,2.43,1.765l3.637-1.912,3.637,1.912a1.675,1.675,0,0,0,2.43-1.765l-.695-4.05,2.943-2.868a1.675,1.675,0,0,0-.928-2.856Zm-3.544,4.409a1.676,1.676,0,0,0-.482,1.482l.61,3.554-3.192-1.678a1.674,1.674,0,0,0-1.559,0l-3.191,1.678.609-3.554a1.674,1.674,0,0,0-.482-1.482l-2.582-2.517,3.568-.518a1.675,1.675,0,0,0,1.261-.916l1.6-3.233,1.6,3.233a1.676,1.676,0,0,0,1.261.916l3.568.518Zm0,0" transform="translate(-288.648 -59.527)" fill="#ea4c89" stroke="#ea4c89" stroke-width="1.2"/>
          <path id="Path_162723" data-name="Path 162723" d="M7.881,69.673,6.062,73.358,2,73.949a1.675,1.675,0,0,0-.928,2.856L4.01,79.674l-.695,4.05a1.675,1.675,0,0,0,2.43,1.766l3.638-1.912L13.02,85.49a1.675,1.675,0,0,0,2.43-1.765l-.695-4.05L17.7,76.806a1.675,1.675,0,0,0-.928-2.857L12.7,73.358l-1.819-3.685a1.675,1.675,0,0,0-3,0Zm3.1,4.733a1.676,1.676,0,0,0,1.261.916l3.568.518-2.581,2.517a1.674,1.674,0,0,0-.482,1.483l.609,3.554-3.191-1.677a1.673,1.673,0,0,0-1.558,0L5.411,83.394l.61-3.554a1.675,1.675,0,0,0-.482-1.483L2.958,75.841l3.568-.519a1.673,1.673,0,0,0,1.261-.916l1.6-3.233Zm0,0" transform="translate(-0.485 -59.527)" fill="#ea4c89" stroke="#ea4c89" stroke-width="1.2"/>
          <path id="Path_162724" data-name="Path 162724" d="M13.845,248.806a.481.481,0,0,1-.48.481H10.274a1.005,1.005,0,0,0,0,2.01h3.092a2.493,2.493,0,0,0,2.451-2.064h.714c3.509,0,3.408,4.117,8.951,4.117H43.117a3.875,3.875,0,0,0,2.845-6.507,3.836,3.836,0,0,0,.658-5.66,3.853,3.853,0,0,0,.533-6.007,3.878,3.878,0,0,0-2.487-6.847H33.414c1.661-5.07,1.61-4.659,1.61-10.6a4.4,4.4,0,0,0-8.767-.577c-.722,5.461-1.6,6.028-5.386,9.678a5.49,5.49,0,0,1-3.826,1.543H15.723a2.493,2.493,0,0,0-2.358-1.695H2.491A2.493,2.493,0,0,0,0,229.163v19.643a2.493,2.493,0,0,0,2.491,2.49H5.582a1.005,1.005,0,1,0,0-2.01H2.491a.481.481,0,0,1-.481-.48V229.163a.481.481,0,0,1,.481-.48H13.365a.48.48,0,0,1,.48.48Zm2.01-18.429h1.19a7.492,7.492,0,0,0,5.22-2.1c4-3.855,5.181-4.781,5.984-10.862a2.392,2.392,0,0,1,4.763.313c0,5.865.1,5.058-1.732,10.654a1.5,1.5,0,0,0,1.421,1.961H44.666a1.866,1.866,0,1,1,0,3.731c-1.789,0,2.7,0-4.81,0a1.005,1.005,0,1,0,0,2.01H44.43a1.888,1.888,0,1,1-.034,3.775c-2.32,0,.7,0-4.538,0a1.005,1.005,0,1,0,0,2.01c6.95,0,1.292,0,3.841,0a1.865,1.865,0,0,1,1.865,1.931,1.92,1.92,0,0,1-1.94,1.8s-.127,0-3.765,0a1.005,1.005,0,0,0,0,2.01H43.14a1.866,1.866,0,0,1-.023,3.731H25.481c-4.672,0-4.25-4.117-8.949-4.117h-.676Zm0,0" transform="translate(0 -184.731)" fill="#ea4c89" stroke="#ea4c89" stroke-width="1.2"/>
          <path id="Path_162725" data-name="Path 162725" d="M152.653,14.007a1.005,1.005,0,0,0,1.4,1.44l3.559-3.469a2.088,2.088,0,0,0-1.157-3.561l-6.858-1a.076.076,0,0,1-.058-.042l-3.067-6.214a2.088,2.088,0,0,0-3.744,0l-3.067,6.214a.076.076,0,0,1-.058.042l-6.858,1a2.089,2.089,0,0,0-1.157,3.561l4.962,4.837a.078.078,0,0,1,.023.069l-1.172,6.83a2.088,2.088,0,0,0,3.029,2.2l6.134-3.225a.077.077,0,0,1,.072,0l6.134,3.225a2.088,2.088,0,0,0,3.029-2.2l-.766-4.465a1,1,0,1,0-1.981.34l.766,4.465a.067.067,0,0,1-.031.076.066.066,0,0,1-.081.006l-6.134-3.225a2.088,2.088,0,0,0-1.943,0L137.5,24.135a.066.066,0,0,1-.081-.006.067.067,0,0,1-.031-.076l1.172-6.83a2.086,2.086,0,0,0-.6-1.848L133,10.539a.078.078,0,0,1,.043-.132l6.858-1a2.09,2.09,0,0,0,1.572-1.142l3.067-6.215a.066.066,0,0,1,.069-.043.067.067,0,0,1,.07.043l3.067,6.214a2.085,2.085,0,0,0,1.572,1.142l6.858,1a.066.066,0,0,1,.062.052.067.067,0,0,1-.019.08Zm0,0" transform="translate(-113.408 0)" fill="#ea4c89" stroke="#ea4c89" stroke-width="1.2"/>
        </g>
      </g>
    </g>
    <g id="Ellipse_3559" data-name="Ellipse 3559" transform="translate(1121.425 389.498)" fill="none" stroke="#ea4c89" stroke-width="1.5" opacity="0.65">
      <circle cx="4.391" cy="4.391" r="4.391" stroke="none"/>
      <circle cx="4.391" cy="4.391" r="3.641" fill="none"/>
    </g>
    <g id="Ellipse_3560" data-name="Ellipse 3560" transform="translate(1163.817 458.217)" fill="#ea4c89" stroke="#ea4c89" stroke-width="1.5" opacity="0.65">
      <circle cx="2.696" cy="2.696" r="2.696" stroke="none"/>
      <circle cx="2.696" cy="2.696" r="1.946" fill="none"/>
    </g>
    <g id="close_2_" data-name="close (2)" transform="translate(1064.521 487.036) rotate(45)" opacity="0.65">
      <path id="Path_63956" data-name="Path 63956" d="M6.717,7.328a.608.608,0,0,1-.432-.179L.179,1.042A.611.611,0,1,1,1.042.179L7.149,6.285a.611.611,0,0,1-.432,1.042Zm0,0" transform="translate(0 0)" fill="#ea4c89" stroke="#ea4c89" stroke-width="1"/>
      <path id="Path_63957" data-name="Path 63957" d="M.611,7.328A.611.611,0,0,1,.179,6.285L6.285.179a.611.611,0,1,1,.863.863L1.042,7.149A.608.608,0,0,1,.611,7.328Zm0,0" fill="#ea4c89" stroke="#ea4c89" stroke-width="1"/>
    </g>
  </g>
</svg>
