<svg xmlns="http://www.w3.org/2000/svg" width="50.501" height="50.56" viewBox="0 0 50.501 50.56">
  <g id="Group_114662" data-name="Group 114662" transform="translate(-0.299)">
    <g id="Group_114661" data-name="Group 114661" transform="translate(0.299)">
      <g id="Group_114660" data-name="Group 114660">
        <g id="Group_114659" data-name="Group 114659">
          <path id="Path_77277" data-name="Path 77277" d="M284.166,311.047a.841.841,0,0,0-1.153.3l-9.662,16.48a2.523,2.523,0,0,1-3.417.948l-1.882-1.22a.843.843,0,1,0-.917,1.414l1.919,1.242a4.216,4.216,0,0,0,5.754-1.538l9.659-16.476A.842.842,0,0,0,284.166,311.047Z" transform="translate(-240.429 -280.217)" fill="#d4af37"/>
          <path id="Path_77278" data-name="Path 77278" d="M46.586,0H33.1a8.5,8.5,0,0,0-6.5,2.776.843.843,0,0,0,1.192,1.192,6.786,6.786,0,0,1,5.3-2.282H46.586a2.532,2.532,0,0,1,2.529,2.529V17.7a6.783,6.783,0,0,1-2.283,5.3L21.8,48.075a2.59,2.59,0,0,1-3.576,0l-15.5-15.5a2.529,2.529,0,0,1,0-3.576L25.351,6.408c.348.089.7.177,1.059.274A64.216,64.216,0,0,1,34.561,9.4,5.05,5.05,0,1,0,39,6.743a.843.843,0,0,0,0,1.686,3.379,3.379,0,1,1-2.9,1.656,10.83,10.83,0,0,1,2.734,1.664,4.066,4.066,0,0,1-.753.124.843.843,0,0,0,.073,1.683c.024,0,.05,0,.075,0,.518-.046,2.1-.185,2.4-1.316.83-3.1-11.336-6.528-13.783-7.184A62.126,62.126,0,0,0,16.721,3.121c-3.423-.3-5.09.09-5.4,1.262-.15.562-.55,2.055,6.284,4.75a.843.843,0,1,0,.618-1.568c-3.3-1.3-4.67-2.257-5.108-2.706,1.039-.305,4.594-.217,10.318,1.085L1.534,27.809a4.214,4.214,0,0,0,0,5.96l15.5,15.5a4.214,4.214,0,0,0,5.96,0L48.024,24.2A8.5,8.5,0,0,0,50.8,17.7V4.215A4.219,4.219,0,0,0,46.586,0Z" transform="translate(-0.299)" fill="#d4af37"/>
          <text id="_" data-name="£" transform="translate(18.05 33.556) rotate(45)" fill="#ea4c89" stroke="#fff" stroke-width="0.3" font-size="24" font-family="Axiforma-Medium, Axiforma" font-weight="500" letter-spacing="0.01em"><tspan x="-6.912" y="0">£</tspan></text>
        </g>
      </g>
    </g>
  </g>
</svg>
