<svg id="Group_115180" data-name="Group 115180" xmlns="http://www.w3.org/2000/svg" width="42.188" height="42.188" viewBox="0 0 42.188 42.188">
  <path id="Path_121018" data-name="Path 121018" d="M246.564,492a.824.824,0,1,0,.582.241A.83.83,0,0,0,246.564,492Z" transform="translate(-225.492 -451.46)" fill="#d4af37"/>
  <path id="Path_121019" data-name="Path 121019" d="M37.784,123.7l-2.749-.657v-1.09a5.438,5.438,0,0,0,2.542-4.6v-3.071a5.435,5.435,0,0,0-9.507-3.6,7.264,7.264,0,0,0-6.968-5.242h0a7.264,7.264,0,0,0-6.972,5.257,5.435,5.435,0,0,0-9.52,3.588v3.071a5.438,5.438,0,0,0,2.542,4.6v1.09L4.4,123.7A5.717,5.717,0,0,0,0,129.278v5.539a.824.824,0,0,0,.824.824H7.413v2.472a.824.824,0,0,0,.824.824h9.039a.824.824,0,1,0,0-1.648H13.6v-3.626a.824.824,0,0,0-1.648,0v3.626H9.061v-3.718a6,6,0,0,1,4.615-5.852l4.053-.971,2.608,5.932a.824.824,0,0,0,.754.492h0a.824.824,0,0,0,.754-.492l2.6-5.924,4.041.965a6,6,0,0,1,4.62,5.853v.919a.825.825,0,0,0,0,.644v2.15H30.238v-3.626a.824.824,0,0,0-1.648,0v3.626H24.555a.824.824,0,1,0,0,1.648h9.379a.824.824,0,0,0,.824-.824v-2.472h6.606a.824.824,0,0,0,.824-.824v-5.539A5.717,5.717,0,0,0,37.784,123.7Zm-4.395.038-1.258,3.012-1.241-2.973a.823.823,0,0,0,.006-.09c0-.008,0-.015,0-.023v-1.018a5.4,5.4,0,0,0,2.492,0v1.048C33.388,123.708,33.389,123.722,33.389,123.737Zm-16.007.662a5.722,5.722,0,0,0-1.684-.7l-2.758-.661v-1.081a5.477,5.477,0,0,0,1.7-1.7,7.3,7.3,0,0,0,2.739,2.929ZM15.5,116.965v-1.906h2.318a7.864,7.864,0,0,0,5.569-2.3L26.7,114.7v2.455a5.6,5.6,0,0,1-11.2-.193Zm9.3,6.237a7.3,7.3,0,0,0,2.758-2.93,5.481,5.481,0,0,0,1.694,1.683v1.081l-2.758.661a5.723,5.723,0,0,0-1.693.708v-1.2Zm7.343-2.059a3.8,3.8,0,0,1-3.79-3.79v-.134c0-.084,0-2.216,0-2.216a11.829,11.829,0,0,0,5.219,1.214h2.357v1.136A3.8,3.8,0,0,1,32.139,121.143Zm0-10.651a3.8,3.8,0,0,1,3.79,3.79v.287H33.573a10.181,10.181,0,0,1-5.071-1.353A3.8,3.8,0,0,1,32.139,110.492Zm-16.64,2.2a5.6,5.6,0,0,1,11.206,0v.107L23.647,111a.824.824,0,0,0-1.049.181,6.223,6.223,0,0,1-4.781,2.231H15.5Zm-9.241,1.594a3.791,3.791,0,0,1,7.428-1.067,10.181,10.181,0,0,1-5.071,1.353H6.258v-.287Zm0,1.935H8.615A11.829,11.829,0,0,0,13.839,115v2.352a3.79,3.79,0,0,1-7.581,0S6.258,116.217,6.258,116.217Zm3.79,6.574a5.434,5.434,0,0,0,1.243-.145v.995c0,.015,0,.031,0,.046s0,.052,0,.078l-1.247,2.985-1.251-3c0-.02,0-.039,0-.059v-1.048A5.435,5.435,0,0,0,10.049,122.791Zm-2.636,10.78v.422H4.944v-3.661a.824.824,0,0,0-1.648,0v3.661H1.648v-4.715A4.075,4.075,0,0,1,4.786,125.3l2.612-.624,1.7,4.083A7.649,7.649,0,0,0,7.413,133.571Zm5.879-7.455a7.746,7.746,0,0,0-1.393.479l.8-1.922,2.612.626a4.077,4.077,0,0,1,.591.191Zm7.8,4.185-2.061-4.688v-1.7a7.256,7.256,0,0,0,4.118.008v1.7Zm5.177-4.8a4.091,4.091,0,0,1,.606-.2l2.606-.624.806,1.93a7.744,7.744,0,0,0-1.412-.486Zm14.272,8.5H38.892v-3.661a.824.824,0,0,0-1.648,0v3.661H34.758v-.418a7.649,7.649,0,0,0-1.685-4.8l1.71-4.094,2.618.625a4.075,4.075,0,0,1,3.138,3.976Z" transform="translate(0 -96.749)" fill="#d4af37"/>
  <path id="Path_121020" data-name="Path 121020" d="M213.284,231.25a.824.824,0,1,0,.583.241A.83.83,0,0,0,213.284,231.25Z" transform="translate(-194.954 -212.196)" fill="#d4af37"/>
  <path id="Path_121021" data-name="Path 121021" d="M280.154,232.9a.824.824,0,1,0-.583-.241A.829.829,0,0,0,280.154,232.9Z" transform="translate(-256.314 -212.196)" fill="#d4af37"/>
  <path id="Path_121022" data-name="Path 121022" d="M236.763,265.155a.824.824,0,0,0-1.165,0,.626.626,0,0,1-.884,0,.824.824,0,0,0-1.165,1.165,2.275,2.275,0,0,0,3.214,0A.824.824,0,0,0,236.763,265.155Z" transform="translate(-214.083 -243.085)" fill="#d4af37"/>
  <path id="Path_121023" data-name="Path 121023" d="M397.444,55.648h.565a.824.824,0,0,0,0-1.648h-.565a.824.824,0,0,0,0,1.648Z" transform="translate(-363.939 -49.551)" fill="#ea4c89"/>
  <path id="Path_121024" data-name="Path 121024" d="M445.965,55.648h.565a.824.824,0,0,0,0-1.648h-.565a.824.824,0,0,0,0,1.648Z" transform="translate(-408.462 -49.551)" fill="#ea4c89"/>
  <path id="Path_121025" data-name="Path 121025" d="M425.135,77.044a.824.824,0,0,0,.824-.824v-.565a.824.824,0,0,0-1.648,0v.565A.824.824,0,0,0,425.135,77.044Z" transform="translate(-389.349 -68.665)" fill="#ea4c89"/>
  <path id="Path_121026" data-name="Path 121026" d="M425.135,28.523a.824.824,0,0,0,.824-.824v-.565a.824.824,0,0,0-1.648,0V27.7A.824.824,0,0,0,425.135,28.523Z" transform="translate(-389.349 -24.142)" fill="#ea4c89"/>
  <path id="Path_121027" data-name="Path 121027" d="M40.268,55.648h.565a.824.824,0,0,0,0-1.648h-.565a.824.824,0,0,0,0,1.648Z" transform="translate(-36.194 -49.551)" fill="#ea4c89"/>
  <path id="Path_121028" data-name="Path 121028" d="M88.789,55.648h.565a.824.824,0,1,0,0-1.648h-.565a.824.824,0,0,0,0,1.648Z" transform="translate(-80.717 -49.551)" fill="#ea4c89"/>
  <path id="Path_121029" data-name="Path 121029" d="M67.958,77.044a.824.824,0,0,0,.824-.824v-.565a.824.824,0,0,0-1.648,0v.565A.824.824,0,0,0,67.958,77.044Z" transform="translate(-61.602 -68.665)" fill="#ea4c89"/>
  <path id="Path_121030" data-name="Path 121030" d="M67.958,28.523a.824.824,0,0,0,.824-.824v-.565a.824.824,0,0,0-1.648,0V27.7A.824.824,0,0,0,67.958,28.523Z" transform="translate(-61.602 -24.142)" fill="#ea4c89"/>
  <path id="Path_121031" data-name="Path 121031" d="M246.824,41.9a.824.824,0,0,0,.824-.824V38.911a.824.824,0,1,0-1.648,0v2.168A.824.824,0,0,0,246.824,41.9Z" transform="translate(-225.73 -34.949)" fill="#ea4c89"/>
  <path id="Path_121032" data-name="Path 121032" d="M246.824,1.648a.824.824,0,0,0,.824-.824.824.824,0,1,0-1.407.583A.83.83,0,0,0,246.824,1.648Z" transform="translate(-225.73 0)" fill="#ea4c89"/>
  <path id="Path_121033" data-name="Path 121033" d="M190.7,25.169A.824.824,0,0,0,191.862,24L190.656,22.8a.824.824,0,1,0-1.165,1.165Z" transform="translate(-173.656 -20.698)" fill="#ea4c89"/>
  <path id="Path_121034" data-name="Path 121034" d="M288.449,24.9a.821.821,0,0,0,.583-.241l1.246-1.246a.824.824,0,1,0-1.165-1.165l-1.246,1.246a.824.824,0,0,0,.583,1.407Z" transform="translate(-263.926 -20.193)" fill="#ea4c89"/>
</svg>
