<svg xmlns="http://www.w3.org/2000/svg" width="65.292" height="60.405" viewBox="0 0 65.292 60.405">
  <g id="Group_117842" data-name="Group 117842" transform="translate(-940 -455)">
    <path id="Path_162656" data-name="Path 162656" d="M35.3,36H27.651A7.651,7.651,0,0,0,20,43.651v10.2h7.651v-10.2A7.651,7.651,0,0,1,35.3,36Z" transform="translate(922.551 421.55)" fill="#ea4c89" opacity="0.2"/>
    <path id="Path_162658" data-name="Path 162658" d="M55.09,16H10.2A10.213,10.213,0,0,0,0,26.2v25.5a10.213,10.213,0,0,0,10.2,10.2H32.136a2.55,2.55,0,0,0,0-5.1H10.2a5.107,5.107,0,0,1-5.1-5.1V36.4h55.09v2.55a2.55,2.55,0,0,0,5.1,0V26.2A10.213,10.213,0,0,0,55.09,16ZM5.1,31.3V26.2a5.107,5.107,0,0,1,5.1-5.1H55.09a5.107,5.107,0,0,1,5.1,5.1v5.1Z" transform="translate(940 439)" fill="#ea4c89"/>
    <path id="Path_162659" data-name="Path 162659" d="M82.55,256a2.55,2.55,0,0,0,0,5.1h4.591a2.55,2.55,0,0,0,0-5.1Z" transform="translate(870.202 229.605)" fill="#ea4c89"/>
    <path id="Path_162660" data-name="Path 162660" d="M198.55,256a2.55,2.55,0,0,0,0,5.1h4.591a2.55,2.55,0,1,0,0-5.1Z" transform="translate(768.994 229.605)" fill="#ea4c89"/>
    <path id="Path_162661" data-name="Path 162661" d="M15.49-106.244a9.721,9.721,0,0,0,3.426-7.347,10.263,10.263,0,0,0-.225-2.614h9.376v-4.147H17.383a15.368,15.368,0,0,1-1.037-4.643,5.351,5.351,0,0,1,5.544-5.544A6.784,6.784,0,0,1,27.57-127.2l3.606-2.885a11.125,11.125,0,0,0-9.691-5.274,10.791,10.791,0,0,0-7.392,2.84,9.241,9.241,0,0,0-3.02,6.9,17.028,17.028,0,0,0,1.127,5.274H9.54v4.147H13.6a8.809,8.809,0,0,1,.27,2.119,10.2,10.2,0,0,1-1.217,4.643,10.955,10.955,0,0,1-3.065,3.876v4.1H31.221v-4.778Z" transform="translate(972.005 616.871)" fill="#ea4c89"/>
  </g>
</svg>
