<svg xmlns="http://www.w3.org/2000/svg" width="51.744" height="21.46" viewBox="0 0 51.744 21.46">
  <g id="Group_117658" data-name="Group 117658" transform="translate(-654.255 -316.999)">
    <g id="stripe" transform="translate(658.255 314.332)">
      <path id="Path_161750" data-name="Path 161750" d="M5.407,10.32c-1.115-.412-1.726-.733-1.726-1.237,0-.428.351-.672.978-.672a7.514,7.514,0,0,1,3.131.84l.458-2.826a8.8,8.8,0,0,0-3.773-.81,4.834,4.834,0,0,0-3.116.962A3.423,3.423,0,0,0,.153,9.328c0,2.077,1.268,2.963,3.33,3.712,1.329.473,1.772.81,1.772,1.329,0,.5-.428.794-1.207.794A8.414,8.414,0,0,1,.458,14.078L0,16.934a9.31,9.31,0,0,0,4.246,1.023A5.184,5.184,0,0,0,7.5,17.026a3.547,3.547,0,0,0,1.3-2.948c0-2.123-1.3-3.009-3.391-3.757ZM16.258,8.655l.458-2.81H14.3V2.433l-3.253.535-.47,2.877-1.144.186L9,8.655H10.57V14.17a3.681,3.681,0,0,0,1.115,3.04,4.333,4.333,0,0,0,2.8.748,7.033,7.033,0,0,0,1.986-.275V14.7a5.212,5.212,0,0,1-1.1.168c-.748,0-1.069-.382-1.069-1.252V8.655h1.961Zm7.265-2.975A2.259,2.259,0,0,0,21.262,7.25l-.229-1.405H17.718V17.728h3.788V10.015a2.442,2.442,0,0,1,2.062-.79,3.629,3.629,0,0,1,.672.046v-3.5A3.086,3.086,0,0,0,23.522,5.681Zm3.544-1.012a2,2,0,1,0-2-2,1.995,1.995,0,0,0,2,2ZM25.157,5.845h3.8V17.728h-3.8ZM39.738,6.914a3.327,3.327,0,0,0-2.8-1.3A3.944,3.944,0,0,0,33.98,7.036l-.2-1.191h-3.33V22.127l3.788-.626V17.683a5.787,5.787,0,0,0,1.711.275,4.519,4.519,0,0,0,3.391-1.405,7.4,7.4,0,0,0,1.543-5.117,7.352,7.352,0,0,0-1.146-4.521Zm-3.147,7.332a1.487,1.487,0,0,1-1.329.886,2.241,2.241,0,0,1-1.023-.229V9.251A2.061,2.061,0,0,1,35.675,8.5c.962,0,1.436,1.039,1.436,3.07a5.489,5.489,0,0,1-.519,2.673ZM51.744,11.68a7.185,7.185,0,0,0-1.222-4.445,4.352,4.352,0,0,0-3.635-1.619c-3.223,0-5.224,2.383-5.224,6.2a6.406,6.406,0,0,0,1.588,4.766,5.616,5.616,0,0,0,4.063,1.375,7.675,7.675,0,0,0,4.063-1.008l-.412-2.6a6.723,6.723,0,0,1-3.238.779,2.314,2.314,0,0,1-1.6-.474,2.384,2.384,0,0,1-.7-1.665H51.7c.015-.183.046-1.039.046-1.314Zm-6.354-1.008c.107-1.7.565-2.49,1.436-2.49.855,0,1.3.81,1.359,2.49Z" transform="translate(-4 2)" fill="#6772e5" fill-rule="evenodd"/>
    </g>
  </g>
</svg>
