<svg xmlns="http://www.w3.org/2000/svg" xmlns:xlink="http://www.w3.org/1999/xlink" width="210" height="210" viewBox="0 0 210 210">
  <defs>
    <filter id="Ellipse_1215" x="0" y="0" width="210" height="210" filterUnits="userSpaceOnUse">
      <feOffset dy="10" input="SourceAlpha"/>
      <feGaussianBlur stdDeviation="10" result="blur"/>
      <feFlood flood-color="#8a8a8a" flood-opacity="0.031"/>
      <feComposite operator="in" in2="blur"/>
      <feComposite in="SourceGraphic"/>
    </filter>
  </defs>
  <g id="Group_116965" data-name="Group 116965" transform="translate(-1004 -353)">
    <g id="Group_56326" data-name="Group 56326" transform="translate(1034 373)">
      <g id="Group_2519" data-name="Group 2519" transform="translate(0 0)">
        <g transform="matrix(1, 0, 0, 1, -30, -20)" filter="url(#Ellipse_1215)" style="mix-blend-mode: hard-light;isolation: isolate">
          <circle id="Ellipse_1215-2" data-name="Ellipse 1215" cx="75" cy="75" r="75" transform="translate(30 20)" fill="#ea4c89" opacity="0.06"/>
        </g>
        <g id="Group_116971" data-name="Group 116971" transform="translate(44 44)">
          <path id="Path_162311" data-name="Path 162311" d="M57.285,40.294V14.564a4.86,4.86,0,0,0-4.855-4.855H49.275v2.427a2.427,2.427,0,1,1-4.855,0V9.709H33.376v2.427a2.427,2.427,0,1,1-4.855,0V9.709H17.6v2.427a2.427,2.427,0,1,1-4.855,0V9.709H9.709a4.86,4.86,0,0,0-4.855,4.855V52.431a4.86,4.86,0,0,0,4.855,4.855H52.431a4.86,4.86,0,0,0,4.855-4.855,2.427,2.427,0,0,1,4.855,0,9.72,9.72,0,0,1-9.709,9.709H9.709A9.72,9.72,0,0,1,0,52.431V14.564A9.72,9.72,0,0,1,9.709,4.855h3.034V2.427a2.427,2.427,0,1,1,4.855,0V4.855H28.521V2.427a2.427,2.427,0,1,1,4.855,0V4.855H44.42V2.427a2.427,2.427,0,1,1,4.855,0V4.855h3.156a9.72,9.72,0,0,1,9.709,9.709v25.73a2.427,2.427,0,1,1-4.855,0ZM26.337,48.3c0,.382.329.609.754.607a1.2,1.2,0,0,0,.821-.328L39.37,35.474a1.779,1.779,0,0,0-1.335-2.948H32.413l4.441-7.161H28.239l-5.593,9.973A2.435,2.435,0,0,0,24.8,38.959h4.876L26.411,48a.743.743,0,0,0-.074.3Zm0,0" fill="#ea4c89"/>
        </g>
      </g>
    </g>
    <g id="Ellipse_3559" data-name="Ellipse 3559" transform="translate(1121.425 389.498)" fill="none" stroke="#ea4c89" stroke-width="1.5" opacity="0.65">
      <circle cx="4.391" cy="4.391" r="4.391" stroke="none"/>
      <circle cx="4.391" cy="4.391" r="3.641" fill="none"/>
    </g>
    <g id="Ellipse_3560" data-name="Ellipse 3560" transform="translate(1163.817 458.217)" fill="#ea4c89" stroke="#ea4c89" stroke-width="1.5" opacity="0.65">
      <circle cx="2.696" cy="2.696" r="2.696" stroke="none"/>
      <circle cx="2.696" cy="2.696" r="1.946" fill="none"/>
    </g>
    <g id="close_2_" data-name="close (2)" transform="translate(1064.521 487.036) rotate(45)" opacity="0.65">
      <path id="Path_63956" data-name="Path 63956" d="M6.717,7.328a.608.608,0,0,1-.432-.179L.179,1.042A.611.611,0,1,1,1.042.179L7.149,6.285a.611.611,0,0,1-.432,1.042Zm0,0" transform="translate(0 0)" fill="#ea4c89" stroke="#ea4c89" stroke-width="1"/>
      <path id="Path_63957" data-name="Path 63957" d="M.611,7.328A.611.611,0,0,1,.179,6.285L6.285.179a.611.611,0,1,1,.863.863L1.042,7.149A.608.608,0,0,1,.611,7.328Zm0,0" fill="#ea4c89" stroke="#ea4c89" stroke-width="1"/>
    </g>
  </g>
</svg>
