<svg xmlns="http://www.w3.org/2000/svg" xmlns:xlink="http://www.w3.org/1999/xlink" width="251" height="77" viewBox="0 0 251 77">
  <defs>
    <clipPath id="clip-path">
      <rect id="Rectangle_13985" data-name="Rectangle 13985" width="251" height="77" transform="translate(686 388)" fill="#be1616"/>
    </clipPath>
  </defs>
  <g id="Mask_Group_198" data-name="Mask Group 198" transform="translate(-686 -388)" opacity="0.05" clip-path="url(#clip-path)">
    <path id="Path_73621" data-name="Path 73621" d="M87.476,133.069l24.439-80.58h21.806l-24.44,80.58ZM77.728,52.511,58.114,86.669C53.12,95.615,50.2,100.134,48.8,105.787h-.3c.347-7.167-.652-15.965-.747-20.938L45.587,52.511H8.881L8.5,54.679c9.43,0,15.022,4.737,16.561,14.427l7.154,63.964H54.81l45.677-80.558ZM247.3,133.069l-.6-11.984-27.228-.022-5.569,12H190.23l42.925-80.426h29.058l7.269,80.426H247.3Zm-2.5-47.532a184.883,184.883,0,0,1-.039-18.93h-.322c-1.327,4-7.027,16.013-9.534,21.921l-8.113,17.663h19.118Zm-88.189,49.822a60.978,60.978,0,0,1-32.905-9.237l10.387-15.863c6.548,3.662,11.689,7.888,23.518,7.888,3.8,0,7.469-.989,9.55-4.593,3.033-5.242-.7-8.061-9.218-12.883l-4.206-2.735c-12.627-8.629-18.089-16.824-12.145-31.129,3.8-9.151,13.836-16.086,30.386-16.086a48.823,48.823,0,0,1,28.349,9.76L188.386,74.487c-6.084-4.921-11.128-7.411-16.9-7.411-4.6,0-8.1,1.774-9.3,4.168-2.271,4.5.734,7.568,7.37,11.687l5,3.181c15.33,9.669,18.983,19.808,15.14,29.287C183.087,131.716,170.148,135.359,156.613,135.359ZM275.447,64.953H274.01V56.217h3.315c2.109,0,3.186.739,3.186,2.512a2.235,2.235,0,0,1-2.281,2.383l2.447,3.841h-1.624L276.8,61.218h-1.35Zm1.6-4.959c1.078,0,2.026-.105,2.026-1.372,0-1.055-1.034-1.182-1.9-1.182h-1.732v2.554Zm-.043,8.335a7.893,7.893,0,1,1,7.723-7.892A7.594,7.594,0,0,1,277.006,68.329Zm0-14.411c-3.417,0-6.075,2.678-6.075,6.519,0,3.587,2.321,6.519,6.075,6.519,3.376,0,6.035-2.658,6.035-6.519C283.041,56.6,280.382,53.918,277.006,53.918Z" transform="translate(677.596 338.936)" fill="#fff" fill-rule="evenodd"/>
  </g>
</svg>
