<svg id="Component_50_1" data-name="Component 50 – 1" xmlns="http://www.w3.org/2000/svg" width="31.295" height="31" viewBox="0 0 31.295 31">
  <rect id="Rectangle_13902" data-name="Rectangle 13902" width="31" height="31" transform="translate(0.295)" fill="none"/>
  <g id="Wellness-01.6146b733" transform="translate(0 5.065)">
    <g id="_3798AFB9-049F-43EB-8583-27BC9149BBE8" data-name=" 3798AFB9-049F-43EB-8583-27BC9149BBE8" transform="translate(0)">
      <path id="Path_162099" data-name="Path 162099" d="M289.418,293.515a3.393,3.393,0,0,0-2.2,1.01,3.81,3.81,0,0,0-1.031,2.118,5,5,0,0,0,.166,2.205,9.837,9.837,0,0,0,1.71,3.024,16.086,16.086,0,0,0,3.493,3.253,8.181,8.181,0,0,0,1.563.858c.1.014.252-.046.633-.249a15.019,15.019,0,0,0,5.752-5.769,5.339,5.339,0,0,0,.674-2.726,4.173,4.173,0,0,0-.1-.858,3.617,3.617,0,0,0-1.852-2.5,3.333,3.333,0,0,0-1.586-.367,3.4,3.4,0,0,0-.977.116A4.941,4.941,0,0,0,293.347,295l-.189.189-.24-.239a4.883,4.883,0,0,0-1.389-.99,4.1,4.1,0,0,0-.808-.307A3.943,3.943,0,0,0,289.418,293.515Z" transform="translate(-281.501 -293.395)" fill="#ea4c89" fill-rule="evenodd"/>
      <path id="Path_162099_-_Outline" data-name="Path 162099 - Outline" d="M287.566,291.287a4.056,4.056,0,0,1,1.078.146,4.226,4.226,0,0,1,.828.315,4.908,4.908,0,0,1,.736.431,5.648,5.648,0,0,1,.682.579h0l.161.16.109-.109a5.437,5.437,0,0,1,1.11-.874,4.879,4.879,0,0,1,1.254-.519,3.516,3.516,0,0,1,.915-.121h.093a3.783,3.783,0,0,1,.85.09,3.524,3.524,0,0,1,.785.288,3.341,3.341,0,0,1,.669.445,3.612,3.612,0,0,1,.554.595,3.879,3.879,0,0,1,.421.718,4.1,4.1,0,0,1,.268.816,4.3,4.3,0,0,1,.1.88,5.024,5.024,0,0,1-.143,1.374,6.559,6.559,0,0,1-.544,1.405,11.369,11.369,0,0,1-1.059,1.667,15.667,15.667,0,0,1-1.4,1.609,16.236,16.236,0,0,1-1.622,1.426,12.69,12.69,0,0,1-1.714,1.116,1.634,1.634,0,0,1-.657.264l-.043,0h0a1.009,1.009,0,0,1-.265-.1c-.109-.051-.246-.122-.4-.2-.319-.175-.664-.384-.946-.573a16.191,16.191,0,0,1-3.518-3.277,12.11,12.11,0,0,1-1.066-1.57,7.614,7.614,0,0,1-.664-1.491h0a6.211,6.211,0,0,1-.2-1.022v0a6.259,6.259,0,0,1,.033-1.224v0a4.421,4.421,0,0,1,.373-1.2,3.738,3.738,0,0,1,.687-.973h0a3.4,3.4,0,0,1,1.023-.723,3.731,3.731,0,0,1,1.252-.32h0C287.39,291.29,287.479,291.287,287.566,291.287Zm3.167,1.63a4.742,4.742,0,0,0-1.359-.968h0a4,4,0,0,0-.786-.3h0a3.831,3.831,0,0,0-1.019-.138c-.082,0-.165,0-.247.008a3.3,3.3,0,0,0-2.131.976h0a3.676,3.676,0,0,0-1,2.057,4.887,4.887,0,0,0,.163,2.157,9.76,9.76,0,0,0,1.69,2.986,15.959,15.959,0,0,0,3.468,3.23c.277.185.616.391.929.563a3.008,3.008,0,0,0,.586.278h.013a1.873,1.873,0,0,0,.552-.238,14.862,14.862,0,0,0,5.705-5.721,5.231,5.231,0,0,0,.662-2.672v0a4.071,4.071,0,0,0-.095-.835h0a3.526,3.526,0,0,0-1.793-2.421,3.209,3.209,0,0,0-1.536-.355h-.091a3.293,3.293,0,0,0-.857.113h0a4.859,4.859,0,0,0-2.262,1.333h0l-.268.268Z" transform="translate(-279.394 -291.287)" fill="#cb2f6b"/>
      <path id="Path_162100" data-name="Path 162100" d="M215.525,500.561a6.335,6.335,0,0,0-2.813,1.1c-.377.252-1.593,1.143-2.476,1.813-.442.338-.808.614-.813.614s-.185.113-.4.252c-.5.319-1.666,1-1.717,1-.021,0-.412-.036-.868-.079a6.861,6.861,0,0,0-2.26.021,5.47,5.47,0,0,0-1.824.653c-.173.115-.358.293-.353.338s0,.041.2,0a2.447,2.447,0,0,1,1.341.22l.074.041v.144a.971.971,0,0,1-.079.374,1.136,1.136,0,0,0-.067.233c.005,0,.849.182,1.874.4l1.865.391,1.317-.4c.724-.223,1.729-.533,2.233-.691s.918-.283.921-.279-.977.344-2.18.757a16.213,16.213,0,0,1-2.267.741c-.223-.031-5.1-1.045-5.15-1.07a.971.971,0,0,1-.321-.326.713.713,0,0,1,.225-.788,2.385,2.385,0,0,1,.633-.451c.039,0,.074-.065.041-.079s-1.242-1.226-3.193-3.195c-.4-.41-.8-.794-.874-.854a1.988,1.988,0,0,0-1.187-.465,1.214,1.214,0,0,0-.6.082c-.252.12-.3.341-.158.641a1.248,1.248,0,0,0,.125.2c.041.051,1.089,1.218,2.329,2.59l2.257,2.5,2.07,1.127,3.049,1.659a14,14,0,0,0,1.677.832c.386.167.753.316.816.33a1.517,1.517,0,0,0,.561,0,1.311,1.311,0,0,0,.231-.091c.071-.036,1.233-.681,2.581-1.434l2.615-1.459c.439-.242,4.38-2.2,4.529-2.252a1,1,0,0,1,.463-.057c.165,0,.431.012.59.028a41.526,41.526,0,0,1,6.419,1.219c.125.041.23.075.235.075s.009-1.334.009-2.967v-2.968h-.338c-.187,0-1.4-.014-2.689-.033a23.055,23.055,0,0,1-2.658-.074c-.309-.043-1.4-.14-1.775-.158l-1.919-.1C215.936,500.553,215.773,500.546,215.525,500.561Z" transform="translate(-196.458 -489.989)" fill="#ea4c89" fill-rule="evenodd"/>
      <path id="Path_162100_-_Outline" data-name="Path 162100 - Outline" d="M213.611,498.335h0c.235,0,.636.021,2.117.1l1.918.1c.376.017,1.461.113,1.785.158a22.97,22.97,0,0,0,2.636.073h.008c1.283.019,2.5.033,2.688.033h.45v3.08c0,.8,0,1.547,0,2.1,0,.274,0,.489,0,.638,0,.076,0,.135,0,.174,0,.021,0,.036,0,.047s0,.011,0,.015,0,.007,0,.01a.113.113,0,0,1-.112.1,1.175,1.175,0,0,1-.27-.081,41.289,41.289,0,0,0-6.394-1.214h0c-.153-.015-.413-.027-.579-.027a.906.906,0,0,0-.426.051c-.076.028-.981.471-2.155,1.055-1.012.5-2.133,1.066-2.357,1.189l-2.615,1.459c-1.3.727-2.509,1.4-2.585,1.436a1.425,1.425,0,0,1-.251.1h-.01a1.629,1.629,0,0,1-.6,0h0c-.093-.021-.57-.221-.836-.336a14.143,14.143,0,0,1-1.686-.836l-.377-.2L201.27,506.1l-2.087-1.136-2.27-2.509c-1.2-1.33-2.288-2.539-2.333-2.594l0,0a1.363,1.363,0,0,1-.136-.215v0a.659.659,0,0,1-.065-.506.5.5,0,0,1,.276-.285,1.152,1.152,0,0,1,.519-.1c.042,0,.087,0,.134,0h0a2.1,2.1,0,0,1,1.253.49c.087.07.49.463.883.862h0c2.05,2.068,3.079,3.092,3.178,3.181a.136.136,0,0,1,.059.143.174.174,0,0,1-.023.057,6.473,6.473,0,0,1,1.4-.421,5.437,5.437,0,0,1,1.031-.1c.3,0,.657.023,1.26.081.491.046.767.071.841.077.156-.072,1.171-.659,1.672-.981l.279-.179.088-.055.038-.022c.047-.033.357-.267.8-.605h0c.873-.663,2.1-1.563,2.482-1.817h0a8.028,8.028,0,0,1,1.487-.781,4.74,4.74,0,0,1,1.38-.341C213.473,498.338,213.531,498.335,213.611,498.335Zm11.377.691h-.226c-.193,0-1.407-.014-2.691-.033h-.008a22.789,22.789,0,0,1-2.664-.075c-.313-.044-1.4-.14-1.765-.157l-1.919-.1c-1.475-.081-1.875-.1-2.1-.1h0c-.075,0-.129,0-.187.006a6.241,6.241,0,0,0-2.758,1.086c-.377.252-1.6,1.148-2.471,1.809l-.571.434-.176.132-.05.037a.236.236,0,0,1-.036.023c-.027.015-.187.116-.387.245h0c-.228.146-.632.39-1.03.622-.187.109-.35.2-.473.27-.065.036-.117.064-.155.083a.262.262,0,0,1-.119.042c-.024,0-.32-.027-.878-.079-.6-.057-.943-.079-1.238-.079a5.121,5.121,0,0,0-.992.1,6.4,6.4,0,0,0-1,.27,3.816,3.816,0,0,0-.778.366,1.723,1.723,0,0,0-.161.122,1.682,1.682,0,0,1,.212-.012,2.884,2.884,0,0,1,.6.069,2.052,2.052,0,0,1,.533.187h0l.131.074v.209a1.079,1.079,0,0,1-.085.409v.007a1.024,1.024,0,0,0-.036.106c.238.051.864.184,1.763.374l1.836.385,1.29-.4c.762-.235,1.748-.539,2.232-.691.232-.073.461-.143.642-.2a1.628,1.628,0,0,1,.312-.086.112.112,0,0,1,.085.039l.039.045-.016.057a.118.118,0,0,1-.08.08l-.035.013-.129.046-.469.164-1.539.531c-1,.344-1.5.516-1.811.618a1.9,1.9,0,0,1-.476.13l-.031,0h0c-.118-.017-1.414-.282-2.647-.539-.655-.136-1.264-.264-1.716-.359l-.569-.122-.2-.045,1.4.761,2.672,1.454.377.2a13.985,13.985,0,0,0,1.668.827c.449.194.748.311.8.323a1.406,1.406,0,0,0,.512,0,1.2,1.2,0,0,0,.206-.082c.065-.033,1.2-.663,2.578-1.432l2.616-1.459c.228-.126,1.358-.693,2.377-1.2.342-.17,2.056-1.021,2.17-1.06a1.1,1.1,0,0,1,.5-.063c.172,0,.442.013.6.028a41.6,41.6,0,0,1,6.443,1.224l.09.03c0-.382.006-1.481.006-2.815Zm-29.693-.047-.124,0a.945.945,0,0,0-.421.074h0a.285.285,0,0,0-.161.157.451.451,0,0,0,.055.333,1.137,1.137,0,0,0,.112.177c.052.062,1.081,1.208,2.325,2.585l2.244,2.481.511.278a1.088,1.088,0,0,1-.275-.306l0,0,0,0a.817.817,0,0,1,.242-.912,2.62,2.62,0,0,1,.357-.3,2.107,2.107,0,0,1,.241-.154l-.154-.151c-.151-.149-.366-.364-.64-.637-.592-.592-1.417-1.421-2.321-2.333h0c-.412-.418-.8-.791-.864-.845l0,0a1.876,1.876,0,0,0-1.12-.438Zm4.625,5.334a.13.13,0,0,1-.129-.086.462.462,0,0,0-.036.417.864.864,0,0,0,.269.276c.085.021.547.12,1.227.263l0-.022a1.249,1.249,0,0,1,.072-.253.852.852,0,0,0,.072-.335V504.5l-.016-.009a1.808,1.808,0,0,0-.471-.164,2.657,2.657,0,0,0-.551-.064,1.294,1.294,0,0,0-.242.02l-.038.008A.885.885,0,0,1,199.921,504.313Z" transform="translate(-194.351 -487.881)" fill="#cb2f6b"/>
      <path id="Path_162101" data-name="Path 162101" d="M243.627,513.658a1.311,1.311,0,0,0-.606.258.124.124,0,0,0-.005.077c.009.036.547.585,1.945,1.984,1.063,1.063,1.945,1.94,1.96,1.95s.072,0,.183-.05a4.866,4.866,0,0,1,1.118-.3c.194-.027.248-.041.252-.063s-.542-.555-1.484-1.464c-.818-.791-1.6-1.549-1.729-1.681a4.564,4.564,0,0,0-.379-.345A1.729,1.729,0,0,0,243.627,513.658Z" transform="translate(-240.555 -502.418)" fill="#f578a8" fill-rule="evenodd"/>
      <path id="Path_162101_-_Outline" data-name="Path 162101 - Outline" d="M241.714,511.424h0a1.915,1.915,0,0,1,1.131.4l0,0a4.691,4.691,0,0,1,.388.353c.133.132.915.895,1.727,1.679.528.51.867.839,1.1,1.065.131.129.227.225.291.291.034.035.06.062.077.082a.145.145,0,0,1,.05.126.134.134,0,0,1-.07.093.276.276,0,0,1-.068.025c-.041.01-.1.021-.209.036a4.764,4.764,0,0,0-1.091.291.562.562,0,0,1-.211.062.137.137,0,0,1-.076-.021,1.906,1.906,0,0,1-.181-.174l-.424-.421c-.377-.375-.865-.862-1.373-1.37-.721-.722-1.2-1.2-1.494-1.5-.156-.159-.268-.275-.342-.354-.114-.122-.13-.145-.138-.178a.237.237,0,0,1,.01-.146l0-.009.005-.008a.355.355,0,0,1,.123-.107,1.411,1.411,0,0,1,.17-.084,1.72,1.72,0,0,1,.392-.118A1.449,1.449,0,0,1,241.714,511.424Zm.994.581a1.69,1.69,0,0,0-.994-.357h0a1.227,1.227,0,0,0-.177.013,1.478,1.478,0,0,0-.323.1.982.982,0,0,0-.187.1c.045.051.165.179.46.479s.759.768,1.447,1.457c.993.993,1.755,1.751,1.922,1.913.02-.006.051-.017.1-.038h0a4.986,4.986,0,0,1,1.144-.305l.066-.01c-.062-.063-.159-.16-.309-.307-.229-.225-.553-.539-1.05-1.019-.813-.786-1.6-1.55-1.73-1.682h0A4.462,4.462,0,0,0,242.709,512.006Z" transform="translate(-238.449 -500.31)" fill="#cb2f6b"/>
      <path id="Path_162102" data-name="Path 162102" d="M288.62,521.821a.836.836,0,0,0-.316.147c-.022.026-.01.041.094.144.61.587,3.228,3.085,3.25,3.1s.07.015.208,0a6.556,6.556,0,0,1,1.279.065c.182.031.255.038.269.024a.03.03,0,0,0,0-.041c-.019-.026-3.029-2.77-3.212-2.928a2.453,2.453,0,0,0-.879-.484A1.521,1.521,0,0,0,288.62,521.821Z" transform="translate(-283.552 -510.155)" fill="#f578a8" fill-rule="evenodd"/>
      <path id="Path_162102_-_Outline" data-name="Path 162102 - Outline" d="M286.767,519.572h0a1.82,1.82,0,0,1,.465.06h0a2.568,2.568,0,0,1,.919.506h0c.1.083.932.844,1.669,1.516l1.061.968.349.32c.1.091.129.119.141.131h0a.141.141,0,0,1,0,.2h0a.154.154,0,0,1-.113.039,1.765,1.765,0,0,1-.254-.032h0a7.081,7.081,0,0,0-1.007-.074,2.3,2.3,0,0,0-.24.01h0a1.549,1.549,0,0,1-.16.012.211.211,0,0,1-.124-.032c-.01-.007-.015-.01-.444-.419l-.973-.928c-.8-.765-1.56-1.491-1.846-1.765h0a.874.874,0,0,1-.109-.118.139.139,0,0,1,.008-.178.931.931,0,0,1,.371-.183h0A1.142,1.142,0,0,1,286.767,519.572Zm.4.276a1.589,1.589,0,0,0-.4-.052h0a.935.935,0,0,0-.23.024,1.135,1.135,0,0,0-.2.076l.027.027c.6.574,3,2.863,3.228,3.081h0c.025,0,.067,0,.135-.011a2.475,2.475,0,0,1,.265-.011,7.477,7.477,0,0,1,1.027.074c-.664-.61-2.858-2.609-3.017-2.747A2.329,2.329,0,0,0,287.171,519.849Z" transform="translate(-281.44 -508.047)" fill="#cb2f6b"/>
      <path id="Path_162103" data-name="Path 162103" d="M333.887,533.326c-.115.038-.178.091-.151.129.01.012.585.549,1.278,1.194s1.374,1.276,1.511,1.407l.249.236.137.017c.074.011.262.021.42.022l.283.005.146-.072a1.437,1.437,0,0,0,.2-.117l.051-.044-.06-.055c-.07-.065-2.49-2.221-2.6-2.317a2.118,2.118,0,0,0-.48-.285A1.669,1.669,0,0,0,333.887,533.326Z" transform="translate(-326.693 -521.075)" fill="#f578a8" fill-rule="evenodd"/>
      <path id="Path_162103_-_Outline" data-name="Path 162103 - Outline" d="M332.025,531.074h0a2.13,2.13,0,0,1,.773.161h0a2.229,2.229,0,0,1,.506.3l0,0c.1.086,2.5,2.227,2.6,2.32l.152.139-.149.131,0,0a1.563,1.563,0,0,1-.211.126l-.17.084-.31-.006a4.315,4.315,0,0,1-.433-.023l-.173-.022-.276-.262c-.1-.094-.493-.461-.95-.885l-.56-.521-.9-.834c-.38-.355-.386-.362-.392-.37l0,0,0,0a.144.144,0,0,1-.019-.129c.023-.071.1-.129.227-.171A.907.907,0,0,1,332.025,531.074Zm.687.368a1.921,1.921,0,0,0-.687-.143h0a.7.7,0,0,0-.21.026l-.034.013c.169.159.618.578,1.2,1.121l.56.521c.476.442.852.792.952.887l.222.211.1.013c.062.009.239.019.405.021h0l.255.005.121-.06a1.336,1.336,0,0,0,.121-.068c-.321-.288-2.453-2.187-2.559-2.278A2,2,0,0,0,332.712,531.441Z" transform="translate(-324.585 -518.967)" fill="#cb2f6b"/>
    </g>
    <g id="_9054B44D-1DB0-4E14-8A66-DB4B12B62409" data-name=" 9054B44D-1DB0-4E14-8A66-DB4B12B62409" transform="translate(14.358 0.574)">
      <path id="Path_162104" data-name="Path 162104" d="M478.757,302.682c-.034.028-.038.039-.024.079s.036.054.188.094a4.129,4.129,0,0,1,2.259,1.458,3.3,3.3,0,0,1,.386.771,4.17,4.17,0,0,1-.672,3.413,9.324,9.324,0,0,1-.952,1.267c-.112.115-.139.175-.1.216s.089.031.156-.017c.032-.024.132-.092.221-.151a4.9,4.9,0,0,0,.884-.731,4.153,4.153,0,0,0,.606-.741,4.545,4.545,0,0,0,.6-1.3,3.575,3.575,0,0,0-.174-2.454,3.076,3.076,0,0,0-.676-.935,3.642,3.642,0,0,0-2.346-.984C478.8,302.644,478.8,302.644,478.757,302.682Z" transform="translate(-478.726 -302.652)" fill="#fff" fill-rule="evenodd" opacity="0.32"/>
    </g>
  </g>
</svg>
