<svg xmlns="http://www.w3.org/2000/svg" width="20" height="14.062" viewBox="0 0 20 14.062">
  <g id="Group_116673" data-name="Group 116673" transform="translate(0 -76)">
    <g id="Group_116667" data-name="Group 116667" transform="translate(0 76)">
      <path id="Path_162152" data-name="Path 162152" d="M22.144,105.475V99.158A3.02,3.02,0,0,1,25,96H22.859A3.02,3.02,0,0,0,20,99.158v6.316a3.02,3.02,0,0,0,2.859,3.158H25A3.02,3.02,0,0,1,22.144,105.475Z" transform="translate(-19.285 -95.285)" fill="rgba(234,76,137,0.3)"/>
      <path id="Path_162153" data-name="Path 162153" d="M16.093,90.062H3.906A3.911,3.911,0,0,1,0,86.156v-6.25A3.911,3.911,0,0,1,3.906,76H16.093A3.911,3.911,0,0,1,20,79.906v6.25A3.911,3.911,0,0,1,16.093,90.062ZM3.906,77.562a2.346,2.346,0,0,0-2.344,2.344v6.25A2.346,2.346,0,0,0,3.906,88.5H16.093a2.346,2.346,0,0,0,2.344-2.344v-6.25a2.346,2.346,0,0,0-2.344-2.344Z" transform="translate(0 -76)" fill="#ea4c89"/>
      <path id="Path_162154" data-name="Path 162154" d="M93.47,157.429H80.811a.72.72,0,1,1,0-1.429H93.47a.72.72,0,1,1,0,1.429Z" transform="translate(-77.141 -152.842)" fill="#ea4c89"/>
      <path id="Path_162155" data-name="Path 162155" d="M83.431,317.429H80.715a.715.715,0,1,1,0-1.429h2.716a.715.715,0,0,1,0,1.429Z" transform="translate(-76.797 -306.525)" fill="#ea4c89"/>
    </g>
  </g>
</svg>
