<svg xmlns="http://www.w3.org/2000/svg" width="18.31" height="20" viewBox="0 0 18.31 20">
  <g id="Group_115434" data-name="Group 115434" transform="translate(-24.98)">
    <g id="Group_115430" data-name="Group 115430" transform="translate(24.98 0)">
      <path id="Path_161735" data-name="Path 161735" d="M54.947,36.854v-.035c0-.048,0-.095.008-.142a2.383,2.383,0,0,0-.856-.489,3.743,3.743,0,0,0-.617-1.494A3.836,3.836,0,0,0,51.706,33.3a4.481,4.481,0,0,1-1.176-.674,3.889,3.889,0,0,0-1.894-.811,3.7,3.7,0,0,0,.271-2,4.41,4.41,0,0,1,0-1.262,3.7,3.7,0,0,0-.258-2,3.911,3.911,0,0,0,1.9-.8,4.484,4.484,0,0,1,1.149-.654A3.843,3.843,0,0,0,53.478,23.7a3.741,3.741,0,0,0,.616-1.477,2.384,2.384,0,0,0,.862-.492,1.424,1.424,0,0,1-.01-.159v-.016a1.585,1.585,0,0,0-3.17,0,1.456,1.456,0,0,1-.942,1.353,6.876,6.876,0,0,0-1.761,1,1.5,1.5,0,0,1-1.657.135l-.045-.025a1.605,1.605,0,0,0-2.165.589,1.542,1.542,0,0,0,.6,2.123l.013.007a1.448,1.448,0,0,1,.739,1.47,6.713,6.713,0,0,0-.006,1.926,1.438,1.438,0,0,1-.734,1.452l-.012.007a1.542,1.542,0,0,0-.6,2.123,1.605,1.605,0,0,0,2.165.589h0a1.5,1.5,0,0,1,1.663.14,6.874,6.874,0,0,0,1.8,1.033,1.454,1.454,0,0,1,.939,1.352v.02a1.585,1.585,0,0,0,3.17,0Z" transform="translate(-44.206 -19.207)" fill="rgba(234,76,137,0.3)"/>
      <path id="Path_161736" data-name="Path 161736" d="M34.135,20a2.364,2.364,0,0,1-2.378-2.344v-.02a.671.671,0,0,0-.436-.627,7.656,7.656,0,0,1-2.01-1.154.693.693,0,0,0-.773-.068l0,0a2.406,2.406,0,0,1-3.243-.885,2.291,2.291,0,0,1-.223-1.778,2.332,2.332,0,0,1,1.124-1.414l.01-.006a.666.666,0,0,0,.34-.666,7.5,7.5,0,0,1,.007-2.149.675.675,0,0,0-.346-.679l-.013-.007a2.33,2.33,0,0,1-1.121-1.413,2.291,2.291,0,0,1,.223-1.778,2.406,2.406,0,0,1,3.243-.885l.048.027a.7.7,0,0,0,.772-.067,7.66,7.66,0,0,1,1.965-1.119.674.674,0,0,0,.439-.628,2.378,2.378,0,0,1,4.755,0v.016a.674.674,0,0,0,.436.627A7.662,7.662,0,0,1,38.891,4.1a.7.7,0,0,0,.773.069l.069-.039a2.407,2.407,0,0,1,3.245.883A2.291,2.291,0,0,1,43.2,6.794a2.332,2.332,0,0,1-1.124,1.414l-.054.03a.663.663,0,0,0-.34.666,7.507,7.507,0,0,1,.008,2.117.668.668,0,0,0,.34.666l.048.027A2.332,2.332,0,0,1,43.2,13.128a2.292,2.292,0,0,1-.223,1.778,2.406,2.406,0,0,1-3.243.885l-.028-.015a.7.7,0,0,0-.778.071A7.66,7.66,0,0,1,36.945,17a.671.671,0,0,0-.433.625v.035A2.364,2.364,0,0,1,34.135,20Zm-5.261-5.863a2.3,2.3,0,0,1,1.434.5,6.07,6.07,0,0,0,1.593.915,2.225,2.225,0,0,1,1.442,2.081v.02a.793.793,0,0,0,1.585,0v-.035a2.227,2.227,0,0,1,1.431-2.077,6.071,6.071,0,0,0,1.574-.911,2.29,2.29,0,0,1,2.559-.217l.025.014a.805.805,0,0,0,1.084-.3.759.759,0,0,0,.074-.589.776.776,0,0,0-.374-.47h0l-.049-.027a2.207,2.207,0,0,1-1.128-2.237,5.966,5.966,0,0,0-.006-1.682A2.229,2.229,0,0,1,41.241,6.88l.057-.032a.778.778,0,0,0,.377-.472.759.759,0,0,0-.074-.589.806.806,0,0,0-1.086-.295l-.067.038A2.292,2.292,0,0,1,37.9,5.322a6.072,6.072,0,0,0-1.54-.885,2.229,2.229,0,0,1-1.433-2.078V2.344a.793.793,0,0,0-1.585,0A2.228,2.228,0,0,1,31.9,4.426a6.072,6.072,0,0,0-1.557.887,2.293,2.293,0,0,1-2.543.2l-.045-.025a.805.805,0,0,0-1.084.3.759.759,0,0,0-.074.589.776.776,0,0,0,.374.47l.015.009a2.241,2.241,0,0,1,1.132,2.264,5.96,5.96,0,0,0-.005,1.707,2.205,2.205,0,0,1-1.127,2.241l-.012.007a.778.778,0,0,0-.377.472.759.759,0,0,0,.074.589.806.806,0,0,0,1.086.295,2.286,2.286,0,0,1,1.118-.293Z" transform="translate(-24.98 0)" fill="#ea4c89"/>
      <path id="Path_161737" data-name="Path 161737" d="M155.161,159.322a4.161,4.161,0,1,1,4.161-4.161A4.166,4.166,0,0,1,155.161,159.322Zm0-6.737a2.576,2.576,0,1,0,2.576,2.576A2.579,2.579,0,0,0,155.161,152.585Z" transform="translate(-146.006 -145.161)" fill="#ea4c89"/>
    </g>
  </g>
</svg>
