<svg id="Group_115412" data-name="Group 115412" xmlns="http://www.w3.org/2000/svg" width="20" height="20" viewBox="0 0 20 20">
  <g id="Group_115411" data-name="Group 115411">
    <path id="Path_161714" data-name="Path 161714" d="M24.9,135.1v-6.6a3.975,3.975,0,0,1,3.978-3.953H26.583A3.953,3.953,0,0,0,22.63,128.5v6.6a3.953,3.953,0,0,0,3.953,3.953h2.293A3.975,3.975,0,0,1,24.9,135.1Z" transform="translate(-21.735 -119.861)" fill="#ea4c89" opacity="0.2"/>
    <path id="Path_161715" data-name="Path 161715" d="M7.07,123.73H4.687A4.685,4.685,0,0,1,0,119.058v-6.386A4.685,4.685,0,0,1,4.687,108H15.312A4.685,4.685,0,0,1,20,112.672v2.336a.781.781,0,0,1-1.562,0v-2.336a3.124,3.124,0,0,0-3.125-3.115H4.687a3.124,3.124,0,0,0-3.125,3.115v6.386a3.124,3.124,0,0,0,3.125,3.115H7.07a.779.779,0,1,1,0,1.557ZM20,121.355V119.3a2.389,2.389,0,0,0-2.39-2.382H15.547a.779.779,0,1,0,0,1.557H17.61a.827.827,0,0,1,.827.825v2.057a.781.781,0,0,0,1.563,0Zm-2.717-.475a.78.78,0,0,0-1.13-1.076,7.727,7.727,0,0,1-5.554,2.368h-.365a.779.779,0,1,0,0,1.557H10.6A9.3,9.3,0,0,0,17.283,120.88ZM5.117,111.66a.973.973,0,1,0,.977.973A.975.975,0,0,0,5.117,111.66Zm3.359,0a.973.973,0,1,0,.977.973A.975.975,0,0,0,8.477,111.66Zm3.359,0a.973.973,0,1,0,.977.973A.975.975,0,0,0,11.836,111.66Zm-6.719,3.349a.973.973,0,1,0,.977.973A.975.975,0,0,0,5.117,115.009Zm0,3.349a.973.973,0,1,0,.977.973A.975.975,0,0,0,5.117,118.357Zm3.359-3.349a.973.973,0,1,0,.977.973A.975.975,0,0,0,8.477,115.009Zm0,3.349a.973.973,0,1,0,.977.973A.975.975,0,0,0,8.477,118.357Zm3.359-3.349a.973.973,0,1,0,.977.973A.975.975,0,0,0,11.836,115.009Z" transform="translate(0 -103.73)" fill="#ea4c89"/>
    <path id="Path_161716" data-name="Path 161716" d="M85.884,3.163a.784.784,0,0,1-.777-.791.777.777,0,1,0-1.554,0,.777.777,0,1,1-1.554,0,2.331,2.331,0,1,1,4.661,0A.784.784,0,0,1,85.884,3.163ZM95.6,2.372a2.331,2.331,0,1,0-4.661,0,.777.777,0,1,0,1.554,0,.777.777,0,1,1,1.554,0,.777.777,0,1,0,1.554,0Zm-1.67,5.614a.988.988,0,1,0,.971.988A.98.98,0,0,0,93.925,7.986Z" transform="translate(-78.758)" fill="#ea4c89"/>
  </g>
</svg>
