<svg xmlns="http://www.w3.org/2000/svg" width="120" height="120" viewBox="0 0 120 120"><g transform="translate(-900 -262)"><circle cx="60" cy="60" r="60" transform="translate(900 262)" fill="#12af00" opacity="0.15"/><g transform="translate(933.634 301.121)"><path d="M20.192,40.563a2.691,2.691,0,0,1-3.807,0l-15.2-15.2a4.037,4.037,0,0,1,0-5.71l1.9-1.9a4.037,4.037,0,0,1,5.711,0l9.491,9.491L43.934,1.589a4.037,4.037,0,0,1,5.711,0l1.9,1.9a4.037,4.037,0,0,1,0,5.71Zm0,0" transform="translate(0 0)" fill="#12af00" stroke="rgba(0,0,0,0)" stroke-miterlimit="10" stroke-width="1"/></g></g></svg>