<svg xmlns="http://www.w3.org/2000/svg" width="25.677" height="19.971" viewBox="0 0 25.677 19.971">
  <g id="Group_117659" data-name="Group 117659" transform="translate(-20 -16.014)">
    <path id="Icon_awesome-credit-card" data-name="Icon awesome-credit-card" d="M0,20.081a2.14,2.14,0,0,0,2.14,2.14h21.4a2.14,2.14,0,0,0,2.14-2.14V12.236H0ZM8.559,17.05a.537.537,0,0,1,.535-.535h6.063a.537.537,0,0,1,.535.535v1.783a.537.537,0,0,1-.535.535H9.094a.537.537,0,0,1-.535-.535Zm-5.706,0a.537.537,0,0,1,.535-.535H6.6a.537.537,0,0,1,.535.535v1.783a.537.537,0,0,1-.535.535H3.388a.537.537,0,0,1-.535-.535ZM25.677,4.39V6.53H0V4.39A2.14,2.14,0,0,1,2.14,2.25h21.4A2.14,2.14,0,0,1,25.677,4.39Z" transform="translate(20 13.764)" fill="#92929e" opacity="0.3"/>
  </g>
</svg>
