<svg xmlns="http://www.w3.org/2000/svg" width="120" height="120" viewBox="0 0 120 120"><g transform="translate(-900 -262)"><circle cx="60" cy="60" r="60" transform="translate(900 262)" fill="#ea4c89" opacity="0.15"/><g transform="translate(934 292.006)"><g transform="translate(0 -1)"><path d="M17.206,34.467a9.7,9.7,0,0,1-4.367,1.472A3.993,3.993,0,0,0,9,33H4a4,4,0,0,0-4,4V57a4,4,0,0,0,4,4H9a4,4,0,0,0,3.852-2.98,6.533,6.533,0,0,1,2.45.618c.386.183.755.4,1.125.614a13.769,13.769,0,0,0,1.721.89A13.077,13.077,0,0,0,23,61H41a4,4,0,0,0,3.314-6.237,3.982,3.982,0,0,0,2-6,3.973,3.973,0,0,0,.72-7.188A3.953,3.953,0,0,0,48,39a4,4,0,0,0-4-4H31.368c1.564-2.978,4.406-9.635,1.64-14.477-1.217-2.127-3.76-3.791-6.461-2.415-2.818,1.432-2.187,4.261-1.883,5.619.775,3.484-1.734,7.1-7.458,10.74ZM9,59H4a2,2,0,0,1-2-2V37a2,2,0,0,1,2-2H9a2,2,0,0,1,2,2V57A2,2,0,0,1,9,59ZM26.616,23.292c-.452-2.023-.249-2.849.838-3.4,1.764-.9,3.231.6,3.818,1.625,2.989,5.234-2.411,13.861-2.466,13.948A1,1,0,0,0,29.65,37H44a2,2,0,0,1,0,4H38a1,1,0,0,0,0,2h7a2,2,0,0,1,0,4H38a1,1,0,0,0,0,2h5a2,2,0,0,1,0,4H38a1,1,0,0,0,0,2h3a2,2,0,0,1,0,4H23a11.051,11.051,0,0,1-4.1-.712,11.969,11.969,0,0,1-1.469-.766c-.416-.242-.834-.482-1.267-.689a8.551,8.551,0,0,0-3.164-.8V37.951a11.72,11.72,0,0,0,5.279-1.8c6.51-4.138,9.315-8.465,8.337-12.859Z" fill="#ea4c89"/><path d="M38.01,1.971V2c0,.368-.091,9-8.009,9a1,1,0,0,0,0,2c7.887,0,8.008,8.634,8.009,9a1,1,0,1,0,2,.027V22c0-.368.091-9,8.01-9a1,1,0,0,0,0-2c-7.888,0-8.008-8.634-8.01-9a1,1,0,1,0-2-.027ZM43.46,12a9.5,9.5,0,0,0-4.451,5.036A9.494,9.494,0,0,0,34.558,12a9.494,9.494,0,0,0,4.451-5.036A9.5,9.5,0,0,0,43.46,12Z" fill="#ea4c89"/><path d="M13,14v-.006A1,1,0,1,0,11,14c0,.245-.084,6-5,6a1,1,0,0,0,0,2c4.916,0,5,5.757,5,6v.006A1,1,0,1,0,13,28c0-.245.084-6,5-6a1,1,0,0,0,0-2C13.084,20,13,14.243,13,14Zm1.344,7A6.721,6.721,0,0,0,12,23.713,6.721,6.721,0,0,0,9.656,21,6.715,6.715,0,0,0,12,18.287,6.715,6.715,0,0,0,14.344,21Z" fill="#ea4c89"/><path d="M47,22a1,1,0,0,0-1,1v2a1,1,0,0,0,2,0V23A1,1,0,0,0,47,22Z" fill="#ea4c89"/><path d="M47,32a1,1,0,0,0,1-1V29a1,1,0,0,0-2,0v2A1,1,0,0,0,47,32Z" fill="#ea4c89"/><path d="M49,28h2a1,1,0,0,0,0-2H49a1,1,0,0,0,0,2Z" fill="#ea4c89"/><path d="M45,28a1,1,0,0,0,0-2H43a1,1,0,0,0,0,2Z" fill="#ea4c89"/><path d="M21.793,10.207l1.5,1.5a1,1,0,0,0,1.414-1.414l-1.5-1.5a1,1,0,1,0-1.414,1.414Z" fill="#ea4c89"/><path d="M18.793,7.207a1,1,0,0,0,1.414-1.414l-1.5-1.5a1,1,0,0,0-1.414,1.414Z" fill="#ea4c89"/><path d="M17.293,11.707a1,1,0,0,0,1.414,0l1.5-1.5a1,1,0,1,0-1.414-1.414l-1.5,1.5a1,1,0,0,0,0,1.414Z" fill="#ea4c89"/><path d="M22.5,7.5a1,1,0,0,0,.707-.293l1.5-1.5a1,1,0,1,0-1.414-1.414l-1.5,1.5A1,1,0,0,0,22.5,7.5Z" fill="#ea4c89"/></g></g></g></svg>