<svg xmlns="http://www.w3.org/2000/svg" width="22.495" height="26.739" viewBox="0 0 22.495 26.739"><path d="M10.581,22.49a1.9,1.9,0,0,0,.561-.08l4.812-.962a3.1,3.1,0,0,0,1.417-.775L29.027,9.017a4.8,4.8,0,0,0,0-6.656l-.989-1.043a4.828,4.828,0,0,0-6.683,0L9.7,13a3.211,3.211,0,0,0-.775,1.417L7.908,19.282a2.721,2.721,0,0,0,2.673,3.208Zm.909-7.565L23.145,3.243a2.15,2.15,0,0,1,2.941,0L27.1,4.259a2.074,2.074,0,0,1,0,3.074L15.473,19.015l-4.945.829Z" transform="translate(-7.875 0.025)" fill="#676767"/><path d="M29.012,90.4H9.283A1.207,1.207,0,0,0,8,91.683a1.282,1.282,0,0,0,1.283,1.283H28.9a1.287,1.287,0,1,0,.107-2.566Z" transform="translate(-7.966 -66.227)" fill="#ea4c89"/></svg>