<svg xmlns="http://www.w3.org/2000/svg" xmlns:xlink="http://www.w3.org/1999/xlink" width="210" height="210" viewBox="0 0 210 210">
  <defs>
    <filter id="Ellipse_1215" x="0" y="0" width="210" height="210" filterUnits="userSpaceOnUse">
      <feOffset dy="10" input="SourceAlpha"/>
      <feGaussianBlur stdDeviation="10" result="blur"/>
      <feFlood flood-color="#8a8a8a" flood-opacity="0.031"/>
      <feComposite operator="in" in2="blur"/>
      <feComposite in="SourceGraphic"/>
    </filter>
  </defs>
  <g id="Group_117900" data-name="Group 117900" transform="translate(-1004 -353)">
    <g id="Group_56326" data-name="Group 56326" transform="translate(1034 373)">
      <g id="Group_2519" data-name="Group 2519" transform="translate(0 0)">
        <g transform="matrix(1, 0, 0, 1, -30, -20)" filter="url(#Ellipse_1215)" style="mix-blend-mode: hard-light;isolation: isolate">
          <circle id="Ellipse_1215-2" data-name="Ellipse 1215" cx="75" cy="75" r="75" transform="translate(30 20)" fill="#ea4c89" opacity="0.06"/>
        </g>
        <g id="Group_116991" data-name="Group 116991" transform="translate(48 21.648)">
          <path id="Path_162316" data-name="Path 162316" d="M53.154,45.414A18.18,18.18,0,0,0,48.716,34.2a13.688,13.688,0,0,0-10.266-4.847c-5.251,0-9.617,3-11.83,4.872-2.161-1.888-6.44-4.872-11.889-4.872A13.688,13.688,0,0,0,4.464,34.2,18.18,18.18,0,0,0,.025,45.414a20.57,20.57,0,0,0,3.031,11.81c1.573,2.73,5.853,6.752,12.72,11.954,5,3.787,9.639,6.878,9.685,6.909a2.077,2.077,0,0,0,2.3,0c.034-.023,3.44-2.29,7.535-5.306a2.077,2.077,0,1,0-2.464-3.345c-2.6,1.913-4.909,3.517-6.224,4.415-5.645-3.841-17.5-12.444-19.954-16.7a16.645,16.645,0,0,1-2.48-9.541c.312-6.673,5.047-12.1,10.555-12.1,5.877,0,10.252,4.9,10.291,4.945a2.077,2.077,0,0,0,3.1.045c.046-.05,4.662-4.991,10.331-4.991,5.508,0,10.243,5.429,10.555,12.1a16.466,16.466,0,0,1-2.481,9.543c-.556.967-1.994,2.788-5.685,5.974a2.077,2.077,0,0,0,2.714,3.145c3.365-2.9,5.514-5.209,6.572-7.048a20.6,20.6,0,0,0,3.03-11.808Z" transform="translate(0)" fill="#ea4c89"/>
        </g>
      </g>
    </g>
    <g id="Ellipse_3559" data-name="Ellipse 3559" transform="translate(1121.425 389.498)" fill="none" stroke="#ea4c89" stroke-width="1.5" opacity="0.65">
      <circle cx="4.391" cy="4.391" r="4.391" stroke="none"/>
      <circle cx="4.391" cy="4.391" r="3.641" fill="none"/>
    </g>
    <g id="Ellipse_3560" data-name="Ellipse 3560" transform="translate(1163.817 458.217)" fill="#ea4c89" stroke="#ea4c89" stroke-width="1.5" opacity="0.65">
      <circle cx="2.696" cy="2.696" r="2.696" stroke="none"/>
      <circle cx="2.696" cy="2.696" r="1.946" fill="none"/>
    </g>
    <g id="close_2_" data-name="close (2)" transform="translate(1064.521 487.036) rotate(45)" opacity="0.65">
      <path id="Path_63956" data-name="Path 63956" d="M6.717,7.328a.608.608,0,0,1-.432-.179L.179,1.042A.611.611,0,1,1,1.042.179L7.149,6.285a.611.611,0,0,1-.432,1.042Zm0,0" transform="translate(0 0)" fill="#ea4c89" stroke="#ea4c89" stroke-width="1"/>
      <path id="Path_63957" data-name="Path 63957" d="M.611,7.328A.611.611,0,0,1,.179,6.285L6.285.179a.611.611,0,1,1,.863.863L1.042,7.149A.608.608,0,0,1,.611,7.328Zm0,0" fill="#ea4c89" stroke="#ea4c89" stroke-width="1"/>
    </g>
  </g>
</svg>
