<svg xmlns="http://www.w3.org/2000/svg" xmlns:xlink="http://www.w3.org/1999/xlink" width="210" height="210" viewBox="0 0 210 210">
  <defs>
    <filter id="Ellipse_1215" x="0" y="0" width="210" height="210" filterUnits="userSpaceOnUse">
      <feOffset dy="10" input="SourceAlpha"/>
      <feGaussianBlur stdDeviation="10" result="blur"/>
      <feFlood flood-color="#8a8a8a" flood-opacity="0.031"/>
      <feComposite operator="in" in2="blur"/>
      <feComposite in="SourceGraphic"/>
    </filter>
  </defs>
  <g id="Group_117901" data-name="Group 117901" transform="translate(-1004 -353)">
    <g id="Group_56326" data-name="Group 56326" transform="translate(1034 373)">
      <g id="Group_2519" data-name="Group 2519" transform="translate(0 0)">
        <g transform="matrix(1, 0, 0, 1, -30, -20)" filter="url(#Ellipse_1215)" style="mix-blend-mode: hard-light;isolation: isolate">
          <circle id="Ellipse_1215-2" data-name="Ellipse 1215" cx="75" cy="75" r="75" transform="translate(30 20)" fill="#ea4c89" opacity="0.06"/>
        </g>
        <g id="Group_116972" data-name="Group 116972" transform="translate(46 46)">
          <path id="Path_162312" data-name="Path 162312" d="M50.982,0H23.1a7.025,7.025,0,0,0-7.018,7.018v12.92a2.266,2.266,0,0,0,4.531,0V8.58l12.72,7.91a6.973,6.973,0,0,0,7.411,0l12.72-7.91v5.467a2.266,2.266,0,0,0,4.531,0V7.018A7.025,7.025,0,0,0,50.982,0ZM38.355,12.641a2.471,2.471,0,0,1-2.626,0l-13-8.082a2.5,2.5,0,0,1,.371-.028H50.982a2.5,2.5,0,0,1,.371.028ZM58,24.248a7.025,7.025,0,0,1-7.018,7.018H47.238a2.266,2.266,0,0,1,0-4.531h3.744a2.489,2.489,0,0,0,2.486-2.486,2.266,2.266,0,1,1,4.531,0ZM4.531,2.266A2.265,2.265,0,0,1,6.8,0H9.176a2.266,2.266,0,0,1,0,4.531H6.8A2.265,2.265,0,0,1,4.531,2.266ZM2.265,11.1A2.265,2.265,0,0,1,4.531,8.836H9.176a2.266,2.266,0,0,1,0,4.531H4.531A2.265,2.265,0,0,1,2.265,11.1ZM0,19.937a2.265,2.265,0,0,1,2.266-2.266h6.91a2.266,2.266,0,0,1,0,4.531H2.265A2.265,2.265,0,0,1,0,19.937ZM45.312,38.062A2.265,2.265,0,0,1,47.578,35.8H51.2a2.266,2.266,0,0,1,0,4.531H47.578A2.265,2.265,0,0,1,45.312,38.062Zm0,8.836a2.265,2.265,0,0,1,2.266-2.266h5.891a2.266,2.266,0,0,1,0,4.531H47.578A2.265,2.265,0,0,1,45.312,46.9ZM58,55.734A2.265,2.265,0,0,1,55.734,58H47.578a2.266,2.266,0,0,1,0-4.531h8.156A2.265,2.265,0,0,1,58,55.734Zm-23.1-29H7.017A7.025,7.025,0,0,0,0,33.752v17.23A7.025,7.025,0,0,0,7.017,58H34.9a7.025,7.025,0,0,0,7.018-7.018V33.752A7.025,7.025,0,0,0,34.9,26.734Zm0,4.531a2.5,2.5,0,0,1,.371.028l-13,8.082a2.471,2.471,0,0,1-2.626,0l-13-8.082a2.5,2.5,0,0,1,.371-.028Zm0,22.2H7.017a2.489,2.489,0,0,1-2.486-2.486V35.314l12.72,7.91a6.973,6.973,0,0,0,7.411,0l12.72-7.91V50.982A2.489,2.489,0,0,1,34.9,53.468Zm0,0" fill="#ea4c89"/>
        </g>
      </g>
    </g>
    <g id="Ellipse_3559" data-name="Ellipse 3559" transform="translate(1121.426 389.498)" fill="none" stroke="#ea4c89" stroke-width="1.5" opacity="0.65">
      <circle cx="4.391" cy="4.391" r="4.391" stroke="none"/>
      <circle cx="4.391" cy="4.391" r="3.641" fill="none"/>
    </g>
    <g id="Ellipse_3560" data-name="Ellipse 3560" transform="translate(1163.816 458.217)" fill="#ea4c89" stroke="#ea4c89" stroke-width="1.5" opacity="0.65">
      <circle cx="2.696" cy="2.696" r="2.696" stroke="none"/>
      <circle cx="2.696" cy="2.696" r="1.946" fill="none"/>
    </g>
    <g id="close_2_" data-name="close (2)" transform="translate(1064.521 487.035) rotate(45)" opacity="0.65">
      <path id="Path_63956" data-name="Path 63956" d="M6.717,7.328a.608.608,0,0,1-.432-.179L.179,1.042A.611.611,0,1,1,1.042.179L7.149,6.285a.611.611,0,0,1-.432,1.042Zm0,0" transform="translate(0 0)" fill="#ea4c89" stroke="#ea4c89" stroke-width="1"/>
      <path id="Path_63957" data-name="Path 63957" d="M.611,7.328A.611.611,0,0,1,.179,6.285L6.285.179a.611.611,0,1,1,.863.863L1.042,7.149A.608.608,0,0,1,.611,7.328Zm0,0" fill="#ea4c89" stroke="#ea4c89" stroke-width="1"/>
    </g>
  </g>
</svg>
