<svg id="Component_47_1" data-name="Component 47 – 1" xmlns="http://www.w3.org/2000/svg" width="26.067" height="26" viewBox="0 0 26.067 26">
  <rect id="Rectangle_13899" data-name="Rectangle 13899" width="26" height="26" fill="none"/>
  <g id="Hair" transform="translate(0.028 0.472)">
    <ellipse id="Ellipse_10075" data-name="Ellipse 10075" cx="7.152" cy="5.304" rx="7.152" ry="5.304" transform="translate(11.628 0.263)" fill="#ea4c89"/>
    <path id="Ellipse_10075_-_Outline" data-name="Ellipse 10075 - Outline" d="M4.548-2.71c4,0,7.258,2.427,7.258,5.41S8.551,8.11,4.548,8.11-2.71,5.683-2.71,2.7.546-2.71,4.548-2.71Zm0,10.607c3.885,0,7.046-2.332,7.046-5.2S8.434-2.5,4.548-2.5-2.5-.166-2.5,2.7.663,7.9,4.548,7.9Z" transform="translate(14.232 2.867)" fill="#cb2f6b"/>
    <path id="Line_694" data-name="Line 694" d="M-.894,6.54-.905,0h.071L-.823,6.54Z" transform="translate(0.941 2.263)" fill="#4d4e4e"/>
    <path id="Path_162079" data-name="Path 162079" d="M184.522,200.068a9.491,9.491,0,0,0,.164,1.589,7.677,7.677,0,0,0,.362,1.308,2.386,2.386,0,0,0,.6,1.063,1.8,1.8,0,0,0,.852.409,1.7,1.7,0,0,0,.958-.082,1.473,1.473,0,0,0,.677-.514,1.376,1.376,0,0,0,.2-.432,7.477,7.477,0,0,0,.14-2.207c-.011-.4,0-.8,0-1.2,0-1.346,0-2.019.035-2.78a16.955,16.955,0,0,1,.257-2.476,10.207,10.207,0,0,1,.584-2.09,5.506,5.506,0,0,1,.794-1.437,3.513,3.513,0,0,1,1.659-1.3c.2-.06.284-.06.667-.175a9.78,9.78,0,0,0,1.1-.409c1.181-.549,2.766-6.949.015-8.972a5.05,5.05,0,0,0-1.255-.617,9.236,9.236,0,0,0-3.636-.437,27.652,27.652,0,0,0-4.835.353c-.387.066-.058.02-2.946.62-1.327.275-2.1.432-3.045.606-1.034.19-1.563.287-2.2.366-.952.118-1.726.165-2.523.211-.765.045-1.407.067-1.871.078v6.383c.581.019,1.356.053,2.272.118.667.046,1.4.1,2.32.206,1.078.128,1.856.27,2.9.464,2.412.446,2.01.471,3.145.653a4.267,4.267,0,0,1,.836.219,2.587,2.587,0,0,1,1.085.628,2.651,2.651,0,0,1,.579,1.2,4.292,4.292,0,0,1,.135.706,21.315,21.315,0,0,1,.1,2.853c-.065,1.825-.122,2.024-.142,3.194C184.493,198.989,184.508,199.653,184.522,200.068Z" transform="translate(-171.164 -179.202)" fill="#ea4c89"/>
    <path id="Path_162079_-_Outline" data-name="Path 162079 - Outline" d="M184.232,201.973h0a1.814,1.814,0,0,1-.361-.036,1.908,1.908,0,0,1-.9-.432,2.505,2.505,0,0,1-.626-1.106,7.8,7.8,0,0,1-.367-1.327,9.625,9.625,0,0,1-.165-1.606c-.021-.622-.026-1.262-.015-1.9.01-.607.031-.956.057-1.4.025-.415.054-.917.085-1.8a21.279,21.279,0,0,0-.1-2.838,4.194,4.194,0,0,0-.132-.688,2.556,2.556,0,0,0-.554-1.16,2.5,2.5,0,0,0-1.045-.6,4.171,4.171,0,0,0-.815-.213,9.8,9.8,0,0,1-1-.2c-.345-.086-.818-.2-2.152-.451-1.008-.186-1.8-.333-2.9-.463-.917-.109-1.66-.16-2.315-.206-.754-.054-1.517-.093-2.268-.117l-.1,0v-6.59l.1,0c.612-.015,1.241-.041,1.867-.078.722-.042,1.54-.09,2.516-.211.623-.078,1.122-.168,2.193-.365.921-.17,1.651-.318,3.042-.606,1.661-.346,2.257-.477,2.538-.538.209-.046.245-.054.411-.082a27.86,27.86,0,0,1,4.851-.355l.337,0a8.745,8.745,0,0,1,3.338.445,5.137,5.137,0,0,1,1.281.63c1.2.881,1.749,2.735,1.515,5.088-.193,1.935-.888,3.759-1.548,4.066a9.766,9.766,0,0,1-1.113.414c-.222.067-.346.1-.449.119-.074.017-.136.031-.217.056a3.392,3.392,0,0,0-1.607,1.261,5.435,5.435,0,0,0-.779,1.411,10.26,10.26,0,0,0-.578,2.069,16.971,16.971,0,0,0-.255,2.462c-.038.758-.037,1.432-.035,2.774l0,.4c0,.266-.005.532,0,.8l.006.2a6.807,6.807,0,0,1-.15,2.035,1.475,1.475,0,0,1-.213.463,1.574,1.574,0,0,1-.725.552A1.8,1.8,0,0,1,184.232,201.973Zm-15.46-16.751c.721.025,1.451.063,2.173.114.658.046,1.4.1,2.325.207,1.1.131,1.9.278,2.912.465,1.34.248,1.817.367,2.165.453a9.639,9.639,0,0,0,.978.2,4.383,4.383,0,0,1,.856.224,2.669,2.669,0,0,1,1.126.655,2.761,2.761,0,0,1,.6,1.249,4.407,4.407,0,0,1,.138.724,21.5,21.5,0,0,1,.1,2.867c-.031.884-.061,1.387-.086,1.8-.026.44-.046.787-.057,1.39-.011.633-.006,1.268.015,1.889a9.42,9.42,0,0,0,.162,1.573,7.589,7.589,0,0,0,.357,1.291,2.293,2.293,0,0,0,.567,1.021,1.7,1.7,0,0,0,.8.383,1.6,1.6,0,0,0,.9-.076,1.369,1.369,0,0,0,.629-.476,1.266,1.266,0,0,0,.183-.4,6.642,6.642,0,0,0,.143-1.973l-.006-.2c-.008-.268-.005-.537,0-.806l0-.4c0-1.346,0-2.022.035-2.785a17.143,17.143,0,0,1,.259-2.49,10.474,10.474,0,0,1,.591-2.112,5.61,5.61,0,0,1,.809-1.461,3.628,3.628,0,0,1,1.711-1.332c.087-.027.154-.042.233-.06.1-.023.22-.05.435-.115a9.742,9.742,0,0,0,1.084-.4c.515-.239,1.227-1.9,1.426-3.894.107-1.077.183-3.71-1.429-4.9a4.969,4.969,0,0,0-1.23-.6,8.37,8.37,0,0,0-3.263-.432l-.335,0a27.686,27.686,0,0,0-4.818.352c-.162.028-.2.035-.4.08-.281.062-.877.193-2.54.539-1.393.288-2.124.436-3.047.607-1.075.2-1.576.289-2.2.367-.983.121-1.8.17-2.53.212-.594.035-1.189.061-1.771.076Z" transform="translate(-168.56 -176.599)" fill="#cb2f6b"/>
    <rect id="Rectangle_13885" data-name="Rectangle 13885" width="1.091" height="2.673" rx="0.545" transform="translate(12.561 13.251)" fill="#c33371"/>
    <rect id="Rectangle_13886" data-name="Rectangle 13886" width="0.932" height="1.865" rx="0.466" transform="translate(12.719 16.592)" fill="#c33371"/>
    <path id="Path_162083" data-name="Path 162083" d="M249.05,224.459q-.514,0-1.028-.033l.037-.566a29.539,29.539,0,0,0,7.657-.864,28.083,28.083,0,0,1,8.276-.831l-.056.564a27.66,27.66,0,0,0-8.108.823A34.538,34.538,0,0,1,249.05,224.459Z" transform="translate(-244.905 -220.308)" fill="#cb2f6b"/>
    <g id="Group-29" transform="translate(14.516 22.713)">
      <path id="Path" d="M.9,2.57l-.089.182L.725,2.724a.387.387,0,0,0-.518.342.42.42,0,0,0,.218.423.4.4,0,0,0,.254.046A.311.311,0,0,0,.855,3.47a.27.27,0,0,0,.1-.2A.054.054,0,0,0,.9,3.207H.618a.1.1,0,0,1-.091-.151.094.094,0,0,1,.085-.05c.1,0,.2,0,.3,0a.256.256,0,0,1,.244.244.48.48,0,0,1-.409.479.652.652,0,0,1-.313-.014.608.608,0,0,1-.428-.5.588.588,0,0,1,.168-.545.565.565,0,0,1,.614-.139C.828,2.545.862,2.558.9,2.57Z" transform="translate(0 -2.417)" fill="#fff"/>
      <path id="Path-2" data-name="Path" d="M31.374.305a.564.564,0,0,1,.2.221c.01.02.019.041.03.065l-.022,0H31.4a.03.03,0,0,1-.028-.014A.34.34,0,0,0,31.2.445L31.1.411C31.077.4,31.076.4,31.085.38a.578.578,0,0,1,.25-.3A.588.588,0,1,1,31.7,1.172a.871.871,0,0,1-.119,0,.025.025,0,0,0-.027.014.809.809,0,0,1-.054.083.1.1,0,0,1-.137.022.1.1,0,0,1-.028-.137.688.688,0,0,0,.1-.219l0-.009a.391.391,0,0,0,.384,0A.375.375,0,0,0,32,.724a.386.386,0,0,0-.164-.471A.382.382,0,0,0,31.374.305Z" transform="translate(-30.074 0)" fill="#fff"/>
      <path id="Path-3" data-name="Path" d="M50.625,14.118a.069.069,0,1,1-.069-.069A.069.069,0,0,1,50.625,14.118Z" transform="translate(-48.853 -13.594)" fill="#fff"/>
    </g>
  </g>
</svg>
