<svg xmlns="http://www.w3.org/2000/svg" width="14.002" height="14.002" viewBox="0 0 14.002 14.002"><g transform="translate(-3.75 -3.75)"><path d="M15.613,27.417H5.889A2.142,2.142,0,0,1,3.75,25.278V22.5a.75.75,0,1,1,1.5,0v2.778a.64.64,0,0,0,.639.639h9.724a.64.64,0,0,0,.639-.639V22.5a.75.75,0,0,1,1.5,0v2.778A2.142,2.142,0,0,1,15.613,27.417Z" transform="translate(0 -9.665)" fill="#fff"/><path d="M17.446,8.723a.748.748,0,0,1-.53-.22L13.973,5.561,11.03,8.5A.75.75,0,0,1,9.97,7.443L13.443,3.97a.75.75,0,0,1,1.061,0l3.473,3.473a.75.75,0,0,1-.53,1.28Z" transform="translate(-3.222)" fill="#fff"/><path d="M18,13.585a.75.75,0,0,1-.75-.75V4.5a.75.75,0,0,1,1.5,0v8.335A.75.75,0,0,1,18,13.585Z" transform="translate(-7.249)" fill="#fff"/></g></svg>