<svg id="Landing" xmlns="http://www.w3.org/2000/svg" width="195.058" height="37.75" viewBox="0 0 195.058 37.75">
  <g id="Group-31" transform="translate(0 0)">
    <g id="Group-29" transform="translate(0 0)">
      <path id="Path" d="M25.528,4.568l-2.535,5.18c-.745-.251-1.552-.5-2.344-.791A11.025,11.025,0,0,0,5.9,18.7,11.96,11.96,0,0,0,12.111,30.76a11.462,11.462,0,0,0,7.228,1.3A8.872,8.872,0,0,0,24.352,30.2a7.7,7.7,0,0,0,2.9-5.663,1.533,1.533,0,0,0-1.719-1.812H17.6a2.868,2.868,0,0,1-2.584-4.3,2.668,2.668,0,0,1,2.41-1.436c2.888-.016,5.776-.032,8.664,0a7.293,7.293,0,0,1,6.958,6.961A13.688,13.688,0,0,1,21.412,37.605a18.587,18.587,0,0,1-8.9-.412A17.332,17.332,0,0,1,.324,23.018,16.754,16.754,0,0,1,5.112,7.481c4.936-4.911,10.873-6.116,17.48-3.953C23.591,3.846,24.57,4.226,25.528,4.568Z" transform="translate(0 -0.196)" fill="#ea4c89"/>
      <path id="Path-2" data-name="Path" d="M39.462,8.69a16.083,16.083,0,0,1,5.772,6.295c.3.575.546,1.18.852,1.842-.3.023-.453.043-.625.045H40.2a.845.845,0,0,1-.8-.405,9.683,9.683,0,0,0-4.949-3.78c-.926-.322-1.851-.652-2.777-.972-.68-.227-.693-.227-.453-.892a16.467,16.467,0,0,1,7.133-8.506A16.765,16.765,0,1,1,48.83,33.389a24.824,24.824,0,0,1-3.386.045.72.72,0,0,0-.761.4,23.03,23.03,0,0,1-1.531,2.374,2.85,2.85,0,0,1-3.9.625,2.8,2.8,0,0,1-.8-3.905,19.612,19.612,0,0,0,2.856-6.243,2.815,2.815,0,0,1,.1-.267,11.128,11.128,0,0,0,10.943-.07,10.68,10.68,0,0,0,4.913-5.738A11,11,0,0,0,52.593,7.186,10.894,10.894,0,0,0,39.462,8.69Z" transform="translate(-2.434)" fill="#ea4c89"/>
      <path id="Path-3" data-name="Path" d="M54.432,16.026a1.973,1.973,0,1,1-1.98-1.977A1.973,1.973,0,0,1,54.432,16.026Z" transform="translate(-3.954 -1.1)" fill="#ea4c89"/>
    </g>
    <g id="Group-30" transform="translate(69.306 8.498)">
      <path id="Path-4" data-name="Path" d="M61.34,3.969a6.576,6.576,0,0,0-.566.419c-.283.244-.566.5-.895.807-.224-.19-.43-.368-.643-.538-2.574-2.1-5.431-3.027-8.7-1.962a7.39,7.39,0,0,0-5.289,7.447A7.727,7.727,0,0,0,51.342,17.1,7.6,7.6,0,0,0,58.1,15.728a6.152,6.152,0,0,0,2.146-3.788c-.357-.02-.631-.048-.906-.048H55.233c-.476,0-.665-.153-.674-.651,0-1.181-.037-1.181,1.132-1.181h5.734c.968,0,.983.017.909,1a8.229,8.229,0,0,1-7.928,8.013c-3.738.3-6.977-.725-9.3-3.837A9.228,9.228,0,0,1,49.788.888,11.03,11.03,0,0,1,60.83,3.411C60.963,3.536,61.079,3.686,61.34,3.969Z" transform="translate(-3.388 -0.027)" fill="#ea4c89"/>
      <path id="Path-5" data-name="Path" d="M18.046,3.9l-1.39,1.3-.612-.512C13.453,2.577,10.585,1.62,7.287,2.7a7.36,7.36,0,0,0-5.261,7.523,7.723,7.723,0,0,0,6.153,6.889,7.7,7.7,0,0,0,6.119-.963,5.867,5.867,0,0,0,2.667-4.247H11.369a11.747,11.747,0,0,1,.023-1.467.6.6,0,0,1,.464-.351c2.24-.025,4.479-.014,6.722-.023.394,0,.544.147.529.546-.15,4.468-2.786,7.563-6.645,8.279-4.04.75-7.679-.048-10.405-3.4A9.267,9.267,0,0,1,7.663.586,11.208,11.208,0,0,1,17.726,3.517a4.542,4.542,0,0,1,.32.382Z" transform="translate(0 -0.028)" fill="#ea4c89"/>
      <path id="Combined-Shape" d="M128.373,5.53a7.172,7.172,0,0,1,5.063,2.251c0-.43.017-.864,0-1.294s.138-.629.6-.648c1.215-.045,1.215-.065,1.215,1.158,0,3.16.017,6.32,0,9.48a19.12,19.12,0,0,1-.224,2.956,5.228,5.228,0,0,1-3.519,4.247,8.891,8.891,0,0,1-6.759-.2,5.7,5.7,0,0,1-3.121-3.4,2.324,2.324,0,0,1,2.521.765c1.747,2.206,6.113,2.319,8.131.354,1.218-1.186,1.133-2.7,1.133-4.383a7,7,0,0,1-6.688,2.112,6.6,6.6,0,0,1-3.986-2.509A6.846,6.846,0,0,1,128.373,5.53Zm-4.443,9.518a5,5,0,0,0,4.452,2.343h.105a6.129,6.129,0,0,0,1.681-.246,4.667,4.667,0,0,0,3.353-4.794,4.916,4.916,0,0,0-5-5.1,5.155,5.155,0,0,0-5.267,5.213,5.332,5.332,0,0,0,.191,1.432l.017.058a4.8,4.8,0,0,0,.214.59c.029.067.061.134.093.2l.039.076c.027.051.053.1.082.151Z" transform="translate(-9.509 -0.433)" fill="#ea4c89"/>
      <path id="Combined-Shape-2" data-name="Combined-Shape" d="M99.868.869c2.024.082,4.057.031,6.076.164a4.4,4.4,0,0,1,4.265,4.431,4.392,4.392,0,0,1-4.03,4.782c-1.466.181-2.961.147-4.445.212l-.883.042V18.73c-.544,0-1.031.028-1.512-.02-.133,0-.283-.244-.351-.4a1.027,1.027,0,0,1-.014-.419c0-5.38.014-10.759-.02-16.125C98.954,1.022,99.169.841,99.868.869Zm.983,7.869c1.857-.11,3.624-.116,5.357-.354l.072-.011.071-.014a2.685,2.685,0,0,0,1.931-2.6l0-.072a2.622,2.622,0,0,0-1.9-2.676h0c-1.8-.249-3.627-.263-5.484-.379-.026.368-.048.527-.048.688C100.848,5.037,100.851,6.753,100.851,8.738Z" transform="translate(-7.749 -0.068)" fill="#ea4c89"/>
      <path id="Combined-Shape-3" data-name="Combined-Shape" d="M31.321,5.524a6.832,6.832,0,0,1,6.909,6.991,6.924,6.924,0,1,1-13.848.042A6.863,6.863,0,0,1,31.321,5.524ZM31.363,17.7a5,5,0,0,0,5.029-5.2,5.292,5.292,0,0,0-1.5-3.718,4.983,4.983,0,0,0-3.609-1.518q-.151,0-.3.011-.1.007-.207.018a5.152,5.152,0,0,0-4.554,5.018q0,.118,0,.237,0,.144.008.286v0a5.368,5.368,0,0,0,.293,1.493l.013.037q.033.093.07.184a4.991,4.991,0,0,0,4.388,3.135l.154.007.128,0Z" transform="translate(-1.909 -0.433)" fill="#ea4c89"/>
      <path id="Path-6" data-name="Path" d="M76.568,8.054A6.476,6.476,0,0,1,80.7,5.559a4.667,4.667,0,0,1,5.414,3.822,11.19,11.19,0,0,1,.215,1.965c.025,2.359,0,4.72.031,7.079,0,.764-.445.674-.92.682s-.926.051-.915-.694c.031-2.169,0-4.341,0-6.512a14.76,14.76,0,0,0-.076-1.622A3.257,3.257,0,0,0,79.98,7.343a4.417,4.417,0,0,0-3.239,3.89c-.144,2.3-.11,4.618-.173,6.928,0,.3-.079.824-.218.849a3.323,3.323,0,0,1-1.387,0c-.113-.023-.2-.481-.2-.739-.014-3.633,0-7.268,0-10.9,0-.306.02-.614,0-.92-.031-.459.167-.612.62-.626,1.2-.034,1.2-.051,1.2,1.164Z" transform="translate(-5.855 -0.431)" fill="#ea4c89"/>
      <path id="Path-7" data-name="Path" d="M115.406,12.492c0-1.982.031-3.964-.014-5.946-.018-.7.351-.714.849-.682s1.014-.187,1.008.66c-.026,3.987-.017,7.973,0,11.957,0,.49-.172.654-.663.657-1.16,0-1.16.031-1.16-1.133Z" transform="translate(-9.037 -0.459)" fill="#ea4c89"/>
      <path id="Path-8" data-name="Path" d="M91.939,12.419c0-1.931.034-3.865-.017-5.8-.02-.764.374-.77.92-.764s.946-.034.94.747q-.054,5.9,0,11.8c0,.793-.445.722-.957.728s-.912.025-.9-.708C91.964,16.428,91.939,14.423,91.939,12.419Z" transform="translate(-7.199 -0.459)" fill="#ea4c89"/>
      <path id="Path-9" data-name="Path" d="M68.045,12.493c0-1.982.031-3.964-.017-5.946-.017-.77.439-.68.915-.685s.9-.057.892.7q-.051,5.946,0,11.892c0,.77-.428.679-.906.685s-.914.048-.9-.7C68.073,16.457,68.045,14.475,68.045,12.493Z" transform="translate(-5.327 -0.459)" fill="#ea4c89"/>
      <path id="Path-10" data-name="Path" d="M67.441,1.444a1.439,1.439,0,1,1,1.406,1.471,1.439,1.439,0,0,1-1.406-1.471Z" transform="translate(-5.282 -0.003)" fill="#ea4c89"/>
      <path id="Path-11" data-name="Path" d="M117.7,1.442a1.436,1.436,0,0,1-2.871.065,1.46,1.46,0,0,1,1.443-1.5A1.436,1.436,0,0,1,117.7,1.442Z" transform="translate(-8.993 -0.001)" fill="#ea4c89"/>
      <path id="Path-12" data-name="Path" d="M92.847,0a1.486,1.486,0,0,1,1.416,1.475A1.464,1.464,0,0,1,92.79,2.891a1.376,1.376,0,0,1-1.382-1.464A1.416,1.416,0,0,1,92.847,0Z" transform="translate(-7.158 0)" fill="#ea4c89"/>
    </g>
  </g>
</svg>
