<svg id="Landing" xmlns="http://www.w3.org/2000/svg" width="217" height="41.996" viewBox="0 0 217 41.996">
  <g id="Group-31" transform="translate(0 0)">
    <g id="Group-29" transform="translate(0 0)">
      <path id="Path" d="M28.792,4.8l-2.859,5.758c-.84-.279-1.75-.556-2.644-.879A12.425,12.425,0,0,0,6.655,20.5C6.144,26.33,8.5,30.895,13.66,33.911a13.091,13.091,0,0,0,8.152,1.448,10.1,10.1,0,0,0,5.654-2.072,8.513,8.513,0,0,0,3.27-6.294A1.715,1.715,0,0,0,28.8,24.978H19.855a3.19,3.19,0,0,1-2.915-4.784,3.016,3.016,0,0,1,2.718-1.6c3.257-.018,6.515-.035,9.772,0a8.167,8.167,0,0,1,7.848,7.737A15.282,15.282,0,0,1,24.15,41.519a21.262,21.262,0,0,1-10.043-.458C6.412,38.478,1.793,33.143.365,25.305a18.451,18.451,0,0,1,5.4-17.269c5.567-5.458,12.263-6.8,19.715-4.393C26.608,4,27.711,4.419,28.792,4.8Z" transform="translate(0 0.099)" fill="#fff"/>
      <path id="Path-2" data-name="Path" d="M40.534,9.666a17.985,17.985,0,0,1,6.51,7c.337.64.616,1.313.961,2.048-.335.025-.511.048-.705.05H41.361a.957.957,0,0,1-.9-.451,10.9,10.9,0,0,0-5.582-4.205c-1.045-.358-2.087-.726-3.132-1.081-.766-.252-.782-.252-.511-.993a18.383,18.383,0,0,1,8.045-9.461C49.4-3.39,62.911,1.462,66.758,12.448a18.4,18.4,0,0,1-1.8,16.063A18.916,18.916,0,0,1,51.1,37.139a28.389,28.389,0,0,1-3.819.05.815.815,0,0,0-.858.448A25.578,25.578,0,0,1,44.7,40.279a3.244,3.244,0,0,1-4.4.7,3.094,3.094,0,0,1-.9-4.344,21.674,21.674,0,0,0,3.222-6.944,3.108,3.108,0,0,1,.118-.3,12.7,12.7,0,0,0,12.342-.078,11.927,11.927,0,0,0,5.541-6.382A12.158,12.158,0,0,0,55.344,7.993,12.417,12.417,0,0,0,40.534,9.666Z" transform="translate(1.229 0)" fill="#fff"/>
      <path id="Path-3" data-name="Path" d="M54.936,16.279a2.225,2.225,0,1,1-2.233-2.23A2.225,2.225,0,0,1,54.936,16.279Z" transform="translate(1.996 0.333)" fill="#fff"/>
    </g>
    <g id="Group-30" transform="translate(75.168 9.004)">
      <path id="Path-4" data-name="Path" d="M63.652,4.432a7.416,7.416,0,0,0-.639.473c-.319.275-.639.568-1.009.91-.252-.214-.485-.415-.725-.607-2.9-2.363-6.125-3.414-9.81-2.213a8.335,8.335,0,0,0-5.965,8.4,8.715,8.715,0,0,0,6.872,7.843A8.567,8.567,0,0,0,60,17.694a6.939,6.939,0,0,0,2.421-4.273c-.4-.022-.712-.054-1.022-.054H56.763c-.537,0-.75-.172-.76-.735,0-1.332-.042-1.332,1.277-1.332h6.467c1.092,0,1.108.019,1.025,1.131a9.282,9.282,0,0,1-8.942,9.037c-4.215.339-7.869-.817-10.494-4.327A10.408,10.408,0,0,1,50.622.957,12.441,12.441,0,0,1,63.077,3.8C63.227,3.943,63.358,4.112,63.652,4.432Z" transform="translate(1.711 0.014)" fill="#fff"/>
      <path id="Path-5" data-name="Path" d="M20.353,4.351,18.785,5.817l-.69-.578C15.174,2.86,11.939,1.781,8.218,3a8.3,8.3,0,0,0-5.933,8.485,8.711,8.711,0,0,0,6.939,7.77,8.681,8.681,0,0,0,6.9-1.086,6.617,6.617,0,0,0,3.008-4.79h-6.31a13.249,13.249,0,0,1,.025-1.654.677.677,0,0,1,.524-.4c2.526-.029,5.052-.016,7.581-.026.444,0,.613.166.6.616-.169,5.039-3.142,8.53-7.5,9.338C9.5,22.107,5.4,21.206,2.32,17.429A10.453,10.453,0,0,1,8.643.615,12.641,12.641,0,0,1,19.993,3.92a5.122,5.122,0,0,1,.361.431Z" transform="translate(0 0.014)" fill="#fff"/>
      <path id="Combined-Shape" d="M129.262,5.53a8.089,8.089,0,0,1,5.71,2.539c0-.485.019-.974,0-1.459s.156-.709.68-.731c1.37-.051,1.37-.073,1.37,1.306,0,3.564.019,7.128,0,10.692a21.563,21.563,0,0,1-.253,3.334A5.9,5.9,0,0,1,132.8,26a10.027,10.027,0,0,1-7.623-.223,6.432,6.432,0,0,1-3.52-3.839c1.182-.147,2.028-.166,2.843.862,1.97,2.488,6.894,2.615,9.171.4,1.373-1.338,1.278-3.04,1.278-4.944a7.9,7.9,0,0,1-7.543,2.382,7.449,7.449,0,0,1-4.5-2.829A7.722,7.722,0,0,1,129.262,5.53Zm-5.012,10.735a5.639,5.639,0,0,0,5.021,2.643h.118a6.913,6.913,0,0,0,1.9-.277,5.264,5.264,0,0,0,3.782-5.406,5.544,5.544,0,0,0-5.643-5.748,5.815,5.815,0,0,0-5.94,5.879,6.014,6.014,0,0,0,.215,1.615l.019.065a5.419,5.419,0,0,0,.241.665c.033.076.069.151.1.225l.044.085c.03.057.06.114.093.17Z" transform="translate(4.801 0.219)" fill="#fff"/>
      <path id="Combined-Shape-2" data-name="Combined-Shape" d="M99.985.87c2.283.093,4.576.035,6.853.185a4.965,4.965,0,0,1,4.81,5,4.953,4.953,0,0,1-4.545,5.394c-1.654.2-3.34.166-5.014.24l-1,.048v9.28c-.613,0-1.163.032-1.706-.022-.15,0-.319-.275-.4-.457a1.159,1.159,0,0,1-.016-.473c0-6.068.016-12.135-.022-18.187C98.954,1.042,99.2.838,99.985.87Zm1.108,8.875c2.095-.125,4.087-.131,6.042-.4l.081-.012.08-.015a3.028,3.028,0,0,0,2.178-2.932l0-.081a2.957,2.957,0,0,0-2.144-3.018h0c-2.027-.281-4.091-.3-6.185-.428-.029.415-.054.594-.054.776C101.09,5.57,101.093,7.506,101.093,9.744Z" transform="translate(3.913 0.034)" fill="#fff"/>
      <path id="Combined-Shape-3" data-name="Combined-Shape" d="M32.208,5.524A7.706,7.706,0,0,1,40,13.408a7.81,7.81,0,1,1-15.619.048A7.741,7.741,0,0,1,32.208,5.524Zm.048,13.738a5.638,5.638,0,0,0,5.672-5.86,5.968,5.968,0,0,0-1.7-4.193A5.62,5.62,0,0,0,32.16,7.5q-.171,0-.339.012-.117.007-.233.02a5.811,5.811,0,0,0-5.137,5.66q-.005.133,0,.267,0,.163.009.323v0a6.055,6.055,0,0,0,.33,1.684l.015.042q.038.1.079.207a5.63,5.63,0,0,0,4.949,3.536l.174.008.145,0Z" transform="translate(0.964 0.218)" fill="#fff"/>
      <path id="Path-6" data-name="Path" d="M76.8,8.379a7.3,7.3,0,0,1,4.659-2.813,5.264,5.264,0,0,1,6.106,4.311,12.623,12.623,0,0,1,.243,2.216c.029,2.66,0,5.323.035,7.984,0,.862-.5.76-1.038.77s-1.044.057-1.032-.782c.035-2.446,0-4.9,0-7.345a16.648,16.648,0,0,0-.086-1.83c-.319-2.727-2.386-4.075-5.039-3.312a4.982,4.982,0,0,0-3.653,4.388c-.163,2.6-.125,5.209-.195,7.814,0,.342-.089.929-.246.958a3.748,3.748,0,0,1-1.565,0c-.128-.026-.224-.543-.224-.834-.016-4.1,0-8.2,0-12.295,0-.345.022-.693,0-1.038-.035-.517.188-.69.7-.706,1.357-.038,1.357-.057,1.357,1.313Z" transform="translate(2.956 0.218)" fill="#fff"/>
      <path id="Path-7" data-name="Path" d="M115.408,13.341c0-2.235.035-4.471-.016-6.706-.02-.789.4-.8.957-.77s1.143-.211,1.137.744c-.029,4.5-.019,8.993,0,13.486,0,.552-.194.738-.747.741-1.309,0-1.309.035-1.309-1.278Z" transform="translate(4.563 0.232)" fill="#fff"/>
      <path id="Path-8" data-name="Path" d="M91.941,13.258c0-2.178.038-4.359-.019-6.537-.022-.862.422-.869,1.038-.862s1.067-.038,1.06.843q-.061,6.655,0,13.314c0,.894-.5.814-1.079.821s-1.028.029-1.012-.8C91.97,17.78,91.941,15.519,91.941,13.258Z" transform="translate(3.635 0.232)" fill="#fff"/>
      <path id="Path-9" data-name="Path" d="M68.047,13.341c0-2.235.035-4.471-.019-6.706-.019-.869.5-.766,1.032-.773s1.016-.064,1.006.789q-.058,6.706,0,13.413c0,.869-.482.766-1.022.773s-1.031.054-1.012-.789C68.079,17.812,68.047,15.576,68.047,13.341Z" transform="translate(2.69 0.232)" fill="#fff"/>
      <path id="Path-10" data-name="Path" d="M67.441,1.624a1.623,1.623,0,1,1,1.586,1.659,1.623,1.623,0,0,1-1.586-1.659Z" transform="translate(2.667 0.002)" fill="#fff"/>
      <path id="Path-11" data-name="Path" d="M118.065,1.625a1.62,1.62,0,0,1-3.238.073A1.647,1.647,0,0,1,116.455.009,1.62,1.62,0,0,1,118.065,1.625Z" transform="translate(4.54 0)" fill="#fff"/>
      <path id="Path-12" data-name="Path" d="M93.031,0a1.677,1.677,0,0,1,1.6,1.664,1.651,1.651,0,0,1-1.661,1.6A1.552,1.552,0,0,1,91.409,1.61,1.6,1.6,0,0,1,93.031,0Z" transform="translate(3.614 0)" fill="#fff"/>
    </g>
  </g>
</svg>
