<svg xmlns="http://www.w3.org/2000/svg" width="37" height="38.272" viewBox="0 0 37 38.272">
  <g id="Group_117398" data-name="Group 117398" transform="translate(-1236 -4403)">
    <g id="Group_115764" data-name="Group 115764" transform="translate(1235.207 4402.471)">
      <g id="layer1" transform="translate(0.793 0.529)">
        <path id="path4852" d="M14.024,3.393h.636a4.154,4.154,0,0,1,1.629.41,2.817,2.817,0,0,1,1.563,2.778v8.933a.638.638,0,1,0,1.271,0V6.581a4.053,4.053,0,0,0-2.265-3.918,5.376,5.376,0,0,0-2.2-.546h-.636Z" transform="translate(17.874 1.711)" fill="#d4af37"/>
        <path id="path4854" d="M9.26,2.117V3.393h7.656V2.117Z" transform="translate(11.153 1.711)" fill="#d4af37"/>
        <path id="path4856" d="M4.5,2.117V3.393h7.656V2.117Z" transform="translate(4.434 1.711)" fill="#d4af37"/>
        <path id="path4858" d="M5.262,2.117a5.376,5.376,0,0,0-2.2.546A4.086,4.086,0,0,0,.793,6.581V28.269a4.179,4.179,0,0,0,2.27,3.918,5.376,5.376,0,0,0,2.2.546H33.326a5.377,5.377,0,0,0,2.2-.546,4.157,4.157,0,0,0,2.265-3.918V11.337a.638.638,0,1,0-1.271,0V28.269a2.833,2.833,0,0,1-1.563,2.778,4.153,4.153,0,0,1-1.629.41H5.262a4.151,4.151,0,0,1-1.629-.41,2.72,2.72,0,0,1-1.563-2.778V6.581A2.8,2.8,0,0,1,3.633,3.8a4.153,4.153,0,0,1,1.629-.41H5.9V2.117Z" transform="translate(-0.793 1.711)" fill="#d4af37"/>
        <path id="path4860" d="M1.059,4.762V6.038H36.779V4.762Z" transform="translate(-0.418 5.442)" fill="#d4af37"/>
        <path id="path4864" d="M14.722.529a2.337,2.337,0,0,0-2.241,1.309,3.038,3.038,0,0,0-.311,1.243V6.91a3.022,3.022,0,0,0,.311,1.238,2.334,2.334,0,0,0,2.241,1.309,2.345,2.345,0,0,0,2.246-1.309,2.972,2.972,0,0,0,.306-1.238V3.081a2.987,2.987,0,0,0-.306-1.243A2.342,2.342,0,0,0,14.722.529Zm0,1.276a1.106,1.106,0,0,1,1.107.6,1.763,1.763,0,0,1,.17.673V6.91a1.747,1.747,0,0,1-.17.669,1.1,1.1,0,0,1-1.107.607,1.106,1.106,0,0,1-1.1-.607,1.809,1.809,0,0,1-.174-.669V3.081a1.822,1.822,0,0,1,.174-.673A1.1,1.1,0,0,1,14.722,1.805Z" transform="translate(15.259 -0.529)" fill="#d4af37"/>
        <path id="path4868" d="M36.519,12.965v3.828a2.824,2.824,0,0,1-1.563,2.778,4.153,4.153,0,0,1-1.629.41H21.206a.638.638,0,1,0,0,1.276h12.12a5.377,5.377,0,0,0,2.2-.546,4.042,4.042,0,0,0,2.265-3.918V12.965H36.519Zm-35.725,0v3.829a4.082,4.082,0,0,0,2.27,3.918,5.376,5.376,0,0,0,2.2.546h22.12a.638.638,0,1,0,0-1.276H5.262a4.152,4.152,0,0,1-1.629-.41,2.815,2.815,0,0,1-1.563-2.778V12.965Z" transform="translate(-0.793 17.016)" fill="#d4af37"/>
        <path id="path4910" d="M9.96.529A2.337,2.337,0,0,0,7.719,1.838a3.038,3.038,0,0,0-.311,1.243V6.91a3.022,3.022,0,0,0,.311,1.238A2.334,2.334,0,0,0,9.96,9.457a2.345,2.345,0,0,0,2.246-1.309,2.972,2.972,0,0,0,.306-1.238V3.081a2.987,2.987,0,0,0-.306-1.243A2.342,2.342,0,0,0,9.96.529Zm0,1.276a1.106,1.106,0,0,1,1.107.6,1.763,1.763,0,0,1,.17.673V6.91a1.746,1.746,0,0,1-.17.669,1.1,1.1,0,0,1-1.107.607,1.106,1.106,0,0,1-1.1-.607,1.809,1.809,0,0,1-.174-.669V3.081a1.822,1.822,0,0,1,.174-.673A1.1,1.1,0,0,1,9.96,1.805Z" transform="translate(8.54 -0.529)" fill="#d4af37"/>
        <path id="path4912" d="M5.2.529A2.337,2.337,0,0,0,2.957,1.838a3.038,3.038,0,0,0-.311,1.243V6.91a3.022,3.022,0,0,0,.311,1.238A2.334,2.334,0,0,0,5.2,9.457,2.345,2.345,0,0,0,7.444,8.148,2.972,2.972,0,0,0,7.75,6.91V3.081a2.987,2.987,0,0,0-.306-1.243A2.342,2.342,0,0,0,5.2.529Zm0,1.276a1.106,1.106,0,0,1,1.107.6,1.763,1.763,0,0,1,.17.673V6.91a1.747,1.747,0,0,1-.17.669A1.1,1.1,0,0,1,5.2,8.186a1.106,1.106,0,0,1-1.1-.607,1.809,1.809,0,0,1-.174-.669V3.081A1.822,1.822,0,0,1,4.1,2.408,1.1,1.1,0,0,1,5.2,1.805Z" transform="translate(1.821 -0.529)" fill="#d4af37"/>
      </g>
    </g>
    <text id="_" data-name="£" transform="translate(1254.5 4430.5)" fill="#ea4c89" font-size="16" font-family="Axiforma-Medium, Axiforma" font-weight="500" letter-spacing="0.01em"><tspan x="-4.608" y="0">£</tspan></text>
  </g>
</svg>
