<svg xmlns="http://www.w3.org/2000/svg" width="18.366" height="18.4" viewBox="0 0 18.366 18.4"><path d="M18.428,20.7c-.072,0-.145,0-.217-.01H18.2a17.669,17.669,0,0,1-7.664-2.726A17.449,17.449,0,0,1,5.2,12.634a17.666,17.666,0,0,1-2.726-7.7V4.923A2.406,2.406,0,0,1,4.872,2.3H7.449A2.417,2.417,0,0,1,9.831,4.369v.006a10.267,10.267,0,0,0,.559,2.244,2.412,2.412,0,0,1-.542,2.537l-.7.7a12.955,12.955,0,0,0,4.128,4.128l.7-.7a2.406,2.406,0,0,1,2.541-.544,10.265,10.265,0,0,0,2.242.558h.006a2.406,2.406,0,0,1,2.069,2.433v2.551A2.406,2.406,0,0,1,18.428,20.7Zm-.085-1.4a1.006,1.006,0,0,0,1.091-1.007V15.728q0-.009,0-.017a1.006,1.006,0,0,0-.863-1.021,11.671,11.671,0,0,1-2.546-.635,1.006,1.006,0,0,0-1.063.226l-1.081,1.081a.7.7,0,0,1-.841.114,14.356,14.356,0,0,1-5.381-5.381.7.7,0,0,1,.114-.841L8.856,8.169A1.008,1.008,0,0,0,9.08,7.111a11.674,11.674,0,0,1-.635-2.548,1.011,1.011,0,0,0-1-.863H4.872a1.006,1.006,0,0,0-1,1.092,16.26,16.26,0,0,0,2.51,7.083l0,.005a16.039,16.039,0,0,0,4.9,4.9l.005,0A16.262,16.262,0,0,0,18.342,19.3Z" transform="translate(-2.468 -2.3)" fill="#d5b23f"/></svg>