<svg xmlns="http://www.w3.org/2000/svg" width="33.178" height="33.178" viewBox="0 0 33.178 33.178">
  <g id="Group_115759" data-name="Group 115759" transform="translate(-17.25 -17.25)">
    <g id="Group_115127" data-name="Group 115127" transform="translate(17.25 17.25)">
      <path id="Path_121043" data-name="Path 121043" d="M47.057,21.26h-4.4V19.475a2.229,2.229,0,0,0-2.228-2.225H24.056a2.229,2.229,0,0,0-2.228,2.225V21.26H20.621a3.375,3.375,0,0,0-3.371,3.371v22.7a3.1,3.1,0,0,0,3.1,3.1H36.482a.621.621,0,1,0,0-1.242H20.348a1.86,1.86,0,0,1-1.856-1.859V29.865a1.86,1.86,0,0,1,1.856-1.859H32.5a1.523,1.523,0,0,1,1.292.732,1.024,1.024,0,0,1,.068.126l1.326,2.758a2.759,2.759,0,0,0,2.48,1.564H47.33a1.858,1.858,0,0,1,1.856,1.856V47.326a1.86,1.86,0,0,1-1.856,1.859H44.715a.621.621,0,0,0,0,1.242H47.33a3.1,3.1,0,0,0,3.1-3.1v-22.7a3.375,3.375,0,0,0-3.371-3.371Zm-25.229,5.5h-1.48a3.075,3.075,0,0,0-1.856.624V24.631A2.131,2.131,0,0,1,20.621,22.5h1.206Zm4.24-.525v.525h-3V19.475a.986.986,0,0,1,.986-.983H40.428a.986.986,0,0,1,.986.983V24.01H28.3a2.231,2.231,0,0,0-2.228,2.228Zm19.587,5.706H37.664a1.512,1.512,0,0,1-1.36-.858L34.979,28.33a2.208,2.208,0,0,0-.139-.255A2.766,2.766,0,0,0,32.5,26.763H27.31v-.525a.988.988,0,0,1,.986-.986H44.668a.988.988,0,0,1,.987.986Zm3.531.623a3.077,3.077,0,0,0-1.856-.623H46.9V26.238a2.231,2.231,0,0,0-2.229-2.228H42.657V22.5h4.4a2.131,2.131,0,0,1,2.129,2.129ZM42.1,49.807a.621.621,0,0,1-.621.621H39.719a.621.621,0,1,1,0-1.242h1.764A.621.621,0,0,1,42.1,49.807Z" transform="translate(-17.25 -17.25)" fill="#d4af37"/>
      <path id="Path_121129" data-name="Path 121129" d="M29.165,34.517a6.055,6.055,0,1,0,0,12.111q.2,0,.391-.013a6.069,6.069,0,0,0,2.245-.59q.175-.085.346-.181a6.056,6.056,0,0,0-2.981-11.327ZM31.1,44.8c-.04.019-.082.042-.125.06l-.139.054c-.143.054-.288.1-.436.141l-.089.024a4.823,4.823,0,0,1-2.295,0l-.091-.024q-.22-.06-.433-.141c-.047-.018-.095-.036-.141-.055s-.082-.04-.124-.06V44.67a1.937,1.937,0,0,1,3.873,0Zm-3.338-4.861a1.4,1.4,0,1,1,1.4,1.4A1.4,1.4,0,0,1,27.764,39.936Zm4.643,3.972a3.276,3.276,0,0,0-1.313-1.953,2.8,2.8,0,1,0-3.862,0,3.341,3.341,0,0,0-1.313,1.953,4.657,4.657,0,1,1,6.489,0Zm5.5-5.634a.7.7,0,0,1,.7-.7h8.477a.7.7,0,1,1,0,1.4H38.608a.7.7,0,0,1-.7-.7Zm0,4.595a.7.7,0,0,1,.7-.7h8.477a.7.7,0,1,1,0,1.4H38.608a.7.7,0,0,1-.7-.7Z" transform="translate(-18.743 -17.928)" fill="#ea4c89"/>
    </g>
  </g>
</svg>
