<svg xmlns="http://www.w3.org/2000/svg" width="68" height="68" viewBox="0 0 68 68">
  <g id="Group_117656" data-name="Group 117656" transform="translate(-927 -189)">
    <rect id="Rectangle_13985" data-name="Rectangle 13985" width="68" height="68" transform="translate(927 189)" fill="none"/>
    <g id="Group_117654" data-name="Group 117654" transform="translate(929.506 191.506)">
      <g id="Group_117655" data-name="Group 117655">
        <path id="Path_162627" data-name="Path 162627" d="M27.381,131.368V101.842A9.842,9.842,0,0,1,37.223,92H29.842A9.842,9.842,0,0,0,20,101.842v29.526a9.842,9.842,0,0,0,9.842,9.842h7.381A9.842,9.842,0,0,1,27.381,131.368Z" transform="translate(-17.54 -80.682)" fill="rgba(234,76,137,0.3)"/>
        <g id="Group_117654-2" data-name="Group 117654">
          <path id="Path_162628" data-name="Path 162628" d="M50.686,72H12.3A12.316,12.316,0,0,0,0,84.3v29.526a12.316,12.316,0,0,0,12.3,12.3H50.686a12.316,12.316,0,0,0,12.3-12.3V84.3A12.316,12.316,0,0,0,50.686,72Zm7.381,41.828a7.39,7.39,0,0,1-7.381,7.381H12.3a7.39,7.39,0,0,1-7.381-7.381V84.3A7.39,7.39,0,0,1,12.3,76.921H50.686A7.39,7.39,0,0,1,58.067,84.3Z" transform="translate(0 -63.142)" fill="#ea4c89"/>
          <path id="Path_162629" data-name="Path 162629" d="M83.381,0H78.46a2.46,2.46,0,0,0,0,4.921h4.921a2.46,2.46,0,0,0,0-4.921Z" transform="translate(-66.65)" fill="#ea4c89"/>
          <path id="Path_162630" data-name="Path 162630" d="M363.381,0H358.46a2.46,2.46,0,0,0,0,4.921h4.921a2.46,2.46,0,0,0,0-4.921Z" transform="translate(-312.203)" fill="#ea4c89"/>
          <path id="Path_162631" data-name="Path 162631" d="M147.986,166.763a2.46,2.46,0,0,0-2.46,2.46,12.3,12.3,0,1,1-12.3-12.3,2.46,2.46,0,0,0,0-4.921,17.223,17.223,0,1,0,17.223,17.223A2.46,2.46,0,0,0,147.986,166.763Z" transform="translate(-101.729 -133.3)" fill="#ea4c89"/>
        </g>
        <path id="Path_162632" data-name="Path 162632" d="M243.381,236.921h-2.46v-2.46a2.46,2.46,0,0,0-4.921,0v4.921a2.46,2.46,0,0,0,2.46,2.46h4.921a2.46,2.46,0,1,0,0-4.921Z" transform="translate(-206.966 -203.458)" fill="#ea4c89"/>
      </g>
    </g>
  </g>
</svg>
