<svg id="Component_55_1" data-name="Component 55 – 1" xmlns="http://www.w3.org/2000/svg" width="20" height="20" viewBox="0 0 20 20">
  <g id="Group_116578" data-name="Group 116578" transform="translate(-15.375)">
    <g id="Group_116577" data-name="Group 116577" transform="translate(16 0)">
      <path id="Path_162143" data-name="Path 162143" d="M56.781,0A.781.781,0,0,0,56,.781v6.25a.781.781,0,1,0,1.563,0V1.7a2.348,2.348,0,0,1,1.563,2.21V7.031a.781.781,0,1,0,1.563,0V3.906A3.911,3.911,0,0,0,56.781,0Z" transform="translate(-54.438 0)" fill="#ea4c89"/>
      <path id="Path_162144" data-name="Path 162144" d="M38.344,265.938v-4.375A1.563,1.563,0,0,1,39.906,260H37.563A1.563,1.563,0,0,0,36,261.563v4.375a3.125,3.125,0,0,0,4.3,2.9A3.125,3.125,0,0,1,38.344,265.938Z" transform="translate(-35.219 -249.844)" fill="#ea4c89" opacity="0.2"/>
      <g id="Group_116576" data-name="Group 116576" transform="translate(0 0)">
        <path id="Path_162145" data-name="Path 162145" d="M21.469,240H18.344A2.346,2.346,0,0,0,16,242.344v4.375a3.906,3.906,0,0,0,7.813,0v-4.375A2.346,2.346,0,0,0,21.469,240Zm.781,6.719a2.344,2.344,0,0,1-4.688,0v-4.375a.782.782,0,0,1,.781-.781h3.125a.782.782,0,0,1,.781.781Z" transform="translate(-16 -230.625)" fill="#ea4c89"/>
        <path id="Path_162146" data-name="Path 162146" d="M299.906,240a.781.781,0,0,0-.781.781v7.5a.781.781,0,0,1-1.562,0v-7.5a.781.781,0,0,0-1.562,0v7.5a2.344,2.344,0,0,0,4.688,0v-7.5A.781.781,0,0,0,299.906,240Z" transform="translate(-285.063 -230.625)" fill="#ea4c89"/>
        <path id="Path_162147" data-name="Path 162147" d="M224.594,0h-6.25a2.344,2.344,0,0,0-1.876,3.749L219.281,7.5a.781.781,0,0,0,.625.313h3.125a.781.781,0,0,0,.625-.313l2.813-3.751A2.344,2.344,0,0,0,224.594,0Zm.626,2.812L222.641,6.25H220.3l-2.579-3.438a.774.774,0,0,1-.155-.468.782.782,0,0,1,.781-.781h2.344V3.906a.781.781,0,0,0,1.563,0V1.562h2.344a.782.782,0,0,1,.781.781A.774.774,0,0,1,225.219,2.812Z" transform="translate(-208.188 0)" fill="#ea4c89"/>
      </g>
    </g>
  </g>
  <rect id="Rectangle_13940" data-name="Rectangle 13940" width="20" height="20" fill="none"/>
</svg>
