<svg xmlns="http://www.w3.org/2000/svg" width="37.917" height="39.173" viewBox="0 0 37.917 39.173">
  <g id="Group_115760" data-name="Group 115760" transform="translate(-648.001 -4332)">
    <g id="Group_115183" data-name="Group 115183" transform="translate(639.793 4332)">
      <g id="Group_115120" data-name="Group 115120" transform="translate(8.208 0)">
        <g id="Group_115118" data-name="Group 115118" transform="translate(0.574 0.574)">
          <g id="Group_115113" data-name="Group 115113" transform="translate(16.263 17.036)">
            <g id="Group_115111" data-name="Group 115111" transform="translate(6.282)">
              <path id="Path_120999" data-name="Path 120999" d="M310.958,232.271a.574.574,0,0,1-.574-.574v-.955a.574.574,0,1,1,1.148,0v.955A.574.574,0,0,1,310.958,232.271Z" transform="translate(-310.384 -230.168)" fill="#d4af37"/>
            </g>
            <g id="Group_115112" data-name="Group 115112" transform="translate(0 0.927)">
              <path id="Path_121000" data-name="Path 121000" d="M230.157,244.028a2.312,2.312,0,0,1-1.743-.794.574.574,0,1,1,.865-.754,1.163,1.163,0,0,0,1.756,0,.574.574,0,1,1,.865.754A2.313,2.313,0,0,1,230.157,244.028Z" transform="translate(-228.272 -242.284)" fill="#d4af37"/>
            </g>
          </g>
        </g>
        <g id="Group_115119" data-name="Group 115119">
          <path id="Path_121004" data-name="Path 121004" d="M42.83,26.943a1.17,1.17,0,0,1-.547-.721,1.063,1.063,0,0,1,.124-.824,5.226,5.226,0,0,0,.771-3.016,5.149,5.149,0,0,0-.535-2.046.574.574,0,0,0-.048-.079,3.732,3.732,0,0,0-.042-1.2c.034-.018.068-.035.1-.055a2.651,2.651,0,0,0,1.326-3.259,2.651,2.651,0,0,0,2.145-2.789A2.651,2.651,0,0,0,43.98,10.17a2.651,2.651,0,0,0-1.326-3.259,3.013,3.013,0,0,0-2.038-.4,2.425,2.425,0,0,0-1.5.9c-.021-.027-.043-.053-.065-.079a3.334,3.334,0,0,0,.538-1.784C39.593,2.437,34.955,0,29.036,0,25,0,21.383,1.154,19.605,3.013c-.61.638-1.19,1.191-1.772,1.691a.574.574,0,0,0,.748.871c.611-.524,1.217-1.1,1.854-1.768,1.546-1.615,4.922-2.659,8.6-2.659,5.1,0,9.409,2.015,9.409,4.4a2.177,2.177,0,0,1-.321,1.105,2.464,2.464,0,0,0-.5-.146,3.012,3.012,0,0,0-2.038.4,2.651,2.651,0,0,0-1.326,3.259,2.438,2.438,0,0,0-.93.353c-.109-.141-.213-.285-.311-.431a1.5,1.5,0,0,0-1.337-.665,1.478,1.478,0,0,0-1.24.8c-1.815,3.489-6.069,6.375-11.1,7.532a21.606,21.606,0,0,1-2.373.408,2.378,2.378,0,0,0-1.98,3.142,12.351,12.351,0,0,0,4.881,6.231,13.276,13.276,0,0,0-4.761,5.36,13.018,13.018,0,0,0-1.1,3.4h-.092a4.614,4.614,0,0,1-4.56-4.35A4.49,4.49,0,0,1,11.6,27.938,2.326,2.326,0,0,0,12.689,26.5,2.2,2.2,0,0,0,12.43,24.8a4.073,4.073,0,0,1,.646-5.08,2.425,2.425,0,0,0,.733-2.061A13.246,13.246,0,0,1,16.823,7.3a.574.574,0,0,0-.875-.742,14.393,14.393,0,0,0-3.276,11.255,1.274,1.274,0,0,1-.393,1.08,5.22,5.22,0,0,0-.826,6.508,1.064,1.064,0,0,1,.124.824,1.172,1.172,0,0,1-.548.722A5.636,5.636,0,0,0,8.21,31.987a5.545,5.545,0,0,0,1.762,3.865,5.716,5.716,0,0,0,3.94,1.6,1.974,1.974,0,0,0,1.958,1.722H37.989a1.974,1.974,0,0,0,1.958-1.722,5.716,5.716,0,0,0,3.943-1.6,5.545,5.545,0,0,0,1.761-3.866,5.636,5.636,0,0,0-2.821-5.043Zm-1.354-7.15a2.633,2.633,0,0,1-2.63,2.63,2.6,2.6,0,0,1-.934-.17,12.2,12.2,0,0,0,1-3.508,2.523,2.523,0,0,0,.212-.238,2.425,2.425,0,0,0,1.5.9,2.635,2.635,0,0,0,.465.041,2.835,2.835,0,0,0,.37-.025,2.646,2.646,0,0,1,.026.367Zm-6.789-8.51a1.6,1.6,0,0,1,.548.1A.574.574,0,0,0,35.8,10.4a1.6,1.6,0,0,1-.362-.423A1.509,1.509,0,0,1,36.164,7.9a1.869,1.869,0,0,1,1.256-.265,1.3,1.3,0,0,1,.91.651,1.588,1.588,0,0,1,.216.734.574.574,0,0,0,1.146,0,1.589,1.589,0,0,1,.216-.734,1.3,1.3,0,0,1,.91-.651,1.869,1.869,0,0,1,1.256.265A1.509,1.509,0,0,1,42.8,9.978a1.6,1.6,0,0,1-.362.423.574.574,0,0,0,.563.981,1.6,1.6,0,0,1,.548-.1,1.509,1.509,0,0,1,1.426,1.676,1.509,1.509,0,0,1-1.426,1.676,1.6,1.6,0,0,1-.548-.1.574.574,0,0,0-.563.981,1.6,1.6,0,0,1,.362.423,1.51,1.51,0,0,1-.728,2.077,1.869,1.869,0,0,1-1.256.265,1.3,1.3,0,0,1-.91-.651,1.588,1.588,0,0,1-.216-.734.574.574,0,0,0-1.146,0,1.588,1.588,0,0,1-.216.734,1.3,1.3,0,0,1-.91.651,2.037,2.037,0,0,1-2.1-1.229,1.3,1.3,0,0,1,.12-1.113,1.6,1.6,0,0,1,.362-.423.574.574,0,0,0-.563-.981,1.6,1.6,0,0,1-.548.1,1.509,1.509,0,0,1-1.426-1.676A1.51,1.51,0,0,1,34.688,11.283ZM16.071,20.929a1.211,1.211,0,0,1,.119-1.049,1.232,1.232,0,0,1,.908-.573,22.766,22.766,0,0,0,2.5-.43,21.237,21.237,0,0,0,7.275-3.145,14.213,14.213,0,0,0,4.586-4.975.333.333,0,0,1,.286-.184.355.355,0,0,1,.32.159c.144.214.3.424.462.628a3.122,3.122,0,0,0-.413,1.6,2.651,2.651,0,0,0,2.145,2.79,2.422,2.422,0,0,0-.026,1.682,3.177,3.177,0,0,0,3.39,1.981l.013,0a11.366,11.366,0,0,1-11.084,9.016,11.236,11.236,0,0,1-10.481-7.5ZM34.53,29.351a37.706,37.706,0,0,0,.687,5.547,12.654,12.654,0,0,0,.328,1.26,4.184,4.184,0,0,1,.129,1.868H29.109a11.654,11.654,0,0,0,1.081-1.572.574.574,0,1,0-.994-.573,10.272,10.272,0,0,1-1.168,1.647,1.46,1.46,0,0,1-2.2,0,11.015,11.015,0,0,1-1.688-2.652,17.792,17.792,0,0,1-1.475-5.965,12.285,12.285,0,0,0,3.874.662h.1a12.173,12.173,0,0,0,4.564-.89,18.821,18.821,0,0,1-.978,4.918.574.574,0,1,0,1.083.381,20.346,20.346,0,0,0,1.076-5.851l.178-.1a11.957,11.957,0,0,1,1.962,1.317Zm-13.045-.914a19.275,19.275,0,0,0,1.617,6.92,12.4,12.4,0,0,0,1.649,2.669H18.185a4.184,4.184,0,0,1,.129-1.868,12.653,12.653,0,0,0,.328-1.26,37.7,37.7,0,0,0,.686-5.545A11.941,11.941,0,0,1,21,28.2Q21.239,28.323,21.485,28.437Zm-6.236,9.308a.814.814,0,0,1-.2-.648,11.877,11.877,0,0,1,1.093-3.7A12,12,0,0,1,18.1,30.516a38.077,38.077,0,0,1-.589,4.161,11.591,11.591,0,0,1-.3,1.145,5.332,5.332,0,0,0-.191,2.2H15.87A.817.817,0,0,1,15.249,37.745Zm23.36,0a.818.818,0,0,1-.621.28H36.833a5.33,5.33,0,0,0-.191-2.2,11.6,11.6,0,0,1-.3-1.144,38.074,38.074,0,0,1-.589-4.166A11.9,11.9,0,0,1,38.81,37.1.814.814,0,0,1,38.61,37.745ZM44.5,31.953a4.614,4.614,0,0,1-4.56,4.351H39.85a13.015,13.015,0,0,0-1.1-3.4,13.244,13.244,0,0,0-5.076-5.556,12.617,12.617,0,0,0,3.714-4.066,3.771,3.771,0,0,0,4.581-1.361,4.077,4.077,0,0,1-.54,2.881A2.2,2.2,0,0,0,41.17,26.5a2.324,2.324,0,0,0,1.085,1.433A4.49,4.49,0,0,1,44.5,31.953Z" transform="translate(-8.208 0)" fill="#d4af37"/>
          <path id="Path_121005" data-name="Path 121005" d="M380.007,139.823a2.67,2.67,0,1,0-2.67-2.67A2.673,2.673,0,0,0,380.007,139.823Zm0-4.192a1.522,1.522,0,1,1-1.522,1.522A1.524,1.524,0,0,1,380.007,135.632Z" transform="translate(-349.095 -124.195)" fill="#ea4c89"/>
        </g>
      </g>
    </g>
    <path id="Intersection_1" data-name="Intersection 1" d="M20542.41,12557.41a2.406,2.406,0,0,1-1.5-.9,2.92,2.92,0,0,1-.211.237c0,.008,0,.016,0,.023a2.808,2.808,0,0,1-.559.42,2.85,2.85,0,0,1-.713.225s0,0,0,0h-.012a3.178,3.178,0,0,1-3.393-1.98,2.441,2.441,0,0,1,.025-1.682,2.655,2.655,0,0,1-2.146-2.79,3.091,3.091,0,0,1,.418-1.6.073.073,0,0,0-.014-.017c.094-.107.414-.466.8-.84a.143.143,0,0,0,.016.021,2.465,2.465,0,0,1,.928-.355,2.658,2.658,0,0,1,1.33-3.26,3.031,3.031,0,0,1,2.037-.4,2.626,2.626,0,0,1,.492.144c.156.117.838.627.943.69.02.022.043.046.061.068a2.406,2.406,0,0,1,1.5-.9,3.035,3.035,0,0,1,2.037.4,13.124,13.124,0,0,0,3.471,6.05,12.645,12.645,0,0,0-3.428,6.024h-.09a1.813,1.813,0,0,1-1.154.452v-.009a2.989,2.989,0,0,1-.371.026A2.287,2.287,0,0,1,20542.41,12557.41Zm-.924-2.512a1.5,1.5,0,0,0,.217.732,1.288,1.288,0,0,0,.908.65,1.862,1.862,0,0,0,1.258-.264,1.511,1.511,0,0,0,.729-2.078,1.585,1.585,0,0,0-.367-.423.575.575,0,0,1,.568-.98,1.554,1.554,0,0,0,.545.1,1.7,1.7,0,0,0,0-3.353,1.7,1.7,0,0,0-.545.1.575.575,0,0,1-.568-.979,1.528,1.528,0,0,0,.367-.423,1.506,1.506,0,0,0-.729-2.074,1.871,1.871,0,0,0-1.258-.268,1.3,1.3,0,0,0-.908.649,1.541,1.541,0,0,0-.217.737.576.576,0,0,1-.572.547.569.569,0,0,1-.572-.547,1.682,1.682,0,0,0-.217-.737,1.318,1.318,0,0,0-.912-.649,1.858,1.858,0,0,0-1.254.268,1.462,1.462,0,0,0-.367,2.5.573.573,0,0,1,.129.727.564.564,0,0,1-.689.253,1.726,1.726,0,0,0-.553-.1,1.7,1.7,0,0,0,0,3.353,1.58,1.58,0,0,0,.553-.1.565.565,0,0,1,.689.253.573.573,0,0,1-.129.728,1.555,1.555,0,0,0-.359.423,1.291,1.291,0,0,0-.125,1.114,1.885,1.885,0,0,0,.852.964,1.843,1.843,0,0,0,1.254.264,1.3,1.3,0,0,0,.912-.65,1.636,1.636,0,0,0,.217-.732.57.57,0,0,1,.572-.547A.577.577,0,0,1,20541.486,12554.9Zm-3.244-3.94a2.669,2.669,0,1,1,2.672,2.672A2.671,2.671,0,0,1,20538.242,12550.958Zm1.15,0a1.521,1.521,0,1,0,1.521-1.521A1.521,1.521,0,0,0,20539.393,12550.958Z" transform="translate(-19862 -8206)" fill="#ea4c89"/>
  </g>
</svg>
