<?xml version="1.0" standalone="no"?>
<!DOCTYPE svg PUBLIC "-//W3C//DTD SVG 20010904//EN"
 "http://www.w3.org/TR/2001/REC-SVG-20010904/DTD/svg10.dtd">
<svg version="1.0" xmlns="http://www.w3.org/2000/svg"
 width="234.000000pt" height="234.000000pt" viewBox="0 0 234.000000 234.000000"
 preserveAspectRatio="xMidYMid meet">
<metadata>
Created by potrace 1.14, written by Peter Selinger 2001-2017
</metadata>
<g transform="translate(0.000000,234.000000) scale(0.100000,-0.100000)"
fill="#000000" stroke="none">
<path d="M1545 1873 c-85 -19 -210 -84 -278 -144 -79 -70 -144 -168 -171 -256
-6 -19 0 -23 61 -44 122 -40 188 -84 246 -163 12 -16 28 -18 131 -18 64 -1
119 1 121 3 6 6 -35 91 -67 137 -35 51 -89 106 -141 146 l-38 29 47 33 c268
191 643 5 658 -325 5 -108 -52 -249 -130 -320 -46 -43 -142 -96 -196 -108 -70
-15 -180 -7 -244 19 l-61 24 -23 -69 c-13 -38 -41 -98 -62 -134 -49 -84 -53
-103 -33 -148 22 -45 66 -69 113 -61 42 6 65 26 107 92 33 51 34 51 82 50 229
-7 457 117 572 311 60 102 83 181 87 299 7 188 -53 342 -186 474 -155 156
-382 222 -595 173z"/>
<path d="M486 1784 c-200 -49 -415 -263 -463 -459 -20 -84 -24 -122 -18 -205
19 -318 183 -540 469 -635 198 -66 449 -25 595 98 155 130 228 353 164 498
-38 85 -123 155 -202 166 -45 6 -378 3 -398 -3 -10 -4 -30 -18 -45 -32 -22
-20 -28 -35 -28 -67 0 -22 7 -51 16 -64 31 -43 70 -51 258 -51 166 0 176 -1
189 -21 35 -49 -3 -164 -77 -240 -61 -62 -125 -86 -243 -93 -126 -7 -237 33
-331 119 -95 86 -142 185 -147 310 -15 338 262 552 578 446 38 -13 70 -21 71
-20 2 2 25 46 50 97 l47 93 -35 14 c-142 60 -327 80 -450 49z"/>
<path d="M1796 1373 c-31 -31 -33 -61 -5 -97 27 -34 77 -36 107 -3 66 70 -35
167 -102 100z"/>
</g>
</svg>
