<svg xmlns="http://www.w3.org/2000/svg" width="16.733" height="19.99" viewBox="0 0 16.733 19.99">
  <g id="Group_115480" data-name="Group 115480" transform="translate(-41.666 0.001)">
    <g id="Group_115479" data-name="Group 115479" transform="translate(41.666 -0.001)">
      <path id="Path_161743" data-name="Path 161743" d="M64.051,197.23v-3.988a3.91,3.91,0,0,1,3.91-3.91H65.575a3.91,3.91,0,0,0-3.91,3.91v3.988a3.909,3.909,0,0,0,3.91,3.909H67.96A3.91,3.91,0,0,1,64.051,197.23Z" transform="translate(-60.884 -181.931)" fill="rgba(234,76,137,0.3)"/>
      <path id="Path_161744" data-name="Path 161744" d="M54.058,6.633V3.978a4.005,4.005,0,0,0-8.01,0V6.63a4.7,4.7,0,0,0-4.382,4.681V15.3a4.7,4.7,0,0,0,4.691,4.691h7.35A4.7,4.7,0,0,0,58.4,15.3V11.311a4.7,4.7,0,0,0-4.34-4.678Zm-4.005-5.1a2.444,2.444,0,0,1,2.441,2.441V6.619H47.612V3.978A2.444,2.444,0,0,1,50.053,1.537ZM56.835,15.3a3.131,3.131,0,0,1-3.128,3.128h-7.35A3.131,3.131,0,0,1,43.23,15.3V11.311a3.131,3.131,0,0,1,3.128-3.128h7.35a3.131,3.131,0,0,1,3.128,3.128Z" transform="translate(-41.666 0.001)" fill="#ea4c89"/>
      <path id="Path_161745" data-name="Path 161745" d="M200.624,262.679a2.346,2.346,0,1,0-3.128,2.211v1.151a.782.782,0,0,0,1.564,0V264.89A2.349,2.349,0,0,0,200.624,262.679Zm-2.346.782a.782.782,0,1,1,.782-.782A.783.783,0,0,1,198.279,263.461Z" transform="translate(-189.912 -250.155)" fill="#ea4c89"/>
    </g>
  </g>
</svg>
