<svg id="Group_115432" data-name="Group 115432" xmlns="http://www.w3.org/2000/svg" width="18.173" height="18.17" viewBox="0 0 18.173 18.17">
  <g id="Group_115432-2" data-name="Group 115432">
    <path id="Path_161738" data-name="Path 161738" d="M22.171,28.252a8.376,8.376,0,0,1,7.31-8.307,8.375,8.375,0,1,0,0,16.615A8.376,8.376,0,0,1,22.171,28.252Z" transform="translate(-19.33 -19.168)" fill="rgba(234,76,137,0.3)"/>
    <path id="Path_161739" data-name="Path 161739" d="M9.086,18.207A9.084,9.084,0,1,1,15.132,2.344.71.71,0,0,1,14.187,3.4,7.688,7.688,0,0,0,1.421,9.123a7.688,7.688,0,0,0,12.766,5.72.71.71,0,1,1,.945,1.059A9.069,9.069,0,0,1,9.086,18.207Z" transform="translate(0 -0.039)" fill="#ea4c89"/>
    <path id="Path_161740" data-name="Path 161740" d="M132.5,152.124a.71.71,0,0,1-.5-1.216l2.386-2.346a.7.7,0,0,0,0-.991L132,145.252a.71.71,0,1,1,.99-1.017l2.388,2.323.006.006a2.121,2.121,0,0,1,0,3.006l0,0-2.388,2.348A.707.707,0,0,1,132.5,152.124Zm0-3.407h-9.619a.71.71,0,0,1,0-1.419H132.5A.71.71,0,0,1,132.5,148.718Z" transform="translate(-117.838 -138.924)" fill="#ea4c89"/>
  </g>
</svg>
