<svg id="Group_115428" data-name="Group 115428" xmlns="http://www.w3.org/2000/svg" width="19.413" height="17.55" viewBox="0 0 19.413 17.55">
  <path id="Path_161732" data-name="Path 161732" d="M26.423,58.006q.163-.26.322-.522c-3.215-2.549-7.273-10.629-1.829-12.783a3.988,3.988,0,0,0-1.163-.174A3.829,3.829,0,0,0,20,48.427c0,3.748,2.481,6.792,5.335,9.006A3.532,3.532,0,0,0,26.423,58.006Z" transform="translate(-19.242 -43.769)" fill="rgba(234,76,137,0.3)"/>
  <path id="Path_161733" data-name="Path 161733" d="M7.318,39.6a.758.758,0,0,1-.2-.028,4.276,4.276,0,0,1-1.486-.746h0C2.434,36.354,0,33.109,0,29.223a4.59,4.59,0,0,1,7.667-3.469,4.489,4.489,0,0,1,.586.621,4.312,4.312,0,0,1,.617-.654,4.609,4.609,0,0,1,7.662,3.517,9.72,9.72,0,0,1-.137,1.445.758.758,0,0,1-1.495-.256,8.2,8.2,0,0,0,.115-1.211,3.075,3.075,0,0,0-3-3.135,2.845,2.845,0,0,0-3,2.389.758.758,0,0,1-1.517,0c0-1.082-1.336-2.389-3-2.389a3.075,3.075,0,0,0-3,3.143c0,3.715,2.741,6.622,5.041,8.406a2.767,2.767,0,0,0,.963.483.758.758,0,0,1-.2,1.489Z" transform="translate(0 -24.566)" fill="#ea4c89"/>
  <path id="Path_161734" data-name="Path 161734" d="M231.42,242.235a3.013,3.013,0,0,1-1.8-.593c-2.324-1.732-3.575-3.8-3.619-5.969a3.114,3.114,0,0,1,5.267-2.229q.081.078.155.161.074-.083.155-.161a3.114,3.114,0,0,1,5.267,2.229c-.044,2.173-1.3,4.237-3.619,5.969A3.014,3.014,0,0,1,231.42,242.235Zm-3.905-6.585c.047,2.128,1.662,3.772,3.009,4.776a1.508,1.508,0,0,0,1.792,0c1.347-1,2.962-2.648,3.009-4.776a1.574,1.574,0,0,0-3.147-.039.758.758,0,1,1-1.517,0A1.574,1.574,0,0,0,227.515,235.65Z" transform="translate(-217.429 -224.685)" fill="#ea4c89"/>
</svg>
