<svg id="Group_115410" data-name="Group 115410" xmlns="http://www.w3.org/2000/svg" width="16.445" height="18.664" viewBox="0 0 16.445 18.664">
  <g id="Group_115410-2" data-name="Group 115410" transform="translate(0)">
    <path id="Path_161711" data-name="Path 161711" d="M102.322,24.184a4.186,4.186,0,0,1,2.892-3.98,4.184,4.184,0,1,0,0,7.961A4.186,4.186,0,0,1,102.322,24.184Z" transform="translate(-97.22 -19.272)" fill="#ea4c89" opacity="0.3"/>
    <path id="Path_161712" data-name="Path 161712" d="M31.228,18.628A.728.728,0,0,1,30.5,17.9a6.629,6.629,0,0,1,6.622-6.622h1.091a6.6,6.6,0,0,1,2.33.422.728.728,0,1,1-.512,1.362,5.147,5.147,0,0,0-1.818-.329H37.122A5.172,5.172,0,0,0,31.955,17.9.728.728,0,0,1,31.228,18.628ZM42.506,4.912a4.912,4.912,0,1,0-4.912,4.912A4.917,4.917,0,0,0,42.506,4.912Zm-1.455,0a3.456,3.456,0,1,1-3.456-3.456A3.46,3.46,0,0,1,41.051,4.912Z" transform="translate(-30.5)" fill="#ea4c89"/>
    <path id="Path_161713" data-name="Path 161713" d="M221.6,342.875a.728.728,0,0,1-.728-.728v-1.922a.771.771,0,0,0-.77-.77h-1.922a.728.728,0,0,1,0-1.455H220.1a2.228,2.228,0,0,1,2.226,2.226v1.922A.728.728,0,0,1,221.6,342.875Zm-1.8-1.171a.728.728,0,0,0-1.053-1.005,7.185,7.185,0,0,1-5.173,2.213h-.34a.728.728,0,1,0,0,1.455h.34A8.647,8.647,0,0,0,219.793,341.7Z" transform="translate(-205.878 -325.703)" fill="#ea4c89"/>
  </g>
</svg>
