<svg id="Group_115419" data-name="Group 115419" xmlns="http://www.w3.org/2000/svg" width="16.446" height="19.444" viewBox="0 0 16.446 19.444">
  <g id="Group_115413" data-name="Group 115413" transform="translate(0.647 0.681)" opacity="0.8">
    <path id="Path_161717" data-name="Path 161717" d="M65.078,34.252V23.829A3.633,3.633,0,0,1,68.476,20H66.407A3.638,3.638,0,0,0,63,23.831V34.25a3.638,3.638,0,0,0,3.407,3.831h2.069a3.633,3.633,0,0,1-3.4-3.829Z" transform="translate(-63 -20)" fill="rgba(234,76,137,0.3)"/>
  </g>
  <g id="Group_115414" data-name="Group 115414" transform="translate(4.511 7.02)">
    <circle id="Ellipse_2885" data-name="Ellipse 2885" cx="0.83" cy="0.83" r="0.83" transform="translate(0 0)" fill="#ea4c89"/>
  </g>
  <g id="Group_115415" data-name="Group 115415" transform="translate(0)">
    <path id="Path_161718" data-name="Path 161718" d="M55.792,19.444H48.654A4.611,4.611,0,0,1,44,14.888V4.556A4.611,4.611,0,0,1,48.654,0h7.138a4.611,4.611,0,0,1,4.654,4.556V14.887A4.611,4.611,0,0,1,55.792,19.444ZM48.654,1.519a3.074,3.074,0,0,0-3.1,3.037V14.887a3.074,3.074,0,0,0,3.1,3.037h7.138a3.074,3.074,0,0,0,3.1-3.037V4.556a3.074,3.074,0,0,0-3.1-3.037Z" transform="translate(-44 0)" fill="#ea4c89"/>
  </g>
  <g id="Group_115416" data-name="Group 115416" transform="translate(8.921 3.138)">
    <path id="Path_161719" data-name="Path 161719" d="M266.543,84.225h-1.158A2.388,2.388,0,0,1,263,81.84V80.681a.681.681,0,1,1,1.363,0V81.84a1.023,1.023,0,0,0,1.022,1.022h1.158a.681.681,0,1,1,0,1.363Z" transform="translate(-263 -80)" fill="#ea4c89"/>
  </g>
  <g id="Group_115417" data-name="Group 115417" transform="translate(4.853 13.599)">
    <path id="Path_161720" data-name="Path 161720" d="M164.383,356.363h-4.7a.681.681,0,1,1,0-1.363h4.7a.681.681,0,1,1,0,1.363Z" transform="translate(-159 -355)" fill="#ea4c89"/>
  </g>
  <g id="Group_115418" data-name="Group 115418" transform="translate(4.853 10.649)">
    <path id="Path_161721" data-name="Path 161721" d="M164.383,279.363h-4.7a.681.681,0,1,1,0-1.363h4.7a.681.681,0,1,1,0,1.363Z" transform="translate(-159 -278)" fill="#ea4c89"/>
  </g>
</svg>
