<svg xmlns="http://www.w3.org/2000/svg" width="20" height="20" viewBox="0 0 20 20">
  <g id="ic_services" transform="translate(-10731 -3121)">
    <rect id="Rectangle_14062" data-name="Rectangle 14062" width="20" height="20" transform="translate(10731 3121)" fill="none"/>
    <g id="Group_118418" data-name="Group 118418" transform="translate(10716 3121.399)">
      <g id="Catalog" transform="translate(16)">
        <g id="Group_118416" data-name="Group 118416" transform="translate(2.25 0.75)" opacity="0.2">
          <path id="Path_162760" data-name="Path 162760" d="M78.25,34.7V23a3,3,0,0,1,3-3H79a3,3,0,0,0-3,3V34.7a3,3,0,0,0,3,3h2.25A3,3,0,0,1,78.25,34.7Z" transform="translate(-76 -20)" fill="#ea4c89"/>
        </g>
        <path id="Path_162761" data-name="Path 162761" d="M144.251,84.5a2.243,2.243,0,0,0-1.585.655l-.585-1.236,1.348-2.848a.75.75,0,1,0-1.356-.642l-.822,1.737-.822-1.737a.75.75,0,0,0-1.356.642l1.348,2.848-.585,1.236a2.249,2.249,0,1,0,.449,2.558h0l.966-2.04.965,2.04h0a2.25,2.25,0,1,0,2.035-3.212Zm-6,3a.75.75,0,1,1,.75-.75A.751.751,0,0,1,138.25,87.5Zm6,0a.75.75,0,1,1,.75-.75A.75.75,0,0,1,144.251,87.5Z" transform="translate(-131.5 -76.995)" fill="#ea4c89"/>
        <g id="Group_118417" data-name="Group 118417">
          <path id="Path_162762" data-name="Path 162762" d="M33.251,12a.75.75,0,0,0,.75-.75v-9A2.253,2.253,0,0,0,31.751,0H21.25A3.755,3.755,0,0,0,17.5,3.75V4.5h-.75a.75.75,0,1,0,0,1.5h.75V9h-.75a.75.75,0,1,0,0,1.5h.75v3h-.75a.75.75,0,1,0,0,1.5h.75v.45a3.755,3.755,0,0,0,3.75,3.75h10.5A2.253,2.253,0,0,0,34,16.951v-2.7a.75.75,0,1,0-1.5,0v2.7a.751.751,0,0,1-.75.75H21.25A2.253,2.253,0,0,1,19,15.451V3.75A2.253,2.253,0,0,1,21.25,1.5h10.5a.751.751,0,0,1,.75.75v9A.75.75,0,0,0,33.251,12Z" transform="translate(-16)" fill="#ea4c89"/>
          <path id="Path_162763" data-name="Path 162763" d="M176.75,360a.75.75,0,1,0,0,1.5h6a.75.75,0,1,0,0-1.5Z" transform="translate(-170 -346.499)" fill="#ea4c89"/>
        </g>
      </g>
    </g>
  </g>
</svg>
